%TF.GenerationSoftware,KiCad,Pcbnew,8.0.7*%
%TF.CreationDate,2025-01-11T17:50:10-05:00*%
%TF.ProjectId,Qwiic-UART,51776969-632d-4554-9152-542e6b696361,0.0.1*%
%TF.SameCoordinates,PX853a720PY66f2fb0*%
%TF.FileFunction,Legend,Top*%
%TF.FilePolarity,Positive*%
%FSLAX46Y46*%
G04 Gerber Fmt 4.6, Leading zero omitted, Abs format (unit mm)*
G04 Created by KiCad (PCBNEW 8.0.7) date 2025-01-11 17:50:10*
%MOMM*%
%LPD*%
G01*
G04 APERTURE LIST*
G04 Aperture macros list*
%AMRoundRect*
0 Rectangle with rounded corners*
0 $1 Rounding radius*
0 $2 $3 $4 $5 $6 $7 $8 $9 X,Y pos of 4 corners*
0 Add a 4 corners polygon primitive as box body*
4,1,4,$2,$3,$4,$5,$6,$7,$8,$9,$2,$3,0*
0 Add four circle primitives for the rounded corners*
1,1,$1+$1,$2,$3*
1,1,$1+$1,$4,$5*
1,1,$1+$1,$6,$7*
1,1,$1+$1,$8,$9*
0 Add four rect primitives between the rounded corners*
20,1,$1+$1,$2,$3,$4,$5,0*
20,1,$1+$1,$4,$5,$6,$7,0*
20,1,$1+$1,$6,$7,$8,$9,0*
20,1,$1+$1,$8,$9,$2,$3,0*%
G04 Aperture macros list end*
%ADD10C,0.150000*%
%ADD11C,0.120000*%
%ADD12RoundRect,0.237500X-0.237500X0.250000X-0.237500X-0.250000X0.237500X-0.250000X0.237500X0.250000X0*%
%ADD13RoundRect,0.150000X0.625000X-0.150000X0.625000X0.150000X-0.625000X0.150000X-0.625000X-0.150000X0*%
%ADD14RoundRect,0.250000X0.650000X-0.350000X0.650000X0.350000X-0.650000X0.350000X-0.650000X-0.350000X0*%
%ADD15RoundRect,0.150000X-0.625000X0.150000X-0.625000X-0.150000X0.625000X-0.150000X0.625000X0.150000X0*%
%ADD16RoundRect,0.250000X-0.650000X0.350000X-0.650000X-0.350000X0.650000X-0.350000X0.650000X0.350000X0*%
%ADD17RoundRect,0.100000X0.100000X-0.637500X0.100000X0.637500X-0.100000X0.637500X-0.100000X-0.637500X0*%
%ADD18RoundRect,0.237500X-0.300000X-0.237500X0.300000X-0.237500X0.300000X0.237500X-0.300000X0.237500X0*%
%ADD19RoundRect,0.237500X0.250000X0.237500X-0.250000X0.237500X-0.250000X-0.237500X0.250000X-0.237500X0*%
%ADD20RoundRect,0.200000X-0.200000X-0.250000X0.200000X-0.250000X0.200000X0.250000X-0.200000X0.250000X0*%
%ADD21C,3.200000*%
%ADD22C,1.700000*%
G04 APERTURE END LIST*
D10*
X-3355181Y-9823220D02*
X-4355181Y-9823220D01*
X-3355181Y-9347030D02*
X-4355181Y-9347030D01*
X-4355181Y-9347030D02*
X-3355181Y-8775602D01*
X-3355181Y-8775602D02*
X-4355181Y-8775602D01*
X-4355181Y-8442268D02*
X-4355181Y-7870840D01*
X-3355181Y-8156554D02*
X-4355181Y-8156554D01*
X-4632800Y-9961316D02*
X-4632800Y-7875602D01*
X1724819Y7680364D02*
X1248628Y7347031D01*
X1724819Y7108936D02*
X724819Y7108936D01*
X724819Y7108936D02*
X724819Y7489888D01*
X724819Y7489888D02*
X772438Y7585126D01*
X772438Y7585126D02*
X820057Y7632745D01*
X820057Y7632745D02*
X915295Y7680364D01*
X915295Y7680364D02*
X1058152Y7680364D01*
X1058152Y7680364D02*
X1153390Y7632745D01*
X1153390Y7632745D02*
X1201009Y7585126D01*
X1201009Y7585126D02*
X1248628Y7489888D01*
X1248628Y7489888D02*
X1248628Y7108936D01*
X724819Y8013698D02*
X1724819Y8680364D01*
X724819Y8680364D02*
X1724819Y8013698D01*
X1343866Y9823221D02*
X1343866Y9061317D01*
X1534342Y9251793D02*
X1343866Y9061317D01*
X1343866Y9061317D02*
X1153390Y9251793D01*
X3264819Y-9918458D02*
X3264819Y-9299411D01*
X3264819Y-9299411D02*
X3645771Y-9632744D01*
X3645771Y-9632744D02*
X3645771Y-9489887D01*
X3645771Y-9489887D02*
X3693390Y-9394649D01*
X3693390Y-9394649D02*
X3741009Y-9347030D01*
X3741009Y-9347030D02*
X3836247Y-9299411D01*
X3836247Y-9299411D02*
X4074342Y-9299411D01*
X4074342Y-9299411D02*
X4169580Y-9347030D01*
X4169580Y-9347030D02*
X4217200Y-9394649D01*
X4217200Y-9394649D02*
X4264819Y-9489887D01*
X4264819Y-9489887D02*
X4264819Y-9775601D01*
X4264819Y-9775601D02*
X4217200Y-9870839D01*
X4217200Y-9870839D02*
X4169580Y-9918458D01*
X4169580Y-8870839D02*
X4217200Y-8823220D01*
X4217200Y-8823220D02*
X4264819Y-8870839D01*
X4264819Y-8870839D02*
X4217200Y-8918458D01*
X4217200Y-8918458D02*
X4169580Y-8870839D01*
X4169580Y-8870839D02*
X4264819Y-8870839D01*
X3264819Y-8489887D02*
X3264819Y-7870840D01*
X3264819Y-7870840D02*
X3645771Y-8204173D01*
X3645771Y-8204173D02*
X3645771Y-8061316D01*
X3645771Y-8061316D02*
X3693390Y-7966078D01*
X3693390Y-7966078D02*
X3741009Y-7918459D01*
X3741009Y-7918459D02*
X3836247Y-7870840D01*
X3836247Y-7870840D02*
X4074342Y-7870840D01*
X4074342Y-7870840D02*
X4169580Y-7918459D01*
X4169580Y-7918459D02*
X4217200Y-7966078D01*
X4217200Y-7966078D02*
X4264819Y-8061316D01*
X4264819Y-8061316D02*
X4264819Y-8347030D01*
X4264819Y-8347030D02*
X4217200Y-8442268D01*
X4217200Y-8442268D02*
X4169580Y-8489887D01*
X3264819Y-7585125D02*
X4264819Y-7251792D01*
X4264819Y-7251792D02*
X3264819Y-6918459D01*
X1677200Y-9870839D02*
X1724819Y-9727982D01*
X1724819Y-9727982D02*
X1724819Y-9489887D01*
X1724819Y-9489887D02*
X1677200Y-9394649D01*
X1677200Y-9394649D02*
X1629580Y-9347030D01*
X1629580Y-9347030D02*
X1534342Y-9299411D01*
X1534342Y-9299411D02*
X1439104Y-9299411D01*
X1439104Y-9299411D02*
X1343866Y-9347030D01*
X1343866Y-9347030D02*
X1296247Y-9394649D01*
X1296247Y-9394649D02*
X1248628Y-9489887D01*
X1248628Y-9489887D02*
X1201009Y-9680363D01*
X1201009Y-9680363D02*
X1153390Y-9775601D01*
X1153390Y-9775601D02*
X1105771Y-9823220D01*
X1105771Y-9823220D02*
X1010533Y-9870839D01*
X1010533Y-9870839D02*
X915295Y-9870839D01*
X915295Y-9870839D02*
X820057Y-9823220D01*
X820057Y-9823220D02*
X772438Y-9775601D01*
X772438Y-9775601D02*
X724819Y-9680363D01*
X724819Y-9680363D02*
X724819Y-9442268D01*
X724819Y-9442268D02*
X772438Y-9299411D01*
X1724819Y-8870839D02*
X724819Y-8870839D01*
X724819Y-8870839D02*
X724819Y-8632744D01*
X724819Y-8632744D02*
X772438Y-8489887D01*
X772438Y-8489887D02*
X867676Y-8394649D01*
X867676Y-8394649D02*
X962914Y-8347030D01*
X962914Y-8347030D02*
X1153390Y-8299411D01*
X1153390Y-8299411D02*
X1296247Y-8299411D01*
X1296247Y-8299411D02*
X1486723Y-8347030D01*
X1486723Y-8347030D02*
X1581961Y-8394649D01*
X1581961Y-8394649D02*
X1677200Y-8489887D01*
X1677200Y-8489887D02*
X1724819Y-8632744D01*
X1724819Y-8632744D02*
X1724819Y-8870839D01*
X1439104Y-7918458D02*
X1439104Y-7442268D01*
X1724819Y-8013696D02*
X724819Y-7680363D01*
X724819Y-7680363D02*
X1724819Y-7347030D01*
X3264819Y7204174D02*
X3264819Y7775602D01*
X4264819Y7489888D02*
X3264819Y7489888D01*
X3264819Y8013698D02*
X4264819Y8680364D01*
X3264819Y8680364D02*
X4264819Y8013698D01*
X3883866Y9061317D02*
X3883866Y9823221D01*
X4074342Y9632745D02*
X3883866Y9823221D01*
X3883866Y9823221D02*
X3693390Y9632745D01*
G36*
X-6159453Y9752457D02*
G01*
X-6082466Y9713963D01*
X-6008352Y9639850D01*
X-5970181Y9525337D01*
X-5970181Y9374412D01*
X-6820181Y9374412D01*
X-6820181Y9525337D01*
X-6782010Y9639851D01*
X-6707897Y9713963D01*
X-6630910Y9752457D01*
X-6457376Y9795840D01*
X-6332987Y9795840D01*
X-6159453Y9752457D01*
G37*
G36*
X-5709070Y7018063D02*
G01*
X-7081292Y7018063D01*
X-7081292Y7680364D01*
X-6970181Y7680364D01*
X-6970181Y7537507D01*
X-6969452Y7530102D01*
X-6969592Y7528127D01*
X-6969002Y7525530D01*
X-6968740Y7522875D01*
X-6967982Y7521044D01*
X-6966332Y7513790D01*
X-6918713Y7370933D01*
X-6912719Y7357508D01*
X-6910954Y7355473D01*
X-6909922Y7352982D01*
X-6900595Y7341617D01*
X-6805357Y7246379D01*
X-6799607Y7241659D01*
X-6798308Y7240162D01*
X-6796054Y7238743D01*
X-6793992Y7237051D01*
X-6792160Y7236293D01*
X-6785865Y7232330D01*
X-6690627Y7184711D01*
X-6689558Y7184302D01*
X-6689122Y7183979D01*
X-6682986Y7181787D01*
X-6676896Y7179456D01*
X-6676356Y7179418D01*
X-6675276Y7179032D01*
X-6484800Y7131413D01*
X-6482264Y7131038D01*
X-6481242Y7130615D01*
X-6475730Y7130073D01*
X-6470256Y7129263D01*
X-6469164Y7129426D01*
X-6466610Y7129174D01*
X-6323753Y7129174D01*
X-6321200Y7129426D01*
X-6320107Y7129263D01*
X-6314634Y7130073D01*
X-6309121Y7130615D01*
X-6308100Y7131038D01*
X-6305563Y7131413D01*
X-6115087Y7179032D01*
X-6114008Y7179418D01*
X-6113468Y7179456D01*
X-6107387Y7181784D01*
X-6101241Y7183979D01*
X-6100806Y7184302D01*
X-6099736Y7184711D01*
X-6004498Y7232330D01*
X-5998202Y7236294D01*
X-5996372Y7237051D01*
X-5994314Y7238741D01*
X-5992055Y7240162D01*
X-5990756Y7241661D01*
X-5985006Y7246379D01*
X-5889767Y7341617D01*
X-5880439Y7352982D01*
X-5879408Y7355473D01*
X-5877643Y7357507D01*
X-5871649Y7370933D01*
X-5824030Y7513789D01*
X-5822381Y7521045D01*
X-5821622Y7522875D01*
X-5821361Y7525529D01*
X-5820770Y7528126D01*
X-5820911Y7530101D01*
X-5820181Y7537507D01*
X-5820181Y7632745D01*
X-5820911Y7640152D01*
X-5820770Y7642126D01*
X-5821361Y7644724D01*
X-5821622Y7647377D01*
X-5822381Y7649208D01*
X-5824030Y7656463D01*
X-5871649Y7799319D01*
X-5877643Y7812745D01*
X-5879410Y7814782D01*
X-5880440Y7817270D01*
X-5889768Y7828636D01*
X-5937388Y7876255D01*
X-5948753Y7885582D01*
X-5964590Y7892142D01*
X-5975788Y7896780D01*
X-5990420Y7898221D01*
X-6323753Y7898221D01*
X-6338385Y7896780D01*
X-6365421Y7885581D01*
X-6386113Y7864889D01*
X-6397312Y7837853D01*
X-6398753Y7823221D01*
X-6398753Y7632745D01*
X-6397312Y7618113D01*
X-6386113Y7591077D01*
X-6365421Y7570385D01*
X-6338385Y7559186D01*
X-6309121Y7559186D01*
X-6282085Y7570385D01*
X-6261393Y7591077D01*
X-6250194Y7618113D01*
X-6248753Y7632745D01*
X-6248753Y7748221D01*
X-6021486Y7748221D01*
X-6008352Y7735088D01*
X-5970181Y7620575D01*
X-5970181Y7549677D01*
X-6008352Y7435165D01*
X-6082466Y7361052D01*
X-6159453Y7322558D01*
X-6332987Y7279174D01*
X-6457376Y7279174D01*
X-6630910Y7322558D01*
X-6707897Y7361051D01*
X-6782010Y7435164D01*
X-6820181Y7549678D01*
X-6820181Y7662659D01*
X-6780480Y7742061D01*
X-6775225Y7755792D01*
X-6773151Y7784982D01*
X-6782405Y7812744D01*
X-6801578Y7834851D01*
X-6827753Y7847939D01*
X-6856943Y7850013D01*
X-6884704Y7840759D01*
X-6906812Y7821586D01*
X-6914644Y7809143D01*
X-6962263Y7713905D01*
X-6967518Y7700173D01*
X-6967709Y7697486D01*
X-6968740Y7694996D01*
X-6970181Y7680364D01*
X-7081292Y7680364D01*
X-7081292Y8257032D01*
X-6969998Y8257032D01*
X-6968740Y8247136D01*
X-6968740Y8237161D01*
X-6966911Y8232746D01*
X-6966308Y8228002D01*
X-6961358Y8219338D01*
X-6957541Y8210125D01*
X-6954163Y8206747D01*
X-6951789Y8202593D01*
X-6943900Y8196484D01*
X-6936849Y8189433D01*
X-6932433Y8187604D01*
X-6928652Y8184676D01*
X-6919029Y8182052D01*
X-6909813Y8178234D01*
X-6902331Y8177498D01*
X-6900420Y8176976D01*
X-6898945Y8177164D01*
X-6895181Y8176793D01*
X-5895181Y8176793D01*
X-5880549Y8178234D01*
X-5853513Y8189433D01*
X-5832821Y8210125D01*
X-5821622Y8237161D01*
X-5821622Y8266425D01*
X-5832821Y8293461D01*
X-5853513Y8314153D01*
X-5880549Y8325352D01*
X-5895181Y8326793D01*
X-6612764Y8326793D01*
X-5857970Y8758103D01*
X-5854886Y8760293D01*
X-5853513Y8760861D01*
X-5852116Y8762259D01*
X-5845981Y8766613D01*
X-5839873Y8774502D01*
X-5832821Y8781553D01*
X-5830991Y8785972D01*
X-5828064Y8789751D01*
X-5825440Y8799373D01*
X-5821622Y8808589D01*
X-5821622Y8813370D01*
X-5820364Y8817982D01*
X-5821622Y8827879D01*
X-5821622Y8837853D01*
X-5823452Y8842269D01*
X-5824054Y8847012D01*
X-5829005Y8855677D01*
X-5832821Y8864889D01*
X-5836200Y8868268D01*
X-5838573Y8872421D01*
X-5846463Y8878531D01*
X-5853513Y8885581D01*
X-5857930Y8887411D01*
X-5861710Y8890338D01*
X-5871334Y8892963D01*
X-5880549Y8896780D01*
X-5888032Y8897517D01*
X-5889942Y8898038D01*
X-5891418Y8897851D01*
X-5895181Y8898221D01*
X-6895181Y8898221D01*
X-6909813Y8896780D01*
X-6936849Y8885581D01*
X-6957541Y8864889D01*
X-6968740Y8837853D01*
X-6968740Y8808589D01*
X-6957541Y8781553D01*
X-6936849Y8760861D01*
X-6909813Y8749662D01*
X-6895181Y8748221D01*
X-6177598Y8748221D01*
X-6932391Y8316911D01*
X-6935475Y8314723D01*
X-6936849Y8314153D01*
X-6938249Y8312754D01*
X-6944381Y8308401D01*
X-6950491Y8300512D01*
X-6957541Y8293461D01*
X-6959371Y8289045D01*
X-6962298Y8285264D01*
X-6964923Y8275641D01*
X-6968740Y8266425D01*
X-6968740Y8261645D01*
X-6969998Y8257032D01*
X-7081292Y8257032D01*
X-7081292Y9537507D01*
X-6970181Y9537507D01*
X-6970181Y9299412D01*
X-6968740Y9284780D01*
X-6957541Y9257744D01*
X-6936849Y9237052D01*
X-6909813Y9225853D01*
X-6895181Y9224412D01*
X-5895181Y9224412D01*
X-5880549Y9225853D01*
X-5853513Y9237052D01*
X-5832821Y9257744D01*
X-5821622Y9284780D01*
X-5820181Y9299412D01*
X-5820181Y9537507D01*
X-5820911Y9544914D01*
X-5820770Y9546888D01*
X-5821361Y9549486D01*
X-5821622Y9552139D01*
X-5822381Y9553970D01*
X-5824030Y9561225D01*
X-5871649Y9704081D01*
X-5877643Y9717507D01*
X-5879408Y9719542D01*
X-5880439Y9722032D01*
X-5889767Y9733397D01*
X-5985006Y9828635D01*
X-5990756Y9833354D01*
X-5992055Y9834852D01*
X-5994314Y9836274D01*
X-5996372Y9837963D01*
X-5998202Y9838721D01*
X-6004498Y9842684D01*
X-6099736Y9890303D01*
X-6100806Y9890713D01*
X-6101241Y9891035D01*
X-6107387Y9893231D01*
X-6113468Y9895558D01*
X-6114008Y9895597D01*
X-6115087Y9895982D01*
X-6305563Y9943601D01*
X-6308100Y9943977D01*
X-6309121Y9944399D01*
X-6314634Y9944942D01*
X-6320107Y9945751D01*
X-6321200Y9945589D01*
X-6323753Y9945840D01*
X-6466610Y9945840D01*
X-6469164Y9945589D01*
X-6470256Y9945751D01*
X-6475730Y9944942D01*
X-6481242Y9944399D01*
X-6482264Y9943977D01*
X-6484800Y9943601D01*
X-6675276Y9895982D01*
X-6676356Y9895597D01*
X-6676896Y9895558D01*
X-6682986Y9893228D01*
X-6689122Y9891035D01*
X-6689558Y9890713D01*
X-6690627Y9890303D01*
X-6785865Y9842684D01*
X-6792160Y9838722D01*
X-6793992Y9837963D01*
X-6796054Y9836272D01*
X-6798308Y9834852D01*
X-6799607Y9833356D01*
X-6805357Y9828635D01*
X-6900595Y9733397D01*
X-6909922Y9722032D01*
X-6910954Y9719542D01*
X-6912719Y9717506D01*
X-6918713Y9704081D01*
X-6966332Y9561224D01*
X-6967982Y9553971D01*
X-6968740Y9552139D01*
X-6969002Y9549485D01*
X-6969592Y9546887D01*
X-6969452Y9544913D01*
X-6970181Y9537507D01*
X-7081292Y9537507D01*
X-7081292Y10056951D01*
X-5709070Y10056951D01*
X-5709070Y7018063D01*
G37*
G36*
X6540547Y-7322556D02*
G01*
X6617534Y-7361050D01*
X6691648Y-7435163D01*
X6729819Y-7549676D01*
X6729819Y-7700601D01*
X5879819Y-7700601D01*
X5879819Y-7549676D01*
X5917990Y-7435162D01*
X5992103Y-7361050D01*
X6069090Y-7322556D01*
X6242624Y-7279173D01*
X6367013Y-7279173D01*
X6540547Y-7322556D01*
G37*
G36*
X6990930Y-10056950D02*
G01*
X5618708Y-10056950D01*
X5618708Y-9394649D01*
X5729819Y-9394649D01*
X5729819Y-9537506D01*
X5730548Y-9544911D01*
X5730408Y-9546886D01*
X5730998Y-9549483D01*
X5731260Y-9552138D01*
X5732018Y-9553969D01*
X5733668Y-9561223D01*
X5781287Y-9704080D01*
X5787281Y-9717505D01*
X5789046Y-9719540D01*
X5790078Y-9722031D01*
X5799405Y-9733396D01*
X5894643Y-9828634D01*
X5900393Y-9833354D01*
X5901692Y-9834851D01*
X5903946Y-9836270D01*
X5906008Y-9837962D01*
X5907840Y-9838720D01*
X5914135Y-9842683D01*
X6009373Y-9890302D01*
X6010442Y-9890711D01*
X6010878Y-9891034D01*
X6017014Y-9893226D01*
X6023104Y-9895557D01*
X6023644Y-9895595D01*
X6024724Y-9895981D01*
X6215200Y-9943600D01*
X6217736Y-9943975D01*
X6218758Y-9944398D01*
X6224270Y-9944940D01*
X6229744Y-9945750D01*
X6230836Y-9945587D01*
X6233390Y-9945839D01*
X6376247Y-9945839D01*
X6378800Y-9945587D01*
X6379893Y-9945750D01*
X6385366Y-9944940D01*
X6390879Y-9944398D01*
X6391900Y-9943975D01*
X6394437Y-9943600D01*
X6584913Y-9895981D01*
X6585992Y-9895595D01*
X6586532Y-9895557D01*
X6592613Y-9893229D01*
X6598759Y-9891034D01*
X6599194Y-9890711D01*
X6600264Y-9890302D01*
X6695502Y-9842683D01*
X6701798Y-9838719D01*
X6703628Y-9837962D01*
X6705686Y-9836272D01*
X6707945Y-9834851D01*
X6709244Y-9833352D01*
X6714994Y-9828634D01*
X6810233Y-9733396D01*
X6819561Y-9722031D01*
X6820592Y-9719540D01*
X6822357Y-9717506D01*
X6828351Y-9704080D01*
X6875970Y-9561224D01*
X6877619Y-9553968D01*
X6878378Y-9552138D01*
X6878639Y-9549484D01*
X6879230Y-9546887D01*
X6879089Y-9544912D01*
X6879819Y-9537506D01*
X6879819Y-9442268D01*
X6879089Y-9434861D01*
X6879230Y-9432887D01*
X6878639Y-9430289D01*
X6878378Y-9427636D01*
X6877619Y-9425805D01*
X6875970Y-9418550D01*
X6828351Y-9275694D01*
X6822357Y-9262268D01*
X6820590Y-9260231D01*
X6819560Y-9257743D01*
X6810232Y-9246377D01*
X6762612Y-9198758D01*
X6751247Y-9189431D01*
X6735410Y-9182871D01*
X6724212Y-9178233D01*
X6709580Y-9176792D01*
X6376247Y-9176792D01*
X6361615Y-9178233D01*
X6334579Y-9189432D01*
X6313887Y-9210124D01*
X6302688Y-9237160D01*
X6301247Y-9251792D01*
X6301247Y-9442268D01*
X6302688Y-9456900D01*
X6313887Y-9483936D01*
X6334579Y-9504628D01*
X6361615Y-9515827D01*
X6390879Y-9515827D01*
X6417915Y-9504628D01*
X6438607Y-9483936D01*
X6449806Y-9456900D01*
X6451247Y-9442268D01*
X6451247Y-9326792D01*
X6678514Y-9326792D01*
X6691648Y-9339925D01*
X6729819Y-9454438D01*
X6729819Y-9525336D01*
X6691648Y-9639848D01*
X6617534Y-9713961D01*
X6540547Y-9752455D01*
X6367013Y-9795839D01*
X6242624Y-9795839D01*
X6069090Y-9752455D01*
X5992103Y-9713962D01*
X5917990Y-9639849D01*
X5879819Y-9525335D01*
X5879819Y-9412354D01*
X5919520Y-9332952D01*
X5924775Y-9319221D01*
X5926849Y-9290031D01*
X5917595Y-9262269D01*
X5898422Y-9240162D01*
X5872247Y-9227074D01*
X5843057Y-9225000D01*
X5815296Y-9234254D01*
X5793188Y-9253427D01*
X5785356Y-9265870D01*
X5737737Y-9361108D01*
X5732482Y-9374840D01*
X5732291Y-9377527D01*
X5731260Y-9380017D01*
X5729819Y-9394649D01*
X5618708Y-9394649D01*
X5618708Y-8817981D01*
X5730002Y-8817981D01*
X5731260Y-8827877D01*
X5731260Y-8837852D01*
X5733089Y-8842267D01*
X5733692Y-8847011D01*
X5738642Y-8855675D01*
X5742459Y-8864888D01*
X5745837Y-8868266D01*
X5748211Y-8872420D01*
X5756100Y-8878529D01*
X5763151Y-8885580D01*
X5767567Y-8887409D01*
X5771348Y-8890337D01*
X5780971Y-8892961D01*
X5790187Y-8896779D01*
X5797669Y-8897515D01*
X5799580Y-8898037D01*
X5801055Y-8897849D01*
X5804819Y-8898220D01*
X6804819Y-8898220D01*
X6819451Y-8896779D01*
X6846487Y-8885580D01*
X6867179Y-8864888D01*
X6878378Y-8837852D01*
X6878378Y-8808588D01*
X6867179Y-8781552D01*
X6846487Y-8760860D01*
X6819451Y-8749661D01*
X6804819Y-8748220D01*
X6087236Y-8748220D01*
X6842030Y-8316910D01*
X6845114Y-8314720D01*
X6846487Y-8314152D01*
X6847884Y-8312754D01*
X6854019Y-8308400D01*
X6860127Y-8300511D01*
X6867179Y-8293460D01*
X6869009Y-8289041D01*
X6871936Y-8285262D01*
X6874560Y-8275640D01*
X6878378Y-8266424D01*
X6878378Y-8261643D01*
X6879636Y-8257031D01*
X6878378Y-8247134D01*
X6878378Y-8237160D01*
X6876548Y-8232744D01*
X6875946Y-8228001D01*
X6870995Y-8219336D01*
X6867179Y-8210124D01*
X6863800Y-8206745D01*
X6861427Y-8202592D01*
X6853537Y-8196482D01*
X6846487Y-8189432D01*
X6842070Y-8187602D01*
X6838290Y-8184675D01*
X6828666Y-8182050D01*
X6819451Y-8178233D01*
X6811968Y-8177496D01*
X6810058Y-8176975D01*
X6808582Y-8177162D01*
X6804819Y-8176792D01*
X5804819Y-8176792D01*
X5790187Y-8178233D01*
X5763151Y-8189432D01*
X5742459Y-8210124D01*
X5731260Y-8237160D01*
X5731260Y-8266424D01*
X5742459Y-8293460D01*
X5763151Y-8314152D01*
X5790187Y-8325351D01*
X5804819Y-8326792D01*
X6522402Y-8326792D01*
X5767609Y-8758102D01*
X5764525Y-8760290D01*
X5763151Y-8760860D01*
X5761751Y-8762259D01*
X5755619Y-8766612D01*
X5749509Y-8774501D01*
X5742459Y-8781552D01*
X5740629Y-8785968D01*
X5737702Y-8789749D01*
X5735077Y-8799372D01*
X5731260Y-8808588D01*
X5731260Y-8813368D01*
X5730002Y-8817981D01*
X5618708Y-8817981D01*
X5618708Y-7537506D01*
X5729819Y-7537506D01*
X5729819Y-7775601D01*
X5731260Y-7790233D01*
X5742459Y-7817269D01*
X5763151Y-7837961D01*
X5790187Y-7849160D01*
X5804819Y-7850601D01*
X6804819Y-7850601D01*
X6819451Y-7849160D01*
X6846487Y-7837961D01*
X6867179Y-7817269D01*
X6878378Y-7790233D01*
X6879819Y-7775601D01*
X6879819Y-7537506D01*
X6879089Y-7530099D01*
X6879230Y-7528125D01*
X6878639Y-7525527D01*
X6878378Y-7522874D01*
X6877619Y-7521043D01*
X6875970Y-7513788D01*
X6828351Y-7370932D01*
X6822357Y-7357506D01*
X6820592Y-7355471D01*
X6819561Y-7352981D01*
X6810233Y-7341616D01*
X6714994Y-7246378D01*
X6709244Y-7241659D01*
X6707945Y-7240161D01*
X6705686Y-7238739D01*
X6703628Y-7237050D01*
X6701798Y-7236292D01*
X6695502Y-7232329D01*
X6600264Y-7184710D01*
X6599194Y-7184300D01*
X6598759Y-7183978D01*
X6592613Y-7181782D01*
X6586532Y-7179455D01*
X6585992Y-7179416D01*
X6584913Y-7179031D01*
X6394437Y-7131412D01*
X6391900Y-7131036D01*
X6390879Y-7130614D01*
X6385366Y-7130071D01*
X6379893Y-7129262D01*
X6378800Y-7129424D01*
X6376247Y-7129173D01*
X6233390Y-7129173D01*
X6230836Y-7129424D01*
X6229744Y-7129262D01*
X6224270Y-7130071D01*
X6218758Y-7130614D01*
X6217736Y-7131036D01*
X6215200Y-7131412D01*
X6024724Y-7179031D01*
X6023644Y-7179416D01*
X6023104Y-7179455D01*
X6017014Y-7181785D01*
X6010878Y-7183978D01*
X6010442Y-7184300D01*
X6009373Y-7184710D01*
X5914135Y-7232329D01*
X5907840Y-7236291D01*
X5906008Y-7237050D01*
X5903946Y-7238741D01*
X5901692Y-7240161D01*
X5900393Y-7241657D01*
X5894643Y-7246378D01*
X5799405Y-7341616D01*
X5790078Y-7352981D01*
X5789046Y-7355471D01*
X5787281Y-7357507D01*
X5781287Y-7370932D01*
X5733668Y-7513789D01*
X5732018Y-7521042D01*
X5731260Y-7522874D01*
X5730998Y-7525528D01*
X5730408Y-7528126D01*
X5730548Y-7530100D01*
X5729819Y-7537506D01*
X5618708Y-7537506D01*
X5618708Y-7018062D01*
X6990930Y-7018062D01*
X6990930Y-10056950D01*
G37*
X-3355181Y6918459D02*
X-3831372Y6585126D01*
X-3355181Y6347031D02*
X-4355181Y6347031D01*
X-4355181Y6347031D02*
X-4355181Y6727983D01*
X-4355181Y6727983D02*
X-4307562Y6823221D01*
X-4307562Y6823221D02*
X-4259943Y6870840D01*
X-4259943Y6870840D02*
X-4164705Y6918459D01*
X-4164705Y6918459D02*
X-4021848Y6918459D01*
X-4021848Y6918459D02*
X-3926610Y6870840D01*
X-3926610Y6870840D02*
X-3878991Y6823221D01*
X-3878991Y6823221D02*
X-3831372Y6727983D01*
X-3831372Y6727983D02*
X-3831372Y6347031D01*
X-4355181Y7204174D02*
X-4355181Y7775602D01*
X-3355181Y7489888D02*
X-4355181Y7489888D01*
X-3402800Y8061317D02*
X-3355181Y8204174D01*
X-3355181Y8204174D02*
X-3355181Y8442269D01*
X-3355181Y8442269D02*
X-3402800Y8537507D01*
X-3402800Y8537507D02*
X-3450420Y8585126D01*
X-3450420Y8585126D02*
X-3545658Y8632745D01*
X-3545658Y8632745D02*
X-3640896Y8632745D01*
X-3640896Y8632745D02*
X-3736134Y8585126D01*
X-3736134Y8585126D02*
X-3783753Y8537507D01*
X-3783753Y8537507D02*
X-3831372Y8442269D01*
X-3831372Y8442269D02*
X-3878991Y8251793D01*
X-3878991Y8251793D02*
X-3926610Y8156555D01*
X-3926610Y8156555D02*
X-3974229Y8108936D01*
X-3974229Y8108936D02*
X-4069467Y8061317D01*
X-4069467Y8061317D02*
X-4164705Y8061317D01*
X-4164705Y8061317D02*
X-4259943Y8108936D01*
X-4259943Y8108936D02*
X-4307562Y8156555D01*
X-4307562Y8156555D02*
X-4355181Y8251793D01*
X-4355181Y8251793D02*
X-4355181Y8489888D01*
X-4355181Y8489888D02*
X-4307562Y8632745D01*
X-4632800Y6208935D02*
X-4632800Y8723221D01*
X-3736134Y9061317D02*
X-3736134Y9823221D01*
X-3545658Y9632745D02*
X-3736134Y9823221D01*
X-3736134Y9823221D02*
X-3926610Y9632745D01*
X-862800Y-9870839D02*
X-815181Y-9727982D01*
X-815181Y-9727982D02*
X-815181Y-9489887D01*
X-815181Y-9489887D02*
X-862800Y-9394649D01*
X-862800Y-9394649D02*
X-910420Y-9347030D01*
X-910420Y-9347030D02*
X-1005658Y-9299411D01*
X-1005658Y-9299411D02*
X-1100896Y-9299411D01*
X-1100896Y-9299411D02*
X-1196134Y-9347030D01*
X-1196134Y-9347030D02*
X-1243753Y-9394649D01*
X-1243753Y-9394649D02*
X-1291372Y-9489887D01*
X-1291372Y-9489887D02*
X-1338991Y-9680363D01*
X-1338991Y-9680363D02*
X-1386610Y-9775601D01*
X-1386610Y-9775601D02*
X-1434229Y-9823220D01*
X-1434229Y-9823220D02*
X-1529467Y-9870839D01*
X-1529467Y-9870839D02*
X-1624705Y-9870839D01*
X-1624705Y-9870839D02*
X-1719943Y-9823220D01*
X-1719943Y-9823220D02*
X-1767562Y-9775601D01*
X-1767562Y-9775601D02*
X-1815181Y-9680363D01*
X-1815181Y-9680363D02*
X-1815181Y-9442268D01*
X-1815181Y-9442268D02*
X-1767562Y-9299411D01*
X-910420Y-8299411D02*
X-862800Y-8347030D01*
X-862800Y-8347030D02*
X-815181Y-8489887D01*
X-815181Y-8489887D02*
X-815181Y-8585125D01*
X-815181Y-8585125D02*
X-862800Y-8727982D01*
X-862800Y-8727982D02*
X-958039Y-8823220D01*
X-958039Y-8823220D02*
X-1053277Y-8870839D01*
X-1053277Y-8870839D02*
X-1243753Y-8918458D01*
X-1243753Y-8918458D02*
X-1386610Y-8918458D01*
X-1386610Y-8918458D02*
X-1577086Y-8870839D01*
X-1577086Y-8870839D02*
X-1672324Y-8823220D01*
X-1672324Y-8823220D02*
X-1767562Y-8727982D01*
X-1767562Y-8727982D02*
X-1815181Y-8585125D01*
X-1815181Y-8585125D02*
X-1815181Y-8489887D01*
X-1815181Y-8489887D02*
X-1767562Y-8347030D01*
X-1767562Y-8347030D02*
X-1719943Y-8299411D01*
X-815181Y-7394649D02*
X-815181Y-7870839D01*
X-815181Y-7870839D02*
X-1815181Y-7870839D01*
X-5895181Y-9251792D02*
X-6371372Y-9585125D01*
X-5895181Y-9823220D02*
X-6895181Y-9823220D01*
X-6895181Y-9823220D02*
X-6895181Y-9442268D01*
X-6895181Y-9442268D02*
X-6847562Y-9347030D01*
X-6847562Y-9347030D02*
X-6799943Y-9299411D01*
X-6799943Y-9299411D02*
X-6704705Y-9251792D01*
X-6704705Y-9251792D02*
X-6561848Y-9251792D01*
X-6561848Y-9251792D02*
X-6466610Y-9299411D01*
X-6466610Y-9299411D02*
X-6418991Y-9347030D01*
X-6418991Y-9347030D02*
X-6371372Y-9442268D01*
X-6371372Y-9442268D02*
X-6371372Y-9823220D01*
X-5942800Y-8870839D02*
X-5895181Y-8727982D01*
X-5895181Y-8727982D02*
X-5895181Y-8489887D01*
X-5895181Y-8489887D02*
X-5942800Y-8394649D01*
X-5942800Y-8394649D02*
X-5990420Y-8347030D01*
X-5990420Y-8347030D02*
X-6085658Y-8299411D01*
X-6085658Y-8299411D02*
X-6180896Y-8299411D01*
X-6180896Y-8299411D02*
X-6276134Y-8347030D01*
X-6276134Y-8347030D02*
X-6323753Y-8394649D01*
X-6323753Y-8394649D02*
X-6371372Y-8489887D01*
X-6371372Y-8489887D02*
X-6418991Y-8680363D01*
X-6418991Y-8680363D02*
X-6466610Y-8775601D01*
X-6466610Y-8775601D02*
X-6514229Y-8823220D01*
X-6514229Y-8823220D02*
X-6609467Y-8870839D01*
X-6609467Y-8870839D02*
X-6704705Y-8870839D01*
X-6704705Y-8870839D02*
X-6799943Y-8823220D01*
X-6799943Y-8823220D02*
X-6847562Y-8775601D01*
X-6847562Y-8775601D02*
X-6895181Y-8680363D01*
X-6895181Y-8680363D02*
X-6895181Y-8442268D01*
X-6895181Y-8442268D02*
X-6847562Y-8299411D01*
X-6895181Y-8013696D02*
X-6895181Y-7442268D01*
X-5895181Y-7727982D02*
X-6895181Y-7727982D01*
X-7172800Y-9961316D02*
X-7172800Y-7447030D01*
X-1815181Y6966079D02*
X-1815181Y7585126D01*
X-1815181Y7585126D02*
X-1434229Y7251793D01*
X-1434229Y7251793D02*
X-1434229Y7394650D01*
X-1434229Y7394650D02*
X-1386610Y7489888D01*
X-1386610Y7489888D02*
X-1338991Y7537507D01*
X-1338991Y7537507D02*
X-1243753Y7585126D01*
X-1243753Y7585126D02*
X-1005658Y7585126D01*
X-1005658Y7585126D02*
X-910420Y7537507D01*
X-910420Y7537507D02*
X-862800Y7489888D01*
X-862800Y7489888D02*
X-815181Y7394650D01*
X-815181Y7394650D02*
X-815181Y7108936D01*
X-815181Y7108936D02*
X-862800Y7013698D01*
X-862800Y7013698D02*
X-910420Y6966079D01*
X-910420Y8013698D02*
X-862800Y8061317D01*
X-862800Y8061317D02*
X-815181Y8013698D01*
X-815181Y8013698D02*
X-862800Y7966079D01*
X-862800Y7966079D02*
X-910420Y8013698D01*
X-910420Y8013698D02*
X-815181Y8013698D01*
X-1815181Y8394650D02*
X-1815181Y9013697D01*
X-1815181Y9013697D02*
X-1434229Y8680364D01*
X-1434229Y8680364D02*
X-1434229Y8823221D01*
X-1434229Y8823221D02*
X-1386610Y8918459D01*
X-1386610Y8918459D02*
X-1338991Y8966078D01*
X-1338991Y8966078D02*
X-1243753Y9013697D01*
X-1243753Y9013697D02*
X-1005658Y9013697D01*
X-1005658Y9013697D02*
X-910420Y8966078D01*
X-910420Y8966078D02*
X-862800Y8918459D01*
X-862800Y8918459D02*
X-815181Y8823221D01*
X-815181Y8823221D02*
X-815181Y8537507D01*
X-815181Y8537507D02*
X-862800Y8442269D01*
X-862800Y8442269D02*
X-910420Y8394650D01*
X-1815181Y9299412D02*
X-815181Y9632745D01*
X-815181Y9632745D02*
X-1815181Y9966078D01*
X6709580Y6918459D02*
X6757200Y6870840D01*
X6757200Y6870840D02*
X6804819Y6727983D01*
X6804819Y6727983D02*
X6804819Y6632745D01*
X6804819Y6632745D02*
X6757200Y6489888D01*
X6757200Y6489888D02*
X6661961Y6394650D01*
X6661961Y6394650D02*
X6566723Y6347031D01*
X6566723Y6347031D02*
X6376247Y6299412D01*
X6376247Y6299412D02*
X6233390Y6299412D01*
X6233390Y6299412D02*
X6042914Y6347031D01*
X6042914Y6347031D02*
X5947676Y6394650D01*
X5947676Y6394650D02*
X5852438Y6489888D01*
X5852438Y6489888D02*
X5804819Y6632745D01*
X5804819Y6632745D02*
X5804819Y6727983D01*
X5804819Y6727983D02*
X5852438Y6870840D01*
X5852438Y6870840D02*
X5900057Y6918459D01*
X5804819Y7204174D02*
X5804819Y7775602D01*
X6804819Y7489888D02*
X5804819Y7489888D01*
X6757200Y8061317D02*
X6804819Y8204174D01*
X6804819Y8204174D02*
X6804819Y8442269D01*
X6804819Y8442269D02*
X6757200Y8537507D01*
X6757200Y8537507D02*
X6709580Y8585126D01*
X6709580Y8585126D02*
X6614342Y8632745D01*
X6614342Y8632745D02*
X6519104Y8632745D01*
X6519104Y8632745D02*
X6423866Y8585126D01*
X6423866Y8585126D02*
X6376247Y8537507D01*
X6376247Y8537507D02*
X6328628Y8442269D01*
X6328628Y8442269D02*
X6281009Y8251793D01*
X6281009Y8251793D02*
X6233390Y8156555D01*
X6233390Y8156555D02*
X6185771Y8108936D01*
X6185771Y8108936D02*
X6090533Y8061317D01*
X6090533Y8061317D02*
X5995295Y8061317D01*
X5995295Y8061317D02*
X5900057Y8108936D01*
X5900057Y8108936D02*
X5852438Y8156555D01*
X5852438Y8156555D02*
X5804819Y8251793D01*
X5804819Y8251793D02*
X5804819Y8489888D01*
X5804819Y8489888D02*
X5852438Y8632745D01*
X5527200Y6208935D02*
X5527200Y8723221D01*
X6423866Y9823221D02*
X6423866Y9061317D01*
X6614342Y9251793D02*
X6423866Y9061317D01*
X6423866Y9061317D02*
X6233390Y9251793D01*
D11*
%TO.C,R1*%
X4557500Y-3555276D02*
X4557500Y-4064724D01*
X5602500Y-3555276D02*
X5602500Y-4064724D01*
%TO.C,J2*%
X7740000Y3110000D02*
X7740000Y2060000D01*
X7740000Y-2060000D02*
X6750000Y-2060000D01*
X7740000Y-3110000D02*
X7740000Y-2060000D01*
X10240000Y3110000D02*
X7740000Y3110000D01*
X10240000Y-3110000D02*
X7740000Y-3110000D01*
X12210000Y-1940000D02*
X12210000Y1940000D01*
%TO.C,J1*%
X-12210000Y1940000D02*
X-12210000Y-1940000D01*
X-10240000Y3110000D02*
X-7740000Y3110000D01*
X-10240000Y-3110000D02*
X-7740000Y-3110000D01*
X-7740000Y3110000D02*
X-7740000Y2060000D01*
X-7740000Y2060000D02*
X-6750000Y2060000D01*
X-7740000Y-3110000D02*
X-7740000Y-2060000D01*
%TO.C,U1*%
X-1465000Y0D02*
X-1465000Y2200000D01*
X-1465000Y0D02*
X-1465000Y-2200000D01*
X4005000Y0D02*
X4005000Y2200000D01*
X4005000Y0D02*
X4005000Y-2200000D01*
X-765000Y-4190000D02*
X-1245000Y-4190000D01*
X-1005000Y-3860000D01*
X-765000Y-4190000D01*
G36*
X-765000Y-4190000D02*
G01*
X-1245000Y-4190000D01*
X-1005000Y-3860000D01*
X-765000Y-4190000D01*
G37*
%TO.C,C2*%
X-3956267Y-2665000D02*
X-3663733Y-2665000D01*
X-3956267Y-3685000D02*
X-3663733Y-3685000D01*
%TO.C,R2*%
X-3555276Y4332500D02*
X-4064724Y4332500D01*
X-3555276Y3287500D02*
X-4064724Y3287500D01*
%TO.C,X1*%
X-4190000Y2830000D02*
G75*
G02*
X-3969999Y2630000I-90001J-320002D01*
G01*
X-2700000Y950000D02*
X-2700000Y1590000D01*
X-3970000Y2630000D02*
X-3640000Y2630000D01*
X-3980000Y-90000D02*
X-3640000Y-90000D01*
X-4190000Y2830000D02*
X-4880000Y2830000D01*
X-4920000Y950000D02*
X-4920000Y1590000D01*
%TO.C,C1*%
X-3956267Y-760000D02*
X-3663733Y-760000D01*
X-3956267Y-1780000D02*
X-3663733Y-1780000D01*
%TD*%
G36*
X7563039Y-6369685D02*
G01*
X7608794Y-6422489D01*
X7620000Y-6474000D01*
X7620000Y-12576000D01*
X7600315Y-12643039D01*
X7547511Y-12688794D01*
X7496000Y-12700000D01*
X5204000Y-12700000D01*
X5136961Y-12680315D01*
X5091206Y-12627511D01*
X5080000Y-12576000D01*
X5080000Y-9952164D01*
X5723576Y-9952164D01*
X6886062Y-9952164D01*
X6886062Y-7122848D01*
X5723576Y-7122848D01*
X5723576Y-9952164D01*
X5080000Y-9952164D01*
X5080000Y-6474000D01*
X5099685Y-6406961D01*
X5152489Y-6361206D01*
X5204000Y-6350000D01*
X7496000Y-6350000D01*
X7563039Y-6369685D01*
G37*
G36*
X-5136961Y12680315D02*
G01*
X-5091206Y12627511D01*
X-5080000Y12576000D01*
X-5080000Y6474000D01*
X-5099685Y6406961D01*
X-5152489Y6361206D01*
X-5204000Y6350000D01*
X-7496000Y6350000D01*
X-7563039Y6369685D01*
X-7608794Y6422489D01*
X-7620000Y6474000D01*
X-7620000Y7122849D01*
X-6976424Y7122849D01*
X-5813938Y7122849D01*
X-5813938Y9952165D01*
X-6976424Y9952165D01*
X-6976424Y7122849D01*
X-7620000Y7122849D01*
X-7620000Y12576000D01*
X-7600315Y12643039D01*
X-7547511Y12688794D01*
X-7496000Y12700000D01*
X-5204000Y12700000D01*
X-5136961Y12680315D01*
G37*
G36*
X12643039Y-1019685D02*
G01*
X12688794Y-1072489D01*
X12700000Y-1124000D01*
X12700000Y-1876000D01*
X12680315Y-1943039D01*
X12627511Y-1988794D01*
X12576000Y-2000000D01*
X6124000Y-2000000D01*
X6056961Y-1980315D01*
X6011206Y-1927511D01*
X6000000Y-1876000D01*
X6000000Y-1124000D01*
X6019685Y-1056961D01*
X6072489Y-1011206D01*
X6124000Y-1000000D01*
X12576000Y-1000000D01*
X12643039Y-1019685D01*
G37*
G36*
X-6056961Y1980315D02*
G01*
X-6011206Y1927511D01*
X-6000000Y1876000D01*
X-6000000Y1124000D01*
X-6019685Y1056961D01*
X-6072489Y1011206D01*
X-6124000Y1000000D01*
X-12576000Y1000000D01*
X-12643039Y1019685D01*
X-12688794Y1072489D01*
X-12700000Y1124000D01*
X-12700000Y1876000D01*
X-12680315Y1943039D01*
X-12627511Y1988794D01*
X-12576000Y2000000D01*
X-6124000Y2000000D01*
X-6056961Y1980315D01*
G37*
%LPC*%
D12*
%TO.C,R1*%
X5080000Y-2897500D03*
X5080000Y-4722500D03*
%TD*%
D13*
%TO.C,J2*%
X7525000Y-1500000D03*
X7525000Y-500000D03*
X7525000Y500000D03*
X7525000Y1500000D03*
D14*
X11400000Y-2800000D03*
X11400000Y2800000D03*
%TD*%
D15*
%TO.C,J1*%
X-7525000Y1500000D03*
X-7525000Y500000D03*
X-7525000Y-500000D03*
X-7525000Y-1500000D03*
D16*
X-11400000Y2800000D03*
X-11400000Y-2800000D03*
%TD*%
D17*
%TO.C,U1*%
X-1005000Y-2862500D03*
X-355000Y-2862500D03*
X295000Y-2862500D03*
X945000Y-2862500D03*
X1595000Y-2862500D03*
X2245000Y-2862500D03*
X2895000Y-2862500D03*
X3545000Y-2862500D03*
X3545000Y2862500D03*
X2895000Y2862500D03*
X2245000Y2862500D03*
X1595000Y2862500D03*
X945000Y2862500D03*
X295000Y2862500D03*
X-355000Y2862500D03*
X-1005000Y2862500D03*
%TD*%
D18*
%TO.C,C2*%
X-4672500Y-3175000D03*
X-2947500Y-3175000D03*
%TD*%
D19*
%TO.C,R2*%
X-2897500Y3810000D03*
X-4722500Y3810000D03*
%TD*%
D20*
%TO.C,X1*%
X-3085000Y2195000D03*
X-3085000Y345000D03*
X-4535000Y345000D03*
X-4535000Y2195000D03*
%TD*%
D18*
%TO.C,C1*%
X-4672500Y-1270000D03*
X-2947500Y-1270000D03*
%TD*%
D21*
%TO.C,REF\u002A\u002A*%
X10160000Y10160000D03*
%TD*%
%TO.C,REF\u002A\u002A*%
X10160000Y-10160000D03*
%TD*%
%TO.C,REF\u002A\u002A*%
X-10160000Y10160000D03*
%TD*%
%TO.C,REF\u002A\u002A*%
X-10160000Y-10160000D03*
%TD*%
D22*
%TO.C,J4*%
X6350000Y-11430000D03*
X3810000Y-11430000D03*
X1270000Y-11430000D03*
X-1270000Y-11430000D03*
X-3810000Y-11430000D03*
X-6350000Y-11430000D03*
%TD*%
%TO.C,J3*%
X-6350000Y11430000D03*
X-3810000Y11430000D03*
X-1270000Y11430000D03*
X1270000Y11430000D03*
X3810000Y11430000D03*
X6350000Y11430000D03*
%TD*%
%LPD*%
M02*
