%TF.GenerationSoftware,KiCad,Pcbnew,8.0.7*%
%TF.CreationDate,2025-01-11T17:50:10-05:00*%
%TF.ProjectId,Qwiic-UART,51776969-632d-4554-9152-542e6b696361,0.0.1*%
%TF.SameCoordinates,PX853a720PY66f2fb0*%
%TF.FileFunction,Legend,Bot*%
%TF.FilePolarity,Positive*%
%FSLAX46Y46*%
G04 Gerber Fmt 4.6, Leading zero omitted, Abs format (unit mm)*
G04 Created by KiCad (PCBNEW 8.0.7) date 2025-01-11 17:50:10*
%MOMM*%
%LPD*%
G01*
G04 APERTURE LIST*
G04 Aperture macros list*
%AMFreePoly0*
4,1,19,0.500000,-0.750000,0.000000,-0.750000,0.000000,-0.744911,-0.071157,-0.744911,-0.207708,-0.704816,-0.327430,-0.627875,-0.420627,-0.520320,-0.479746,-0.390866,-0.500000,-0.250000,-0.500000,0.250000,-0.479746,0.390866,-0.420627,0.520320,-0.327430,0.627875,-0.207708,0.704816,-0.071157,0.744911,0.000000,0.744911,0.000000,0.750000,0.500000,0.750000,0.500000,-0.750000,0.500000,-0.750000,
$1*%
%AMFreePoly1*
4,1,19,0.000000,0.744911,0.071157,0.744911,0.207708,0.704816,0.327430,0.627875,0.420627,0.520320,0.479746,0.390866,0.500000,0.250000,0.500000,-0.250000,0.479746,-0.390866,0.420627,-0.520320,0.327430,-0.627875,0.207708,-0.704816,0.071157,-0.744911,0.000000,-0.744911,0.000000,-0.750000,-0.500000,-0.750000,-0.500000,0.750000,0.000000,0.750000,0.000000,0.744911,0.000000,0.744911,
$1*%
G04 Aperture macros list end*
%ADD10C,0.100000*%
%ADD11C,0.150000*%
%ADD12C,0.120000*%
%ADD13C,0.010000*%
%ADD14C,3.200000*%
%ADD15C,1.700000*%
%ADD16FreePoly0,270.000000*%
%ADD17FreePoly1,270.000000*%
G04 APERTURE END LIST*
D10*
X8890000Y5080000D02*
X11430000Y5080000D01*
X11430000Y-5080000D01*
X8890000Y-5080000D01*
X8890000Y5080000D01*
X8890000Y0D02*
X11430000Y0D01*
D11*
G36*
X10523979Y-3869626D02*
G01*
X10595922Y-3941569D01*
X10630180Y-4010085D01*
X10630180Y-4165151D01*
X10595922Y-4233667D01*
X10523979Y-4305609D01*
X10362613Y-4345951D01*
X10047748Y-4345951D01*
X9886381Y-4305609D01*
X9814438Y-4233666D01*
X9780180Y-4165149D01*
X9780180Y-4030588D01*
X9834018Y-4084426D01*
X9868276Y-4152942D01*
X9868276Y-4230475D01*
X9869717Y-4245107D01*
X9880916Y-4272143D01*
X9901608Y-4292835D01*
X9928644Y-4304034D01*
X9957908Y-4304034D01*
X9984944Y-4292835D01*
X10005636Y-4272143D01*
X10016835Y-4245107D01*
X10018276Y-4230475D01*
X10018276Y-4135237D01*
X10016835Y-4120605D01*
X10015804Y-4118116D01*
X10015613Y-4115427D01*
X10010358Y-4101696D01*
X9962739Y-4006458D01*
X9958774Y-4000158D01*
X9958017Y-3998331D01*
X9956328Y-3996274D01*
X9954907Y-3994015D01*
X9953408Y-3992715D01*
X9948690Y-3986966D01*
X9858866Y-3897142D01*
X9886381Y-3869626D01*
X10047748Y-3829285D01*
X10362613Y-3829285D01*
X10523979Y-3869626D01*
G37*
G36*
X10891291Y-4607062D02*
G01*
X9424420Y-4607062D01*
X9424420Y-3697285D01*
X9535531Y-3697285D01*
X9537605Y-3726475D01*
X9542860Y-3740207D01*
X9590479Y-3835445D01*
X9594443Y-3841744D01*
X9595201Y-3843572D01*
X9596889Y-3845628D01*
X9598311Y-3847888D01*
X9599809Y-3849187D01*
X9604528Y-3854937D01*
X9661542Y-3911950D01*
X9638098Y-3958838D01*
X9632843Y-3972570D01*
X9632651Y-3975259D01*
X9631621Y-3977748D01*
X9630180Y-3992380D01*
X9630180Y-4182856D01*
X9631621Y-4197488D01*
X9632651Y-4199976D01*
X9632843Y-4202666D01*
X9638098Y-4216398D01*
X9685718Y-4311636D01*
X9689683Y-4317934D01*
X9690440Y-4319762D01*
X9692128Y-4321819D01*
X9693551Y-4324079D01*
X9695049Y-4325378D01*
X9699767Y-4331127D01*
X9795005Y-4426365D01*
X9806370Y-4435693D01*
X9811523Y-4437827D01*
X9816002Y-4441146D01*
X9829848Y-4446093D01*
X10020324Y-4493712D01*
X10022860Y-4494087D01*
X10023882Y-4494510D01*
X10029394Y-4495052D01*
X10034868Y-4495862D01*
X10035960Y-4495699D01*
X10038514Y-4495951D01*
X10371847Y-4495951D01*
X10374400Y-4495699D01*
X10375493Y-4495862D01*
X10380966Y-4495052D01*
X10386479Y-4494510D01*
X10387500Y-4494087D01*
X10390037Y-4493712D01*
X10580513Y-4446093D01*
X10594359Y-4441146D01*
X10598840Y-4437825D01*
X10603991Y-4435692D01*
X10615356Y-4426365D01*
X10710594Y-4331127D01*
X10715314Y-4325376D01*
X10716811Y-4324078D01*
X10718230Y-4321823D01*
X10719922Y-4319762D01*
X10720680Y-4317929D01*
X10724643Y-4311635D01*
X10772262Y-4216397D01*
X10777517Y-4202666D01*
X10777708Y-4199976D01*
X10778739Y-4197488D01*
X10780180Y-4182856D01*
X10780180Y-3992380D01*
X10778739Y-3977748D01*
X10777708Y-3975259D01*
X10777517Y-3972570D01*
X10772262Y-3958839D01*
X10724643Y-3863601D01*
X10720680Y-3857306D01*
X10719922Y-3855474D01*
X10718230Y-3853412D01*
X10716811Y-3851158D01*
X10715314Y-3849859D01*
X10710594Y-3844109D01*
X10615356Y-3748871D01*
X10603991Y-3739544D01*
X10598840Y-3737410D01*
X10594359Y-3734090D01*
X10580513Y-3729143D01*
X10390037Y-3681524D01*
X10387500Y-3681148D01*
X10386479Y-3680726D01*
X10380966Y-3680183D01*
X10375493Y-3679374D01*
X10374400Y-3679536D01*
X10371847Y-3679285D01*
X10038514Y-3679285D01*
X10035960Y-3679536D01*
X10034868Y-3679374D01*
X10029394Y-3680183D01*
X10023882Y-3680726D01*
X10022860Y-3681148D01*
X10020324Y-3681524D01*
X9829848Y-3729143D01*
X9816002Y-3734090D01*
X9811523Y-3737408D01*
X9806370Y-3739543D01*
X9795005Y-3748871D01*
X9752799Y-3791076D01*
X9719199Y-3757476D01*
X9677024Y-3673125D01*
X9669192Y-3660682D01*
X9647084Y-3641509D01*
X9619323Y-3632255D01*
X9590133Y-3634329D01*
X9563958Y-3647416D01*
X9544785Y-3669524D01*
X9535531Y-3697285D01*
X9424420Y-3697285D01*
X9424420Y-2804708D01*
X9630232Y-2804708D01*
X9632755Y-2815306D01*
X9634189Y-2826097D01*
X9636117Y-2829428D01*
X9637010Y-2833176D01*
X9643396Y-2842000D01*
X9648851Y-2851422D01*
X9651908Y-2853762D01*
X9654167Y-2856883D01*
X9663442Y-2862590D01*
X9672089Y-2869209D01*
X9677488Y-2871234D01*
X9679089Y-2872219D01*
X9680880Y-2872506D01*
X9685855Y-2874372D01*
X10128386Y-2992380D01*
X9685855Y-3110388D01*
X9680880Y-3112253D01*
X9679089Y-3112541D01*
X9677488Y-3113525D01*
X9672089Y-3115551D01*
X9663442Y-3122169D01*
X9654167Y-3127877D01*
X9651908Y-3130997D01*
X9648851Y-3133338D01*
X9643396Y-3142759D01*
X9637010Y-3151584D01*
X9636117Y-3155331D01*
X9634189Y-3158663D01*
X9632755Y-3169453D01*
X9630232Y-3180052D01*
X9630841Y-3183855D01*
X9630335Y-3187671D01*
X9633140Y-3198192D01*
X9634865Y-3208947D01*
X9636882Y-3212226D01*
X9637875Y-3215947D01*
X9644493Y-3224593D01*
X9650201Y-3233869D01*
X9653321Y-3236127D01*
X9655662Y-3239185D01*
X9665083Y-3244639D01*
X9673908Y-3251026D01*
X9679358Y-3252904D01*
X9680987Y-3253847D01*
X9682788Y-3254086D01*
X9687808Y-3255816D01*
X10687809Y-3493911D01*
X10702376Y-3495899D01*
X10731271Y-3491266D01*
X10756193Y-3475930D01*
X10773350Y-3452223D01*
X10780128Y-3423755D01*
X10775495Y-3394860D01*
X10760159Y-3369938D01*
X10736452Y-3352781D01*
X10722552Y-3347991D01*
X10011696Y-3178739D01*
X10438791Y-3064848D01*
X10442218Y-3063562D01*
X10443660Y-3063371D01*
X10445371Y-3062380D01*
X10452558Y-3059685D01*
X10460417Y-3053668D01*
X10468984Y-3048709D01*
X10471937Y-3044851D01*
X10475795Y-3041898D01*
X10480753Y-3033333D01*
X10486772Y-3025471D01*
X10488024Y-3020774D01*
X10490457Y-3016573D01*
X10491760Y-3006764D01*
X10494312Y-2997196D01*
X10493672Y-2992380D01*
X10494312Y-2987564D01*
X10491760Y-2977995D01*
X10490457Y-2968187D01*
X10488024Y-2963985D01*
X10486772Y-2959289D01*
X10480753Y-2951426D01*
X10475795Y-2942862D01*
X10471937Y-2939908D01*
X10468984Y-2936051D01*
X10460417Y-2931091D01*
X10452558Y-2925075D01*
X10445371Y-2922379D01*
X10443660Y-2921389D01*
X10442218Y-2921197D01*
X10438791Y-2919912D01*
X10011696Y-2806020D01*
X10722552Y-2636769D01*
X10736452Y-2631979D01*
X10760159Y-2614822D01*
X10775495Y-2589900D01*
X10780128Y-2561005D01*
X10773350Y-2532537D01*
X10756193Y-2508830D01*
X10731271Y-2493494D01*
X10702376Y-2488861D01*
X10687809Y-2490849D01*
X9687808Y-2728944D01*
X9682788Y-2730673D01*
X9680987Y-2730913D01*
X9679358Y-2731855D01*
X9673908Y-2733734D01*
X9665083Y-2740120D01*
X9655662Y-2745575D01*
X9653321Y-2748632D01*
X9650201Y-2750891D01*
X9644493Y-2760166D01*
X9637875Y-2768813D01*
X9636882Y-2772533D01*
X9634865Y-2775813D01*
X9633140Y-2786567D01*
X9630335Y-2797089D01*
X9630841Y-2800904D01*
X9630232Y-2804708D01*
X9424420Y-2804708D01*
X9424420Y-2168224D01*
X9631621Y-2168224D01*
X9631621Y-2197488D01*
X9642820Y-2224524D01*
X9663512Y-2245216D01*
X9690548Y-2256415D01*
X9705180Y-2257856D01*
X10705180Y-2257856D01*
X10719812Y-2256415D01*
X10746848Y-2245216D01*
X10767540Y-2224524D01*
X10778739Y-2197488D01*
X10778739Y-2168224D01*
X10767540Y-2141188D01*
X10746848Y-2120496D01*
X10719812Y-2109297D01*
X10705180Y-2107856D01*
X9705180Y-2107856D01*
X9690548Y-2109297D01*
X9663512Y-2120496D01*
X9642820Y-2141188D01*
X9631621Y-2168224D01*
X9424420Y-2168224D01*
X9424420Y-1692034D01*
X9631621Y-1692034D01*
X9631621Y-1721298D01*
X9642820Y-1748334D01*
X9663512Y-1769026D01*
X9690548Y-1780225D01*
X9705180Y-1781666D01*
X10705180Y-1781666D01*
X10719812Y-1780225D01*
X10746848Y-1769026D01*
X10767540Y-1748334D01*
X10778739Y-1721298D01*
X10778739Y-1692034D01*
X10767540Y-1664998D01*
X10746848Y-1644306D01*
X10719812Y-1633107D01*
X10705180Y-1631666D01*
X9705180Y-1631666D01*
X9690548Y-1633107D01*
X9663512Y-1644306D01*
X9642820Y-1664998D01*
X9631621Y-1692034D01*
X9424420Y-1692034D01*
X9424420Y-849524D01*
X9630180Y-849524D01*
X9630180Y-944762D01*
X9630909Y-952167D01*
X9630769Y-954143D01*
X9631359Y-956740D01*
X9631621Y-959394D01*
X9632379Y-961224D01*
X9634029Y-968480D01*
X9681649Y-1111337D01*
X9687643Y-1124762D01*
X9689409Y-1126798D01*
X9690440Y-1129287D01*
X9699767Y-1140652D01*
X9795005Y-1235890D01*
X9800755Y-1240610D01*
X9802054Y-1242107D01*
X9804308Y-1243526D01*
X9806370Y-1245218D01*
X9808202Y-1245976D01*
X9814497Y-1249939D01*
X9909735Y-1297558D01*
X9910804Y-1297967D01*
X9911240Y-1298290D01*
X9917376Y-1300482D01*
X9923466Y-1302813D01*
X9924006Y-1302851D01*
X9925086Y-1303237D01*
X10115562Y-1350856D01*
X10118098Y-1351231D01*
X10119120Y-1351654D01*
X10124632Y-1352196D01*
X10130106Y-1353006D01*
X10131198Y-1352843D01*
X10133752Y-1353095D01*
X10276609Y-1353095D01*
X10279162Y-1352843D01*
X10280255Y-1353006D01*
X10285728Y-1352196D01*
X10291241Y-1351654D01*
X10292262Y-1351231D01*
X10294799Y-1350856D01*
X10485275Y-1303237D01*
X10486354Y-1302851D01*
X10486894Y-1302813D01*
X10492975Y-1300485D01*
X10499121Y-1298290D01*
X10499556Y-1297967D01*
X10500626Y-1297558D01*
X10595864Y-1249939D01*
X10602163Y-1245974D01*
X10603991Y-1245217D01*
X10606047Y-1243528D01*
X10608307Y-1242107D01*
X10609606Y-1240608D01*
X10615356Y-1235890D01*
X10710594Y-1140652D01*
X10719922Y-1129287D01*
X10720953Y-1126796D01*
X10722718Y-1124762D01*
X10728712Y-1111336D01*
X10776331Y-968480D01*
X10777980Y-961224D01*
X10778739Y-959394D01*
X10779000Y-956740D01*
X10779591Y-954143D01*
X10779450Y-952168D01*
X10780180Y-944762D01*
X10780180Y-849524D01*
X10779450Y-842117D01*
X10779591Y-840143D01*
X10779000Y-837545D01*
X10778739Y-834892D01*
X10777980Y-833061D01*
X10776331Y-825806D01*
X10728712Y-682950D01*
X10722718Y-669524D01*
X10720951Y-667487D01*
X10719921Y-664999D01*
X10710594Y-653634D01*
X10662975Y-606015D01*
X10651610Y-596688D01*
X10624573Y-585489D01*
X10595311Y-585489D01*
X10568274Y-596688D01*
X10547582Y-617380D01*
X10536383Y-644417D01*
X10536383Y-673679D01*
X10547582Y-700716D01*
X10556909Y-712081D01*
X10592009Y-747181D01*
X10630180Y-861694D01*
X10630180Y-932592D01*
X10592009Y-1047105D01*
X10517896Y-1121218D01*
X10440909Y-1159711D01*
X10267375Y-1203095D01*
X10142986Y-1203095D01*
X9969452Y-1159711D01*
X9892465Y-1121218D01*
X9818351Y-1047104D01*
X9780180Y-932590D01*
X9780180Y-861695D01*
X9818351Y-747181D01*
X9853452Y-712081D01*
X9862779Y-700716D01*
X9873978Y-673680D01*
X9873978Y-644417D01*
X9862779Y-617381D01*
X9842086Y-596688D01*
X9815050Y-585489D01*
X9785787Y-585489D01*
X9758751Y-596688D01*
X9747386Y-606015D01*
X9699767Y-653634D01*
X9690440Y-664999D01*
X9689409Y-667487D01*
X9687643Y-669524D01*
X9681649Y-682949D01*
X9634029Y-825806D01*
X9632379Y-833061D01*
X9631621Y-834892D01*
X9631359Y-837545D01*
X9630769Y-840143D01*
X9630909Y-842118D01*
X9630180Y-849524D01*
X9424420Y-849524D01*
X9424420Y-474378D01*
X10891291Y-474378D01*
X10891291Y-4607062D01*
G37*
X862800Y-9870839D02*
X815180Y-9727982D01*
X815180Y-9727982D02*
X815180Y-9489887D01*
X815180Y-9489887D02*
X862800Y-9394649D01*
X862800Y-9394649D02*
X910419Y-9347030D01*
X910419Y-9347030D02*
X1005657Y-9299411D01*
X1005657Y-9299411D02*
X1100895Y-9299411D01*
X1100895Y-9299411D02*
X1196133Y-9347030D01*
X1196133Y-9347030D02*
X1243752Y-9394649D01*
X1243752Y-9394649D02*
X1291371Y-9489887D01*
X1291371Y-9489887D02*
X1338990Y-9680363D01*
X1338990Y-9680363D02*
X1386609Y-9775601D01*
X1386609Y-9775601D02*
X1434228Y-9823220D01*
X1434228Y-9823220D02*
X1529466Y-9870839D01*
X1529466Y-9870839D02*
X1624704Y-9870839D01*
X1624704Y-9870839D02*
X1719942Y-9823220D01*
X1719942Y-9823220D02*
X1767561Y-9775601D01*
X1767561Y-9775601D02*
X1815180Y-9680363D01*
X1815180Y-9680363D02*
X1815180Y-9442268D01*
X1815180Y-9442268D02*
X1767561Y-9299411D01*
X815180Y-8870839D02*
X1815180Y-8870839D01*
X1815180Y-8870839D02*
X1815180Y-8632744D01*
X1815180Y-8632744D02*
X1767561Y-8489887D01*
X1767561Y-8489887D02*
X1672323Y-8394649D01*
X1672323Y-8394649D02*
X1577085Y-8347030D01*
X1577085Y-8347030D02*
X1386609Y-8299411D01*
X1386609Y-8299411D02*
X1243752Y-8299411D01*
X1243752Y-8299411D02*
X1053276Y-8347030D01*
X1053276Y-8347030D02*
X958038Y-8394649D01*
X958038Y-8394649D02*
X862800Y-8489887D01*
X862800Y-8489887D02*
X815180Y-8632744D01*
X815180Y-8632744D02*
X815180Y-8870839D01*
X1100895Y-7918458D02*
X1100895Y-7442268D01*
X815180Y-8013696D02*
X1815180Y-7680363D01*
X1815180Y-7680363D02*
X815180Y-7347030D01*
X-10249820Y-2012744D02*
X-10249820Y-1917506D01*
X-10249820Y-1917506D02*
X-10297439Y-1822268D01*
X-10297439Y-1822268D02*
X-10345058Y-1774649D01*
X-10345058Y-1774649D02*
X-10440296Y-1727030D01*
X-10440296Y-1727030D02*
X-10630772Y-1679411D01*
X-10630772Y-1679411D02*
X-10868867Y-1679411D01*
X-10868867Y-1679411D02*
X-11059343Y-1727030D01*
X-11059343Y-1727030D02*
X-11154581Y-1774649D01*
X-11154581Y-1774649D02*
X-11202200Y-1822268D01*
X-11202200Y-1822268D02*
X-11249820Y-1917506D01*
X-11249820Y-1917506D02*
X-11249820Y-2012744D01*
X-11249820Y-2012744D02*
X-11202200Y-2107982D01*
X-11202200Y-2107982D02*
X-11154581Y-2155601D01*
X-11154581Y-2155601D02*
X-11059343Y-2203220D01*
X-11059343Y-2203220D02*
X-10868867Y-2250839D01*
X-10868867Y-2250839D02*
X-10630772Y-2250839D01*
X-10630772Y-2250839D02*
X-10440296Y-2203220D01*
X-10440296Y-2203220D02*
X-10345058Y-2155601D01*
X-10345058Y-2155601D02*
X-10297439Y-2107982D01*
X-10297439Y-2107982D02*
X-10249820Y-2012744D01*
X-11249820Y-1346077D02*
X-10583153Y-822268D01*
X-10583153Y-1346077D02*
X-11249820Y-822268D01*
X-11249820Y-393696D02*
X-11249820Y-203220D01*
X-11249820Y-203220D02*
X-11202200Y-107982D01*
X-11202200Y-107982D02*
X-11154581Y-60363D01*
X-11154581Y-60363D02*
X-11011724Y34875D01*
X-11011724Y34875D02*
X-10821248Y82494D01*
X-10821248Y82494D02*
X-10440296Y82494D01*
X-10440296Y82494D02*
X-10345058Y34875D01*
X-10345058Y34875D02*
X-10297439Y-12744D01*
X-10297439Y-12744D02*
X-10249820Y-107982D01*
X-10249820Y-107982D02*
X-10249820Y-298458D01*
X-10249820Y-298458D02*
X-10297439Y-393696D01*
X-10297439Y-393696D02*
X-10345058Y-441315D01*
X-10345058Y-441315D02*
X-10440296Y-488934D01*
X-10440296Y-488934D02*
X-10678391Y-488934D01*
X-10678391Y-488934D02*
X-10773629Y-441315D01*
X-10773629Y-441315D02*
X-10821248Y-393696D01*
X-10821248Y-393696D02*
X-10868867Y-298458D01*
X-10868867Y-298458D02*
X-10868867Y-107982D01*
X-10868867Y-107982D02*
X-10821248Y-12744D01*
X-10821248Y-12744D02*
X-10773629Y34875D01*
X-10773629Y34875D02*
X-10678391Y82494D01*
X-10249820Y701542D02*
X-10249820Y796780D01*
X-10249820Y796780D02*
X-10297439Y892018D01*
X-10297439Y892018D02*
X-10345058Y939637D01*
X-10345058Y939637D02*
X-10440296Y987256D01*
X-10440296Y987256D02*
X-10630772Y1034875D01*
X-10630772Y1034875D02*
X-10868867Y1034875D01*
X-10868867Y1034875D02*
X-11059343Y987256D01*
X-11059343Y987256D02*
X-11154581Y939637D01*
X-11154581Y939637D02*
X-11202200Y892018D01*
X-11202200Y892018D02*
X-11249820Y796780D01*
X-11249820Y796780D02*
X-11249820Y701542D01*
X-11249820Y701542D02*
X-11202200Y606304D01*
X-11202200Y606304D02*
X-11154581Y558685D01*
X-11154581Y558685D02*
X-11059343Y511066D01*
X-11059343Y511066D02*
X-10868867Y463447D01*
X-10868867Y463447D02*
X-10630772Y463447D01*
X-10630772Y463447D02*
X-10440296Y511066D01*
X-10440296Y511066D02*
X-10345058Y558685D01*
X-10345058Y558685D02*
X-10297439Y606304D01*
X-10297439Y606304D02*
X-10249820Y701542D01*
X-6804820Y-9251792D02*
X-6328629Y-9585125D01*
X-6804820Y-9823220D02*
X-5804820Y-9823220D01*
X-5804820Y-9823220D02*
X-5804820Y-9442268D01*
X-5804820Y-9442268D02*
X-5852439Y-9347030D01*
X-5852439Y-9347030D02*
X-5900058Y-9299411D01*
X-5900058Y-9299411D02*
X-5995296Y-9251792D01*
X-5995296Y-9251792D02*
X-6138153Y-9251792D01*
X-6138153Y-9251792D02*
X-6233391Y-9299411D01*
X-6233391Y-9299411D02*
X-6281010Y-9347030D01*
X-6281010Y-9347030D02*
X-6328629Y-9442268D01*
X-6328629Y-9442268D02*
X-6328629Y-9823220D01*
X-6757200Y-8870839D02*
X-6804820Y-8727982D01*
X-6804820Y-8727982D02*
X-6804820Y-8489887D01*
X-6804820Y-8489887D02*
X-6757200Y-8394649D01*
X-6757200Y-8394649D02*
X-6709581Y-8347030D01*
X-6709581Y-8347030D02*
X-6614343Y-8299411D01*
X-6614343Y-8299411D02*
X-6519105Y-8299411D01*
X-6519105Y-8299411D02*
X-6423867Y-8347030D01*
X-6423867Y-8347030D02*
X-6376248Y-8394649D01*
X-6376248Y-8394649D02*
X-6328629Y-8489887D01*
X-6328629Y-8489887D02*
X-6281010Y-8680363D01*
X-6281010Y-8680363D02*
X-6233391Y-8775601D01*
X-6233391Y-8775601D02*
X-6185772Y-8823220D01*
X-6185772Y-8823220D02*
X-6090534Y-8870839D01*
X-6090534Y-8870839D02*
X-5995296Y-8870839D01*
X-5995296Y-8870839D02*
X-5900058Y-8823220D01*
X-5900058Y-8823220D02*
X-5852439Y-8775601D01*
X-5852439Y-8775601D02*
X-5804820Y-8680363D01*
X-5804820Y-8680363D02*
X-5804820Y-8442268D01*
X-5804820Y-8442268D02*
X-5852439Y-8299411D01*
X-5804820Y-8013696D02*
X-5804820Y-7442268D01*
X-6804820Y-7727982D02*
X-5804820Y-7727982D01*
X-5527200Y-9961316D02*
X-5527200Y-7447030D01*
X-7709820Y-2012744D02*
X-7709820Y-1917506D01*
X-7709820Y-1917506D02*
X-7757439Y-1822268D01*
X-7757439Y-1822268D02*
X-7805058Y-1774649D01*
X-7805058Y-1774649D02*
X-7900296Y-1727030D01*
X-7900296Y-1727030D02*
X-8090772Y-1679411D01*
X-8090772Y-1679411D02*
X-8328867Y-1679411D01*
X-8328867Y-1679411D02*
X-8519343Y-1727030D01*
X-8519343Y-1727030D02*
X-8614581Y-1774649D01*
X-8614581Y-1774649D02*
X-8662200Y-1822268D01*
X-8662200Y-1822268D02*
X-8709820Y-1917506D01*
X-8709820Y-1917506D02*
X-8709820Y-2012744D01*
X-8709820Y-2012744D02*
X-8662200Y-2107982D01*
X-8662200Y-2107982D02*
X-8614581Y-2155601D01*
X-8614581Y-2155601D02*
X-8519343Y-2203220D01*
X-8519343Y-2203220D02*
X-8328867Y-2250839D01*
X-8328867Y-2250839D02*
X-8090772Y-2250839D01*
X-8090772Y-2250839D02*
X-7900296Y-2203220D01*
X-7900296Y-2203220D02*
X-7805058Y-2155601D01*
X-7805058Y-2155601D02*
X-7757439Y-2107982D01*
X-7757439Y-2107982D02*
X-7709820Y-2012744D01*
X-8709820Y-1346077D02*
X-8043153Y-822268D01*
X-8043153Y-1346077D02*
X-8709820Y-822268D01*
X-8709820Y-393696D02*
X-8709820Y-203220D01*
X-8709820Y-203220D02*
X-8662200Y-107982D01*
X-8662200Y-107982D02*
X-8614581Y-60363D01*
X-8614581Y-60363D02*
X-8471724Y34875D01*
X-8471724Y34875D02*
X-8281248Y82494D01*
X-8281248Y82494D02*
X-7900296Y82494D01*
X-7900296Y82494D02*
X-7805058Y34875D01*
X-7805058Y34875D02*
X-7757439Y-12744D01*
X-7757439Y-12744D02*
X-7709820Y-107982D01*
X-7709820Y-107982D02*
X-7709820Y-298458D01*
X-7709820Y-298458D02*
X-7757439Y-393696D01*
X-7757439Y-393696D02*
X-7805058Y-441315D01*
X-7805058Y-441315D02*
X-7900296Y-488934D01*
X-7900296Y-488934D02*
X-8138391Y-488934D01*
X-8138391Y-488934D02*
X-8233629Y-441315D01*
X-8233629Y-441315D02*
X-8281248Y-393696D01*
X-8281248Y-393696D02*
X-8328867Y-298458D01*
X-8328867Y-298458D02*
X-8328867Y-107982D01*
X-8328867Y-107982D02*
X-8281248Y-12744D01*
X-8281248Y-12744D02*
X-8233629Y34875D01*
X-8233629Y34875D02*
X-8138391Y82494D01*
X-7805058Y463447D02*
X-7757439Y511066D01*
X-7757439Y511066D02*
X-7709820Y606304D01*
X-7709820Y606304D02*
X-7709820Y844399D01*
X-7709820Y844399D02*
X-7757439Y939637D01*
X-7757439Y939637D02*
X-7805058Y987256D01*
X-7805058Y987256D02*
X-7900296Y1034875D01*
X-7900296Y1034875D02*
X-7995534Y1034875D01*
X-7995534Y1034875D02*
X-8138391Y987256D01*
X-8138391Y987256D02*
X-8709820Y415828D01*
X-8709820Y415828D02*
X-8709820Y1034875D01*
X10705180Y944763D02*
X9895657Y944763D01*
X9895657Y944763D02*
X9800419Y992382D01*
X9800419Y992382D02*
X9752800Y1040001D01*
X9752800Y1040001D02*
X9705180Y1135239D01*
X9705180Y1135239D02*
X9705180Y1325715D01*
X9705180Y1325715D02*
X9752800Y1420953D01*
X9752800Y1420953D02*
X9800419Y1468572D01*
X9800419Y1468572D02*
X9895657Y1516191D01*
X9895657Y1516191D02*
X10705180Y1516191D01*
X9990895Y1944763D02*
X9990895Y2420953D01*
X9705180Y1849525D02*
X10705180Y2182858D01*
X10705180Y2182858D02*
X9705180Y2516191D01*
X9705180Y3420953D02*
X10181371Y3087620D01*
X9705180Y2849525D02*
X10705180Y2849525D01*
X10705180Y2849525D02*
X10705180Y3230477D01*
X10705180Y3230477D02*
X10657561Y3325715D01*
X10657561Y3325715D02*
X10609942Y3373334D01*
X10609942Y3373334D02*
X10514704Y3420953D01*
X10514704Y3420953D02*
X10371847Y3420953D01*
X10371847Y3420953D02*
X10276609Y3373334D01*
X10276609Y3373334D02*
X10228990Y3325715D01*
X10228990Y3325715D02*
X10181371Y3230477D01*
X10181371Y3230477D02*
X10181371Y2849525D01*
X10705180Y3706668D02*
X10705180Y4278096D01*
X9705180Y3992382D02*
X10705180Y3992382D01*
X-724820Y6966079D02*
X-724820Y7585126D01*
X-724820Y7585126D02*
X-1105772Y7251793D01*
X-1105772Y7251793D02*
X-1105772Y7394650D01*
X-1105772Y7394650D02*
X-1153391Y7489888D01*
X-1153391Y7489888D02*
X-1201010Y7537507D01*
X-1201010Y7537507D02*
X-1296248Y7585126D01*
X-1296248Y7585126D02*
X-1534343Y7585126D01*
X-1534343Y7585126D02*
X-1629581Y7537507D01*
X-1629581Y7537507D02*
X-1677200Y7489888D01*
X-1677200Y7489888D02*
X-1724820Y7394650D01*
X-1724820Y7394650D02*
X-1724820Y7108936D01*
X-1724820Y7108936D02*
X-1677200Y7013698D01*
X-1677200Y7013698D02*
X-1629581Y6966079D01*
X-1629581Y8013698D02*
X-1677200Y8061317D01*
X-1677200Y8061317D02*
X-1724820Y8013698D01*
X-1724820Y8013698D02*
X-1677200Y7966079D01*
X-1677200Y7966079D02*
X-1629581Y8013698D01*
X-1629581Y8013698D02*
X-1724820Y8013698D01*
X-724820Y8394650D02*
X-724820Y9013697D01*
X-724820Y9013697D02*
X-1105772Y8680364D01*
X-1105772Y8680364D02*
X-1105772Y8823221D01*
X-1105772Y8823221D02*
X-1153391Y8918459D01*
X-1153391Y8918459D02*
X-1201010Y8966078D01*
X-1201010Y8966078D02*
X-1296248Y9013697D01*
X-1296248Y9013697D02*
X-1534343Y9013697D01*
X-1534343Y9013697D02*
X-1629581Y8966078D01*
X-1629581Y8966078D02*
X-1677200Y8918459D01*
X-1677200Y8918459D02*
X-1724820Y8823221D01*
X-1724820Y8823221D02*
X-1724820Y8537507D01*
X-1724820Y8537507D02*
X-1677200Y8442269D01*
X-1677200Y8442269D02*
X-1629581Y8394650D01*
X-724820Y9299412D02*
X-1724820Y9632745D01*
X-1724820Y9632745D02*
X-724820Y9966078D01*
X-5169820Y-2012744D02*
X-5169820Y-1917506D01*
X-5169820Y-1917506D02*
X-5217439Y-1822268D01*
X-5217439Y-1822268D02*
X-5265058Y-1774649D01*
X-5265058Y-1774649D02*
X-5360296Y-1727030D01*
X-5360296Y-1727030D02*
X-5550772Y-1679411D01*
X-5550772Y-1679411D02*
X-5788867Y-1679411D01*
X-5788867Y-1679411D02*
X-5979343Y-1727030D01*
X-5979343Y-1727030D02*
X-6074581Y-1774649D01*
X-6074581Y-1774649D02*
X-6122200Y-1822268D01*
X-6122200Y-1822268D02*
X-6169820Y-1917506D01*
X-6169820Y-1917506D02*
X-6169820Y-2012744D01*
X-6169820Y-2012744D02*
X-6122200Y-2107982D01*
X-6122200Y-2107982D02*
X-6074581Y-2155601D01*
X-6074581Y-2155601D02*
X-5979343Y-2203220D01*
X-5979343Y-2203220D02*
X-5788867Y-2250839D01*
X-5788867Y-2250839D02*
X-5550772Y-2250839D01*
X-5550772Y-2250839D02*
X-5360296Y-2203220D01*
X-5360296Y-2203220D02*
X-5265058Y-2155601D01*
X-5265058Y-2155601D02*
X-5217439Y-2107982D01*
X-5217439Y-2107982D02*
X-5169820Y-2012744D01*
X-6169820Y-1346077D02*
X-5503153Y-822268D01*
X-5503153Y-1346077D02*
X-6169820Y-822268D01*
X-6169820Y-393696D02*
X-6169820Y-203220D01*
X-6169820Y-203220D02*
X-6122200Y-107982D01*
X-6122200Y-107982D02*
X-6074581Y-60363D01*
X-6074581Y-60363D02*
X-5931724Y34875D01*
X-5931724Y34875D02*
X-5741248Y82494D01*
X-5741248Y82494D02*
X-5360296Y82494D01*
X-5360296Y82494D02*
X-5265058Y34875D01*
X-5265058Y34875D02*
X-5217439Y-12744D01*
X-5217439Y-12744D02*
X-5169820Y-107982D01*
X-5169820Y-107982D02*
X-5169820Y-298458D01*
X-5169820Y-298458D02*
X-5217439Y-393696D01*
X-5217439Y-393696D02*
X-5265058Y-441315D01*
X-5265058Y-441315D02*
X-5360296Y-488934D01*
X-5360296Y-488934D02*
X-5598391Y-488934D01*
X-5598391Y-488934D02*
X-5693629Y-441315D01*
X-5693629Y-441315D02*
X-5741248Y-393696D01*
X-5741248Y-393696D02*
X-5788867Y-298458D01*
X-5788867Y-298458D02*
X-5788867Y-107982D01*
X-5788867Y-107982D02*
X-5741248Y-12744D01*
X-5741248Y-12744D02*
X-5693629Y34875D01*
X-5693629Y34875D02*
X-5598391Y82494D01*
X-5503153Y939637D02*
X-6169820Y939637D01*
X-5122200Y701542D02*
X-5836486Y463447D01*
X-5836486Y463447D02*
X-5836486Y1082494D01*
X7165180Y-3095237D02*
X7641371Y-3428570D01*
X7165180Y-3666665D02*
X8165180Y-3666665D01*
X8165180Y-3666665D02*
X8165180Y-3285713D01*
X8165180Y-3285713D02*
X8117561Y-3190475D01*
X8117561Y-3190475D02*
X8069942Y-3142856D01*
X8069942Y-3142856D02*
X7974704Y-3095237D01*
X7974704Y-3095237D02*
X7831847Y-3095237D01*
X7831847Y-3095237D02*
X7736609Y-3142856D01*
X7736609Y-3142856D02*
X7688990Y-3190475D01*
X7688990Y-3190475D02*
X7641371Y-3285713D01*
X7641371Y-3285713D02*
X7641371Y-3666665D01*
X7688990Y-2666665D02*
X7688990Y-2333332D01*
X7165180Y-2190475D02*
X7165180Y-2666665D01*
X7165180Y-2666665D02*
X8165180Y-2666665D01*
X8165180Y-2666665D02*
X8165180Y-2190475D01*
X8165180Y-1904760D02*
X7165180Y-1571427D01*
X7165180Y-1571427D02*
X8165180Y-1238094D01*
X7260419Y-904760D02*
X7212800Y-857141D01*
X7212800Y-857141D02*
X7165180Y-904760D01*
X7165180Y-904760D02*
X7212800Y-952379D01*
X7212800Y-952379D02*
X7260419Y-904760D01*
X7260419Y-904760D02*
X7165180Y-904760D01*
X7784228Y-904760D02*
X7736609Y-857141D01*
X7736609Y-857141D02*
X7688990Y-904760D01*
X7688990Y-904760D02*
X7736609Y-952379D01*
X7736609Y-952379D02*
X7784228Y-904760D01*
X7784228Y-904760D02*
X7688990Y-904760D01*
X8165180Y523811D02*
X8165180Y619049D01*
X8165180Y619049D02*
X8117561Y714287D01*
X8117561Y714287D02*
X8069942Y761906D01*
X8069942Y761906D02*
X7974704Y809525D01*
X7974704Y809525D02*
X7784228Y857144D01*
X7784228Y857144D02*
X7546133Y857144D01*
X7546133Y857144D02*
X7355657Y809525D01*
X7355657Y809525D02*
X7260419Y761906D01*
X7260419Y761906D02*
X7212800Y714287D01*
X7212800Y714287D02*
X7165180Y619049D01*
X7165180Y619049D02*
X7165180Y523811D01*
X7165180Y523811D02*
X7212800Y428573D01*
X7212800Y428573D02*
X7260419Y380954D01*
X7260419Y380954D02*
X7355657Y333335D01*
X7355657Y333335D02*
X7546133Y285716D01*
X7546133Y285716D02*
X7784228Y285716D01*
X7784228Y285716D02*
X7974704Y333335D01*
X7974704Y333335D02*
X8069942Y380954D01*
X8069942Y380954D02*
X8117561Y428573D01*
X8117561Y428573D02*
X8165180Y523811D01*
X7260419Y1285716D02*
X7212800Y1333335D01*
X7212800Y1333335D02*
X7165180Y1285716D01*
X7165180Y1285716D02*
X7212800Y1238097D01*
X7212800Y1238097D02*
X7260419Y1285716D01*
X7260419Y1285716D02*
X7165180Y1285716D01*
X8165180Y1952382D02*
X8165180Y2047620D01*
X8165180Y2047620D02*
X8117561Y2142858D01*
X8117561Y2142858D02*
X8069942Y2190477D01*
X8069942Y2190477D02*
X7974704Y2238096D01*
X7974704Y2238096D02*
X7784228Y2285715D01*
X7784228Y2285715D02*
X7546133Y2285715D01*
X7546133Y2285715D02*
X7355657Y2238096D01*
X7355657Y2238096D02*
X7260419Y2190477D01*
X7260419Y2190477D02*
X7212800Y2142858D01*
X7212800Y2142858D02*
X7165180Y2047620D01*
X7165180Y2047620D02*
X7165180Y1952382D01*
X7165180Y1952382D02*
X7212800Y1857144D01*
X7212800Y1857144D02*
X7260419Y1809525D01*
X7260419Y1809525D02*
X7355657Y1761906D01*
X7355657Y1761906D02*
X7546133Y1714287D01*
X7546133Y1714287D02*
X7784228Y1714287D01*
X7784228Y1714287D02*
X7974704Y1761906D01*
X7974704Y1761906D02*
X8069942Y1809525D01*
X8069942Y1809525D02*
X8117561Y1857144D01*
X8117561Y1857144D02*
X8165180Y1952382D01*
X7260419Y2714287D02*
X7212800Y2761906D01*
X7212800Y2761906D02*
X7165180Y2714287D01*
X7165180Y2714287D02*
X7212800Y2666668D01*
X7212800Y2666668D02*
X7260419Y2714287D01*
X7260419Y2714287D02*
X7165180Y2714287D01*
X7165180Y3714286D02*
X7165180Y3142858D01*
X7165180Y3428572D02*
X8165180Y3428572D01*
X8165180Y3428572D02*
X8022323Y3333334D01*
X8022323Y3333334D02*
X7927085Y3238096D01*
X7927085Y3238096D02*
X7879466Y3142858D01*
X-1677200Y-9870839D02*
X-1724820Y-9727982D01*
X-1724820Y-9727982D02*
X-1724820Y-9489887D01*
X-1724820Y-9489887D02*
X-1677200Y-9394649D01*
X-1677200Y-9394649D02*
X-1629581Y-9347030D01*
X-1629581Y-9347030D02*
X-1534343Y-9299411D01*
X-1534343Y-9299411D02*
X-1439105Y-9299411D01*
X-1439105Y-9299411D02*
X-1343867Y-9347030D01*
X-1343867Y-9347030D02*
X-1296248Y-9394649D01*
X-1296248Y-9394649D02*
X-1248629Y-9489887D01*
X-1248629Y-9489887D02*
X-1201010Y-9680363D01*
X-1201010Y-9680363D02*
X-1153391Y-9775601D01*
X-1153391Y-9775601D02*
X-1105772Y-9823220D01*
X-1105772Y-9823220D02*
X-1010534Y-9870839D01*
X-1010534Y-9870839D02*
X-915296Y-9870839D01*
X-915296Y-9870839D02*
X-820058Y-9823220D01*
X-820058Y-9823220D02*
X-772439Y-9775601D01*
X-772439Y-9775601D02*
X-724820Y-9680363D01*
X-724820Y-9680363D02*
X-724820Y-9442268D01*
X-724820Y-9442268D02*
X-772439Y-9299411D01*
X-1629581Y-8299411D02*
X-1677200Y-8347030D01*
X-1677200Y-8347030D02*
X-1724820Y-8489887D01*
X-1724820Y-8489887D02*
X-1724820Y-8585125D01*
X-1724820Y-8585125D02*
X-1677200Y-8727982D01*
X-1677200Y-8727982D02*
X-1581962Y-8823220D01*
X-1581962Y-8823220D02*
X-1486724Y-8870839D01*
X-1486724Y-8870839D02*
X-1296248Y-8918458D01*
X-1296248Y-8918458D02*
X-1153391Y-8918458D01*
X-1153391Y-8918458D02*
X-962915Y-8870839D01*
X-962915Y-8870839D02*
X-867677Y-8823220D01*
X-867677Y-8823220D02*
X-772439Y-8727982D01*
X-772439Y-8727982D02*
X-724820Y-8585125D01*
X-724820Y-8585125D02*
X-724820Y-8489887D01*
X-724820Y-8489887D02*
X-772439Y-8347030D01*
X-772439Y-8347030D02*
X-820058Y-8299411D01*
X-1724820Y-7394649D02*
X-1724820Y-7870839D01*
X-1724820Y-7870839D02*
X-724820Y-7870839D01*
X-2629820Y-2012744D02*
X-2629820Y-1917506D01*
X-2629820Y-1917506D02*
X-2677439Y-1822268D01*
X-2677439Y-1822268D02*
X-2725058Y-1774649D01*
X-2725058Y-1774649D02*
X-2820296Y-1727030D01*
X-2820296Y-1727030D02*
X-3010772Y-1679411D01*
X-3010772Y-1679411D02*
X-3248867Y-1679411D01*
X-3248867Y-1679411D02*
X-3439343Y-1727030D01*
X-3439343Y-1727030D02*
X-3534581Y-1774649D01*
X-3534581Y-1774649D02*
X-3582200Y-1822268D01*
X-3582200Y-1822268D02*
X-3629820Y-1917506D01*
X-3629820Y-1917506D02*
X-3629820Y-2012744D01*
X-3629820Y-2012744D02*
X-3582200Y-2107982D01*
X-3582200Y-2107982D02*
X-3534581Y-2155601D01*
X-3534581Y-2155601D02*
X-3439343Y-2203220D01*
X-3439343Y-2203220D02*
X-3248867Y-2250839D01*
X-3248867Y-2250839D02*
X-3010772Y-2250839D01*
X-3010772Y-2250839D02*
X-2820296Y-2203220D01*
X-2820296Y-2203220D02*
X-2725058Y-2155601D01*
X-2725058Y-2155601D02*
X-2677439Y-2107982D01*
X-2677439Y-2107982D02*
X-2629820Y-2012744D01*
X-3629820Y-1346077D02*
X-2963153Y-822268D01*
X-2963153Y-1346077D02*
X-3629820Y-822268D01*
X-3629820Y-393696D02*
X-3629820Y-203220D01*
X-3629820Y-203220D02*
X-3582200Y-107982D01*
X-3582200Y-107982D02*
X-3534581Y-60363D01*
X-3534581Y-60363D02*
X-3391724Y34875D01*
X-3391724Y34875D02*
X-3201248Y82494D01*
X-3201248Y82494D02*
X-2820296Y82494D01*
X-2820296Y82494D02*
X-2725058Y34875D01*
X-2725058Y34875D02*
X-2677439Y-12744D01*
X-2677439Y-12744D02*
X-2629820Y-107982D01*
X-2629820Y-107982D02*
X-2629820Y-298458D01*
X-2629820Y-298458D02*
X-2677439Y-393696D01*
X-2677439Y-393696D02*
X-2725058Y-441315D01*
X-2725058Y-441315D02*
X-2820296Y-488934D01*
X-2820296Y-488934D02*
X-3058391Y-488934D01*
X-3058391Y-488934D02*
X-3153629Y-441315D01*
X-3153629Y-441315D02*
X-3201248Y-393696D01*
X-3201248Y-393696D02*
X-3248867Y-298458D01*
X-3248867Y-298458D02*
X-3248867Y-107982D01*
X-3248867Y-107982D02*
X-3201248Y-12744D01*
X-3201248Y-12744D02*
X-3153629Y34875D01*
X-3153629Y34875D02*
X-3058391Y82494D01*
X-2629820Y939637D02*
X-2629820Y749161D01*
X-2629820Y749161D02*
X-2677439Y653923D01*
X-2677439Y653923D02*
X-2725058Y606304D01*
X-2725058Y606304D02*
X-2867915Y511066D01*
X-2867915Y511066D02*
X-3058391Y463447D01*
X-3058391Y463447D02*
X-3439343Y463447D01*
X-3439343Y463447D02*
X-3534581Y511066D01*
X-3534581Y511066D02*
X-3582200Y558685D01*
X-3582200Y558685D02*
X-3629820Y653923D01*
X-3629820Y653923D02*
X-3629820Y844399D01*
X-3629820Y844399D02*
X-3582200Y939637D01*
X-3582200Y939637D02*
X-3534581Y987256D01*
X-3534581Y987256D02*
X-3439343Y1034875D01*
X-3439343Y1034875D02*
X-3201248Y1034875D01*
X-3201248Y1034875D02*
X-3106010Y987256D01*
X-3106010Y987256D02*
X-3058391Y939637D01*
X-3058391Y939637D02*
X-3010772Y844399D01*
X-3010772Y844399D02*
X-3010772Y653923D01*
X-3010772Y653923D02*
X-3058391Y558685D01*
X-3058391Y558685D02*
X-3106010Y511066D01*
X-3106010Y511066D02*
X-3201248Y463447D01*
X5990419Y6918459D02*
X5942800Y6870840D01*
X5942800Y6870840D02*
X5895180Y6727983D01*
X5895180Y6727983D02*
X5895180Y6632745D01*
X5895180Y6632745D02*
X5942800Y6489888D01*
X5942800Y6489888D02*
X6038038Y6394650D01*
X6038038Y6394650D02*
X6133276Y6347031D01*
X6133276Y6347031D02*
X6323752Y6299412D01*
X6323752Y6299412D02*
X6466609Y6299412D01*
X6466609Y6299412D02*
X6657085Y6347031D01*
X6657085Y6347031D02*
X6752323Y6394650D01*
X6752323Y6394650D02*
X6847561Y6489888D01*
X6847561Y6489888D02*
X6895180Y6632745D01*
X6895180Y6632745D02*
X6895180Y6727983D01*
X6895180Y6727983D02*
X6847561Y6870840D01*
X6847561Y6870840D02*
X6799942Y6918459D01*
X6895180Y7204174D02*
X6895180Y7775602D01*
X5895180Y7489888D02*
X6895180Y7489888D01*
X5942800Y8061317D02*
X5895180Y8204174D01*
X5895180Y8204174D02*
X5895180Y8442269D01*
X5895180Y8442269D02*
X5942800Y8537507D01*
X5942800Y8537507D02*
X5990419Y8585126D01*
X5990419Y8585126D02*
X6085657Y8632745D01*
X6085657Y8632745D02*
X6180895Y8632745D01*
X6180895Y8632745D02*
X6276133Y8585126D01*
X6276133Y8585126D02*
X6323752Y8537507D01*
X6323752Y8537507D02*
X6371371Y8442269D01*
X6371371Y8442269D02*
X6418990Y8251793D01*
X6418990Y8251793D02*
X6466609Y8156555D01*
X6466609Y8156555D02*
X6514228Y8108936D01*
X6514228Y8108936D02*
X6609466Y8061317D01*
X6609466Y8061317D02*
X6704704Y8061317D01*
X6704704Y8061317D02*
X6799942Y8108936D01*
X6799942Y8108936D02*
X6847561Y8156555D01*
X6847561Y8156555D02*
X6895180Y8251793D01*
X6895180Y8251793D02*
X6895180Y8489888D01*
X6895180Y8489888D02*
X6847561Y8632745D01*
X7172800Y6208935D02*
X7172800Y8723221D01*
X6276133Y9823221D02*
X6276133Y9061317D01*
X6085657Y9251793D02*
X6276133Y9061317D01*
X6276133Y9061317D02*
X6466609Y9251793D01*
X-4264820Y-9823220D02*
X-3264820Y-9823220D01*
X-4264820Y-9347030D02*
X-3264820Y-9347030D01*
X-3264820Y-9347030D02*
X-4264820Y-8775602D01*
X-4264820Y-8775602D02*
X-3264820Y-8775602D01*
X-3264820Y-8442268D02*
X-3264820Y-7870840D01*
X-4264820Y-8156554D02*
X-3264820Y-8156554D01*
X-2987200Y-9961316D02*
X-2987200Y-7875602D01*
G36*
X-6069091Y9752457D02*
G01*
X-5992104Y9713963D01*
X-5917991Y9639850D01*
X-5879820Y9525337D01*
X-5879820Y9374412D01*
X-6729820Y9374412D01*
X-6729820Y9525336D01*
X-6691649Y9639850D01*
X-6617535Y9713963D01*
X-6540548Y9752457D01*
X-6367014Y9795840D01*
X-6242625Y9795840D01*
X-6069091Y9752457D01*
G37*
G36*
X-5618709Y7018063D02*
G01*
X-6990931Y7018063D01*
X-6990931Y7632745D01*
X-6879820Y7632745D01*
X-6879820Y7537507D01*
X-6879091Y7530102D01*
X-6879231Y7528126D01*
X-6878641Y7525529D01*
X-6878379Y7522875D01*
X-6877621Y7521045D01*
X-6875971Y7513789D01*
X-6828351Y7370932D01*
X-6822357Y7357507D01*
X-6820591Y7355471D01*
X-6819560Y7352982D01*
X-6810233Y7341617D01*
X-6714995Y7246379D01*
X-6709245Y7241659D01*
X-6707946Y7240162D01*
X-6705692Y7238743D01*
X-6703630Y7237051D01*
X-6701798Y7236293D01*
X-6695503Y7232330D01*
X-6600265Y7184711D01*
X-6599196Y7184302D01*
X-6598760Y7183979D01*
X-6592624Y7181787D01*
X-6586534Y7179456D01*
X-6585994Y7179418D01*
X-6584914Y7179032D01*
X-6394438Y7131413D01*
X-6391902Y7131038D01*
X-6390880Y7130615D01*
X-6385368Y7130073D01*
X-6379894Y7129263D01*
X-6378802Y7129426D01*
X-6376248Y7129174D01*
X-6233391Y7129174D01*
X-6230838Y7129426D01*
X-6229745Y7129263D01*
X-6224272Y7130073D01*
X-6218759Y7130615D01*
X-6217738Y7131038D01*
X-6215201Y7131413D01*
X-6024725Y7179032D01*
X-6023646Y7179418D01*
X-6023106Y7179456D01*
X-6017025Y7181784D01*
X-6010879Y7183979D01*
X-6010444Y7184302D01*
X-6009374Y7184711D01*
X-5914136Y7232330D01*
X-5907837Y7236295D01*
X-5906009Y7237052D01*
X-5903953Y7238741D01*
X-5901693Y7240162D01*
X-5900394Y7241661D01*
X-5894644Y7246379D01*
X-5799406Y7341617D01*
X-5790078Y7352982D01*
X-5789047Y7355473D01*
X-5787282Y7357507D01*
X-5781288Y7370933D01*
X-5733669Y7513789D01*
X-5732020Y7521045D01*
X-5731261Y7522875D01*
X-5731000Y7525529D01*
X-5730409Y7528126D01*
X-5730550Y7530101D01*
X-5729820Y7537507D01*
X-5729820Y7680364D01*
X-5731261Y7694996D01*
X-5732292Y7697485D01*
X-5732483Y7700174D01*
X-5737738Y7713905D01*
X-5785357Y7809143D01*
X-5793189Y7821586D01*
X-5815297Y7840759D01*
X-5843058Y7850013D01*
X-5872248Y7847939D01*
X-5898423Y7834852D01*
X-5917596Y7812744D01*
X-5926850Y7784983D01*
X-5924776Y7755793D01*
X-5919521Y7742061D01*
X-5879820Y7662659D01*
X-5879820Y7549677D01*
X-5917991Y7435164D01*
X-5992104Y7361051D01*
X-6069091Y7322558D01*
X-6242625Y7279174D01*
X-6367014Y7279174D01*
X-6540548Y7322558D01*
X-6617535Y7361051D01*
X-6691649Y7435165D01*
X-6729820Y7549679D01*
X-6729820Y7620574D01*
X-6691649Y7735088D01*
X-6678515Y7748221D01*
X-6451248Y7748221D01*
X-6451248Y7632745D01*
X-6449807Y7618113D01*
X-6438608Y7591077D01*
X-6417916Y7570385D01*
X-6390880Y7559186D01*
X-6361616Y7559186D01*
X-6334580Y7570385D01*
X-6313888Y7591077D01*
X-6302689Y7618113D01*
X-6301248Y7632745D01*
X-6301248Y7823221D01*
X-6302689Y7837853D01*
X-6313888Y7864889D01*
X-6334580Y7885581D01*
X-6361616Y7896780D01*
X-6376248Y7898221D01*
X-6709581Y7898221D01*
X-6724213Y7896780D01*
X-6751249Y7885581D01*
X-6762614Y7876254D01*
X-6810233Y7828635D01*
X-6819560Y7817270D01*
X-6820591Y7814782D01*
X-6822357Y7812745D01*
X-6828351Y7799320D01*
X-6875971Y7656463D01*
X-6877621Y7649208D01*
X-6878379Y7647377D01*
X-6878641Y7644724D01*
X-6879231Y7642126D01*
X-6879091Y7640151D01*
X-6879820Y7632745D01*
X-6990931Y7632745D01*
X-6990931Y8817982D01*
X-6879637Y8817982D01*
X-6878379Y8813370D01*
X-6878379Y8808589D01*
X-6874562Y8799374D01*
X-6871937Y8789750D01*
X-6869010Y8785970D01*
X-6867180Y8781553D01*
X-6860130Y8774503D01*
X-6854020Y8766613D01*
X-6847888Y8762261D01*
X-6846488Y8760861D01*
X-6845114Y8760292D01*
X-6842030Y8758103D01*
X-6087237Y8326793D01*
X-6804820Y8326793D01*
X-6819452Y8325352D01*
X-6846488Y8314153D01*
X-6867180Y8293461D01*
X-6878379Y8266425D01*
X-6878379Y8237161D01*
X-6867180Y8210125D01*
X-6846488Y8189433D01*
X-6819452Y8178234D01*
X-6804820Y8176793D01*
X-5804820Y8176793D01*
X-5801057Y8177164D01*
X-5799581Y8176976D01*
X-5797671Y8177498D01*
X-5790188Y8178234D01*
X-5780973Y8182052D01*
X-5771349Y8184676D01*
X-5767569Y8187604D01*
X-5763152Y8189433D01*
X-5756102Y8196484D01*
X-5748212Y8202593D01*
X-5745839Y8206747D01*
X-5742460Y8210125D01*
X-5738644Y8219338D01*
X-5733693Y8228002D01*
X-5733091Y8232746D01*
X-5731261Y8237161D01*
X-5731261Y8247136D01*
X-5730003Y8257032D01*
X-5731261Y8261645D01*
X-5731261Y8266425D01*
X-5735079Y8275642D01*
X-5737703Y8285263D01*
X-5740630Y8289043D01*
X-5742460Y8293461D01*
X-5749512Y8300513D01*
X-5755620Y8308401D01*
X-5761755Y8312756D01*
X-5763152Y8314153D01*
X-5764525Y8314722D01*
X-5767609Y8316911D01*
X-6522403Y8748221D01*
X-5804820Y8748221D01*
X-5790188Y8749662D01*
X-5763152Y8760861D01*
X-5742460Y8781553D01*
X-5731261Y8808589D01*
X-5731261Y8837853D01*
X-5742460Y8864889D01*
X-5763152Y8885581D01*
X-5790188Y8896780D01*
X-5804820Y8898221D01*
X-6804820Y8898221D01*
X-6808584Y8897851D01*
X-6810059Y8898038D01*
X-6811970Y8897517D01*
X-6819452Y8896780D01*
X-6828668Y8892963D01*
X-6838291Y8890338D01*
X-6842072Y8887411D01*
X-6846488Y8885581D01*
X-6853539Y8878531D01*
X-6861428Y8872421D01*
X-6863802Y8868268D01*
X-6867180Y8864889D01*
X-6870997Y8855677D01*
X-6875947Y8847012D01*
X-6876550Y8842269D01*
X-6878379Y8837853D01*
X-6878379Y8827879D01*
X-6879637Y8817982D01*
X-6990931Y8817982D01*
X-6990931Y9537507D01*
X-6879820Y9537507D01*
X-6879820Y9299412D01*
X-6878379Y9284780D01*
X-6867180Y9257744D01*
X-6846488Y9237052D01*
X-6819452Y9225853D01*
X-6804820Y9224412D01*
X-5804820Y9224412D01*
X-5790188Y9225853D01*
X-5763152Y9237052D01*
X-5742460Y9257744D01*
X-5731261Y9284780D01*
X-5729820Y9299412D01*
X-5729820Y9537507D01*
X-5730550Y9544914D01*
X-5730409Y9546888D01*
X-5731000Y9549486D01*
X-5731261Y9552139D01*
X-5732020Y9553970D01*
X-5733669Y9561225D01*
X-5781288Y9704081D01*
X-5787282Y9717507D01*
X-5789047Y9719542D01*
X-5790078Y9722032D01*
X-5799406Y9733397D01*
X-5894644Y9828635D01*
X-5900394Y9833354D01*
X-5901693Y9834852D01*
X-5903953Y9836274D01*
X-5906009Y9837962D01*
X-5907837Y9838720D01*
X-5914136Y9842684D01*
X-6009374Y9890303D01*
X-6010444Y9890713D01*
X-6010879Y9891035D01*
X-6017025Y9893231D01*
X-6023106Y9895558D01*
X-6023646Y9895597D01*
X-6024725Y9895982D01*
X-6215201Y9943601D01*
X-6217738Y9943977D01*
X-6218759Y9944399D01*
X-6224272Y9944942D01*
X-6229745Y9945751D01*
X-6230838Y9945589D01*
X-6233391Y9945840D01*
X-6376248Y9945840D01*
X-6378802Y9945589D01*
X-6379894Y9945751D01*
X-6385368Y9944942D01*
X-6390880Y9944399D01*
X-6391902Y9943977D01*
X-6394438Y9943601D01*
X-6584914Y9895982D01*
X-6585994Y9895597D01*
X-6586534Y9895558D01*
X-6592624Y9893228D01*
X-6598760Y9891035D01*
X-6599196Y9890713D01*
X-6600265Y9890303D01*
X-6695503Y9842684D01*
X-6701798Y9838722D01*
X-6703630Y9837963D01*
X-6705692Y9836272D01*
X-6707946Y9834852D01*
X-6709245Y9833356D01*
X-6714995Y9828635D01*
X-6810233Y9733397D01*
X-6819560Y9722032D01*
X-6820591Y9719544D01*
X-6822357Y9717507D01*
X-6828351Y9704082D01*
X-6875971Y9561225D01*
X-6877621Y9553970D01*
X-6878379Y9552139D01*
X-6878641Y9549486D01*
X-6879231Y9546888D01*
X-6879091Y9544913D01*
X-6879820Y9537507D01*
X-6990931Y9537507D01*
X-6990931Y10056951D01*
X-5618709Y10056951D01*
X-5618709Y7018063D01*
G37*
X4355180Y7204174D02*
X4355180Y7775602D01*
X3355180Y7489888D02*
X4355180Y7489888D01*
X4355180Y8013698D02*
X3355180Y8680364D01*
X4355180Y8680364D02*
X3355180Y8013698D01*
X3736133Y9061317D02*
X3736133Y9823221D01*
X3545657Y9632745D02*
X3736133Y9823221D01*
X3736133Y9823221D02*
X3926609Y9632745D01*
X-4264820Y6918459D02*
X-3788629Y6585126D01*
X-4264820Y6347031D02*
X-3264820Y6347031D01*
X-3264820Y6347031D02*
X-3264820Y6727983D01*
X-3264820Y6727983D02*
X-3312439Y6823221D01*
X-3312439Y6823221D02*
X-3360058Y6870840D01*
X-3360058Y6870840D02*
X-3455296Y6918459D01*
X-3455296Y6918459D02*
X-3598153Y6918459D01*
X-3598153Y6918459D02*
X-3693391Y6870840D01*
X-3693391Y6870840D02*
X-3741010Y6823221D01*
X-3741010Y6823221D02*
X-3788629Y6727983D01*
X-3788629Y6727983D02*
X-3788629Y6347031D01*
X-3264820Y7204174D02*
X-3264820Y7775602D01*
X-4264820Y7489888D02*
X-3264820Y7489888D01*
X-4217200Y8061317D02*
X-4264820Y8204174D01*
X-4264820Y8204174D02*
X-4264820Y8442269D01*
X-4264820Y8442269D02*
X-4217200Y8537507D01*
X-4217200Y8537507D02*
X-4169581Y8585126D01*
X-4169581Y8585126D02*
X-4074343Y8632745D01*
X-4074343Y8632745D02*
X-3979105Y8632745D01*
X-3979105Y8632745D02*
X-3883867Y8585126D01*
X-3883867Y8585126D02*
X-3836248Y8537507D01*
X-3836248Y8537507D02*
X-3788629Y8442269D01*
X-3788629Y8442269D02*
X-3741010Y8251793D01*
X-3741010Y8251793D02*
X-3693391Y8156555D01*
X-3693391Y8156555D02*
X-3645772Y8108936D01*
X-3645772Y8108936D02*
X-3550534Y8061317D01*
X-3550534Y8061317D02*
X-3455296Y8061317D01*
X-3455296Y8061317D02*
X-3360058Y8108936D01*
X-3360058Y8108936D02*
X-3312439Y8156555D01*
X-3312439Y8156555D02*
X-3264820Y8251793D01*
X-3264820Y8251793D02*
X-3264820Y8489888D01*
X-3264820Y8489888D02*
X-3312439Y8632745D01*
X-2987200Y6208935D02*
X-2987200Y8723221D01*
X-3883867Y9061317D02*
X-3883867Y9823221D01*
X-4074343Y9632745D02*
X-3883867Y9823221D01*
X-3883867Y9823221D02*
X-3693391Y9632745D01*
X4355180Y-9918458D02*
X4355180Y-9299411D01*
X4355180Y-9299411D02*
X3974228Y-9632744D01*
X3974228Y-9632744D02*
X3974228Y-9489887D01*
X3974228Y-9489887D02*
X3926609Y-9394649D01*
X3926609Y-9394649D02*
X3878990Y-9347030D01*
X3878990Y-9347030D02*
X3783752Y-9299411D01*
X3783752Y-9299411D02*
X3545657Y-9299411D01*
X3545657Y-9299411D02*
X3450419Y-9347030D01*
X3450419Y-9347030D02*
X3402800Y-9394649D01*
X3402800Y-9394649D02*
X3355180Y-9489887D01*
X3355180Y-9489887D02*
X3355180Y-9775601D01*
X3355180Y-9775601D02*
X3402800Y-9870839D01*
X3402800Y-9870839D02*
X3450419Y-9918458D01*
X3450419Y-8870839D02*
X3402800Y-8823220D01*
X3402800Y-8823220D02*
X3355180Y-8870839D01*
X3355180Y-8870839D02*
X3402800Y-8918458D01*
X3402800Y-8918458D02*
X3450419Y-8870839D01*
X3450419Y-8870839D02*
X3355180Y-8870839D01*
X4355180Y-8489887D02*
X4355180Y-7870840D01*
X4355180Y-7870840D02*
X3974228Y-8204173D01*
X3974228Y-8204173D02*
X3974228Y-8061316D01*
X3974228Y-8061316D02*
X3926609Y-7966078D01*
X3926609Y-7966078D02*
X3878990Y-7918459D01*
X3878990Y-7918459D02*
X3783752Y-7870840D01*
X3783752Y-7870840D02*
X3545657Y-7870840D01*
X3545657Y-7870840D02*
X3450419Y-7918459D01*
X3450419Y-7918459D02*
X3402800Y-7966078D01*
X3402800Y-7966078D02*
X3355180Y-8061316D01*
X3355180Y-8061316D02*
X3355180Y-8347030D01*
X3355180Y-8347030D02*
X3402800Y-8442268D01*
X3402800Y-8442268D02*
X3450419Y-8489887D01*
X4355180Y-7585125D02*
X3355180Y-7251792D01*
X3355180Y-7251792D02*
X4355180Y-6918459D01*
X815180Y7680364D02*
X1291371Y7347031D01*
X815180Y7108936D02*
X1815180Y7108936D01*
X1815180Y7108936D02*
X1815180Y7489888D01*
X1815180Y7489888D02*
X1767561Y7585126D01*
X1767561Y7585126D02*
X1719942Y7632745D01*
X1719942Y7632745D02*
X1624704Y7680364D01*
X1624704Y7680364D02*
X1481847Y7680364D01*
X1481847Y7680364D02*
X1386609Y7632745D01*
X1386609Y7632745D02*
X1338990Y7585126D01*
X1338990Y7585126D02*
X1291371Y7489888D01*
X1291371Y7489888D02*
X1291371Y7108936D01*
X1815180Y8013698D02*
X815180Y8680364D01*
X1815180Y8680364D02*
X815180Y8013698D01*
X1196133Y9823221D02*
X1196133Y9061317D01*
X1005657Y9251793D02*
X1196133Y9061317D01*
X1196133Y9061317D02*
X1386609Y9251793D01*
G36*
X6630909Y-7322556D02*
G01*
X6707896Y-7361050D01*
X6782009Y-7435163D01*
X6820180Y-7549676D01*
X6820180Y-7700601D01*
X5970180Y-7700601D01*
X5970180Y-7549677D01*
X6008351Y-7435163D01*
X6082465Y-7361050D01*
X6159452Y-7322556D01*
X6332986Y-7279173D01*
X6457375Y-7279173D01*
X6630909Y-7322556D01*
G37*
G36*
X7081291Y-10056950D02*
G01*
X5709069Y-10056950D01*
X5709069Y-9442268D01*
X5820180Y-9442268D01*
X5820180Y-9537506D01*
X5820909Y-9544911D01*
X5820769Y-9546887D01*
X5821359Y-9549484D01*
X5821621Y-9552138D01*
X5822379Y-9553968D01*
X5824029Y-9561224D01*
X5871649Y-9704081D01*
X5877643Y-9717506D01*
X5879409Y-9719542D01*
X5880440Y-9722031D01*
X5889767Y-9733396D01*
X5985005Y-9828634D01*
X5990755Y-9833354D01*
X5992054Y-9834851D01*
X5994308Y-9836270D01*
X5996370Y-9837962D01*
X5998202Y-9838720D01*
X6004497Y-9842683D01*
X6099735Y-9890302D01*
X6100804Y-9890711D01*
X6101240Y-9891034D01*
X6107376Y-9893226D01*
X6113466Y-9895557D01*
X6114006Y-9895595D01*
X6115086Y-9895981D01*
X6305562Y-9943600D01*
X6308098Y-9943975D01*
X6309120Y-9944398D01*
X6314632Y-9944940D01*
X6320106Y-9945750D01*
X6321198Y-9945587D01*
X6323752Y-9945839D01*
X6466609Y-9945839D01*
X6469162Y-9945587D01*
X6470255Y-9945750D01*
X6475728Y-9944940D01*
X6481241Y-9944398D01*
X6482262Y-9943975D01*
X6484799Y-9943600D01*
X6675275Y-9895981D01*
X6676354Y-9895595D01*
X6676894Y-9895557D01*
X6682975Y-9893229D01*
X6689121Y-9891034D01*
X6689556Y-9890711D01*
X6690626Y-9890302D01*
X6785864Y-9842683D01*
X6792163Y-9838718D01*
X6793991Y-9837961D01*
X6796047Y-9836272D01*
X6798307Y-9834851D01*
X6799606Y-9833352D01*
X6805356Y-9828634D01*
X6900594Y-9733396D01*
X6909922Y-9722031D01*
X6910953Y-9719540D01*
X6912718Y-9717506D01*
X6918712Y-9704080D01*
X6966331Y-9561224D01*
X6967980Y-9553968D01*
X6968739Y-9552138D01*
X6969000Y-9549484D01*
X6969591Y-9546887D01*
X6969450Y-9544912D01*
X6970180Y-9537506D01*
X6970180Y-9394649D01*
X6968739Y-9380017D01*
X6967708Y-9377528D01*
X6967517Y-9374839D01*
X6962262Y-9361108D01*
X6914643Y-9265870D01*
X6906811Y-9253427D01*
X6884703Y-9234254D01*
X6856942Y-9225000D01*
X6827752Y-9227074D01*
X6801577Y-9240161D01*
X6782404Y-9262269D01*
X6773150Y-9290030D01*
X6775224Y-9319220D01*
X6780479Y-9332952D01*
X6820180Y-9412354D01*
X6820180Y-9525336D01*
X6782009Y-9639849D01*
X6707896Y-9713962D01*
X6630909Y-9752455D01*
X6457375Y-9795839D01*
X6332986Y-9795839D01*
X6159452Y-9752455D01*
X6082465Y-9713962D01*
X6008351Y-9639848D01*
X5970180Y-9525334D01*
X5970180Y-9454439D01*
X6008351Y-9339925D01*
X6021485Y-9326792D01*
X6248752Y-9326792D01*
X6248752Y-9442268D01*
X6250193Y-9456900D01*
X6261392Y-9483936D01*
X6282084Y-9504628D01*
X6309120Y-9515827D01*
X6338384Y-9515827D01*
X6365420Y-9504628D01*
X6386112Y-9483936D01*
X6397311Y-9456900D01*
X6398752Y-9442268D01*
X6398752Y-9251792D01*
X6397311Y-9237160D01*
X6386112Y-9210124D01*
X6365420Y-9189432D01*
X6338384Y-9178233D01*
X6323752Y-9176792D01*
X5990419Y-9176792D01*
X5975787Y-9178233D01*
X5948751Y-9189432D01*
X5937386Y-9198759D01*
X5889767Y-9246378D01*
X5880440Y-9257743D01*
X5879409Y-9260231D01*
X5877643Y-9262268D01*
X5871649Y-9275693D01*
X5824029Y-9418550D01*
X5822379Y-9425805D01*
X5821621Y-9427636D01*
X5821359Y-9430289D01*
X5820769Y-9432887D01*
X5820909Y-9434862D01*
X5820180Y-9442268D01*
X5709069Y-9442268D01*
X5709069Y-8257031D01*
X5820363Y-8257031D01*
X5821621Y-8261643D01*
X5821621Y-8266424D01*
X5825438Y-8275639D01*
X5828063Y-8285263D01*
X5830990Y-8289043D01*
X5832820Y-8293460D01*
X5839870Y-8300510D01*
X5845980Y-8308400D01*
X5852112Y-8312752D01*
X5853512Y-8314152D01*
X5854886Y-8314721D01*
X5857970Y-8316910D01*
X6612763Y-8748220D01*
X5895180Y-8748220D01*
X5880548Y-8749661D01*
X5853512Y-8760860D01*
X5832820Y-8781552D01*
X5821621Y-8808588D01*
X5821621Y-8837852D01*
X5832820Y-8864888D01*
X5853512Y-8885580D01*
X5880548Y-8896779D01*
X5895180Y-8898220D01*
X6895180Y-8898220D01*
X6898943Y-8897849D01*
X6900419Y-8898037D01*
X6902329Y-8897515D01*
X6909812Y-8896779D01*
X6919027Y-8892961D01*
X6928651Y-8890337D01*
X6932431Y-8887409D01*
X6936848Y-8885580D01*
X6943898Y-8878529D01*
X6951788Y-8872420D01*
X6954161Y-8868266D01*
X6957540Y-8864888D01*
X6961356Y-8855675D01*
X6966307Y-8847011D01*
X6966909Y-8842267D01*
X6968739Y-8837852D01*
X6968739Y-8827877D01*
X6969997Y-8817981D01*
X6968739Y-8813368D01*
X6968739Y-8808588D01*
X6964921Y-8799371D01*
X6962297Y-8789750D01*
X6959370Y-8785970D01*
X6957540Y-8781552D01*
X6950488Y-8774500D01*
X6944380Y-8766612D01*
X6938245Y-8762257D01*
X6936848Y-8760860D01*
X6935475Y-8760291D01*
X6932391Y-8758102D01*
X6177597Y-8326792D01*
X6895180Y-8326792D01*
X6909812Y-8325351D01*
X6936848Y-8314152D01*
X6957540Y-8293460D01*
X6968739Y-8266424D01*
X6968739Y-8237160D01*
X6957540Y-8210124D01*
X6936848Y-8189432D01*
X6909812Y-8178233D01*
X6895180Y-8176792D01*
X5895180Y-8176792D01*
X5891416Y-8177162D01*
X5889941Y-8176975D01*
X5888030Y-8177496D01*
X5880548Y-8178233D01*
X5871332Y-8182050D01*
X5861709Y-8184675D01*
X5857928Y-8187602D01*
X5853512Y-8189432D01*
X5846461Y-8196482D01*
X5838572Y-8202592D01*
X5836198Y-8206745D01*
X5832820Y-8210124D01*
X5829003Y-8219336D01*
X5824053Y-8228001D01*
X5823450Y-8232744D01*
X5821621Y-8237160D01*
X5821621Y-8247134D01*
X5820363Y-8257031D01*
X5709069Y-8257031D01*
X5709069Y-7537506D01*
X5820180Y-7537506D01*
X5820180Y-7775601D01*
X5821621Y-7790233D01*
X5832820Y-7817269D01*
X5853512Y-7837961D01*
X5880548Y-7849160D01*
X5895180Y-7850601D01*
X6895180Y-7850601D01*
X6909812Y-7849160D01*
X6936848Y-7837961D01*
X6957540Y-7817269D01*
X6968739Y-7790233D01*
X6970180Y-7775601D01*
X6970180Y-7537506D01*
X6969450Y-7530099D01*
X6969591Y-7528125D01*
X6969000Y-7525527D01*
X6968739Y-7522874D01*
X6967980Y-7521043D01*
X6966331Y-7513788D01*
X6918712Y-7370932D01*
X6912718Y-7357506D01*
X6910953Y-7355471D01*
X6909922Y-7352981D01*
X6900594Y-7341616D01*
X6805356Y-7246378D01*
X6799606Y-7241659D01*
X6798307Y-7240161D01*
X6796047Y-7238739D01*
X6793991Y-7237051D01*
X6792163Y-7236293D01*
X6785864Y-7232329D01*
X6690626Y-7184710D01*
X6689556Y-7184300D01*
X6689121Y-7183978D01*
X6682975Y-7181782D01*
X6676894Y-7179455D01*
X6676354Y-7179416D01*
X6675275Y-7179031D01*
X6484799Y-7131412D01*
X6482262Y-7131036D01*
X6481241Y-7130614D01*
X6475728Y-7130071D01*
X6470255Y-7129262D01*
X6469162Y-7129424D01*
X6466609Y-7129173D01*
X6323752Y-7129173D01*
X6321198Y-7129424D01*
X6320106Y-7129262D01*
X6314632Y-7130071D01*
X6309120Y-7130614D01*
X6308098Y-7131036D01*
X6305562Y-7131412D01*
X6115086Y-7179031D01*
X6114006Y-7179416D01*
X6113466Y-7179455D01*
X6107376Y-7181785D01*
X6101240Y-7183978D01*
X6100804Y-7184300D01*
X6099735Y-7184710D01*
X6004497Y-7232329D01*
X5998202Y-7236291D01*
X5996370Y-7237050D01*
X5994308Y-7238741D01*
X5992054Y-7240161D01*
X5990755Y-7241657D01*
X5985005Y-7246378D01*
X5889767Y-7341616D01*
X5880440Y-7352981D01*
X5879409Y-7355469D01*
X5877643Y-7357506D01*
X5871649Y-7370931D01*
X5824029Y-7513788D01*
X5822379Y-7521043D01*
X5821621Y-7522874D01*
X5821359Y-7525527D01*
X5820769Y-7528125D01*
X5820909Y-7530100D01*
X5820180Y-7537506D01*
X5709069Y-7537506D01*
X5709069Y-7018062D01*
X7081291Y-7018062D01*
X7081291Y-10056950D01*
G37*
D12*
%TO.C,JP2*%
X-9255000Y-5145000D02*
X-9255000Y-3745000D01*
X-8555000Y-3045000D02*
X-7955000Y-3045000D01*
X-7955000Y-5845000D02*
X-8555000Y-5845000D01*
X-7255000Y-3745000D02*
X-7255000Y-5145000D01*
X-9255000Y-3745000D02*
G75*
G02*
X-8555000Y-3045000I699999J1D01*
G01*
X-8555000Y-5845000D02*
G75*
G02*
X-9255000Y-5145000I0J700000D01*
G01*
X-7955000Y-3045000D02*
G75*
G02*
X-7255000Y-3745000I1J-699999D01*
G01*
X-7255000Y-5145000D02*
G75*
G02*
X-7955000Y-5845000I-700000J0D01*
G01*
%TO.C,JP3*%
X-6715000Y-5145000D02*
X-6715000Y-3745000D01*
X-6015000Y-3045000D02*
X-5415000Y-3045000D01*
X-5415000Y-5845000D02*
X-6015000Y-5845000D01*
X-4715000Y-3745000D02*
X-4715000Y-5145000D01*
X-6715000Y-3745000D02*
G75*
G02*
X-6015000Y-3045000I699999J1D01*
G01*
X-6015000Y-5845000D02*
G75*
G02*
X-6715000Y-5145000I0J700000D01*
G01*
X-5415000Y-3045000D02*
G75*
G02*
X-4715000Y-3745000I1J-699999D01*
G01*
X-4715000Y-5145000D02*
G75*
G02*
X-5415000Y-5845000I-700000J0D01*
G01*
D13*
%TO.C,REF\u002A\u002A*%
X2319713Y3320218D02*
X2427974Y3318364D01*
X2524892Y3314970D01*
X2604041Y3310033D01*
X2658994Y3303548D01*
X2683326Y3295511D01*
X2686921Y3287304D01*
X2698252Y3246481D01*
X2714278Y3177476D01*
X2733805Y3085797D01*
X2755638Y2976950D01*
X2778582Y2856442D01*
X2790841Y2790643D01*
X2812099Y2677865D01*
X2830713Y2580793D01*
X2845672Y2504618D01*
X2855964Y2454531D01*
X2860578Y2435724D01*
X2861529Y2435017D01*
X2885690Y2423039D01*
X2936306Y2400206D01*
X3006662Y2369370D01*
X3090042Y2333387D01*
X3179730Y2295109D01*
X3269011Y2257391D01*
X3351168Y2223087D01*
X3419487Y2195051D01*
X3467252Y2176136D01*
X3487746Y2169197D01*
X3494957Y2172258D01*
X3529272Y2192628D01*
X3587030Y2229578D01*
X3663701Y2280140D01*
X3754752Y2341343D01*
X3855650Y2410219D01*
X3910907Y2448006D01*
X4007785Y2513218D01*
X4092807Y2569129D01*
X4161338Y2612759D01*
X4208740Y2641123D01*
X4230377Y2651241D01*
X4242113Y2644210D01*
X4277182Y2614803D01*
X4330255Y2566559D01*
X4396836Y2503907D01*
X4472426Y2431275D01*
X4552528Y2353092D01*
X4632646Y2273786D01*
X4708282Y2197787D01*
X4774938Y2129522D01*
X4828118Y2073420D01*
X4863324Y2033910D01*
X4876058Y2015421D01*
X4871107Y2005157D01*
X4848143Y1967470D01*
X4809062Y1906652D01*
X4756728Y1827087D01*
X4694004Y1733157D01*
X4623754Y1629246D01*
X4371449Y1258206D01*
X4498947Y948920D01*
X4626445Y639635D01*
X5071069Y555814D01*
X5515693Y471994D01*
X5515693Y-453454D01*
X5071069Y-537275D01*
X4626445Y-621095D01*
X4371449Y-1239667D01*
X4623754Y-1610707D01*
X4673494Y-1684144D01*
X4738782Y-1781499D01*
X4794546Y-1865787D01*
X4837922Y-1932631D01*
X4866047Y-1977654D01*
X4876058Y-1996478D01*
X4868939Y-2008039D01*
X4839106Y-2042596D01*
X4790148Y-2094894D01*
X4726560Y-2160500D01*
X4652837Y-2234983D01*
X4573475Y-2313913D01*
X4492969Y-2392856D01*
X4415815Y-2467384D01*
X4346507Y-2533063D01*
X4289543Y-2585463D01*
X4249416Y-2620153D01*
X4230623Y-2632701D01*
X4222549Y-2629782D01*
X4186531Y-2609571D01*
X4127256Y-2572663D01*
X4049370Y-2522050D01*
X3957519Y-2460725D01*
X3856350Y-2391679D01*
X3801174Y-2353787D01*
X3705116Y-2288606D01*
X3621283Y-2232723D01*
X3554223Y-2189117D01*
X3508481Y-2160769D01*
X3488604Y-2150657D01*
X3487503Y-2150823D01*
X3462306Y-2159743D01*
X3410853Y-2180206D01*
X3339865Y-2209360D01*
X3256065Y-2244353D01*
X3166172Y-2282332D01*
X3076909Y-2320445D01*
X2994997Y-2355839D01*
X2927157Y-2385662D01*
X2880110Y-2407061D01*
X2860578Y-2417184D01*
X2858845Y-2423174D01*
X2851031Y-2459566D01*
X2838085Y-2524427D01*
X2821021Y-2612565D01*
X2800849Y-2718787D01*
X2778582Y-2837902D01*
X2766777Y-2900683D01*
X2744252Y-3015912D01*
X2723450Y-3116662D01*
X2705565Y-3197426D01*
X2691792Y-3252698D01*
X2683326Y-3276971D01*
X2674934Y-3281331D01*
X2633928Y-3288563D01*
X2565632Y-3294246D01*
X2476471Y-3298382D01*
X2372872Y-3300977D01*
X2261260Y-3302036D01*
X2148062Y-3301561D01*
X2039704Y-3299559D01*
X1942611Y-3296033D01*
X1863210Y-3290987D01*
X1807928Y-3284427D01*
X1783190Y-3276356D01*
X1780400Y-3271458D01*
X1768431Y-3234930D01*
X1752595Y-3171565D01*
X1734626Y-3088686D01*
X1716259Y-2993618D01*
X1710409Y-2961542D01*
X1683202Y-2813393D01*
X1661337Y-2696961D01*
X1643907Y-2608209D01*
X1630004Y-2543103D01*
X1618723Y-2497606D01*
X1609157Y-2467682D01*
X1600399Y-2449294D01*
X1591543Y-2438407D01*
X1590057Y-2437142D01*
X1559069Y-2419338D01*
X1502366Y-2392994D01*
X1426601Y-2360661D01*
X1338426Y-2324893D01*
X1244493Y-2288244D01*
X1151453Y-2253266D01*
X1065959Y-2222513D01*
X994664Y-2198538D01*
X944218Y-2183895D01*
X921274Y-2181136D01*
X918297Y-2182981D01*
X889507Y-2202075D01*
X836405Y-2237984D01*
X763883Y-2287378D01*
X676833Y-2346927D01*
X580146Y-2413303D01*
X553544Y-2431520D01*
X458125Y-2495577D01*
X372788Y-2550937D01*
X302595Y-2594439D01*
X252606Y-2622924D01*
X227884Y-2633232D01*
X221384Y-2631011D01*
X189356Y-2607858D01*
X137055Y-2562177D01*
X68001Y-2497241D01*
X-14286Y-2416319D01*
X-106286Y-2322685D01*
X-157781Y-2269165D01*
X-237983Y-2184542D01*
X-306678Y-2110475D01*
X-360252Y-2050941D01*
X-395085Y-2009917D01*
X-407563Y-1991381D01*
X-402938Y-1978646D01*
X-381057Y-1939436D01*
X-345273Y-1882495D01*
X-300117Y-1815250D01*
X-267165Y-1767438D01*
X-201727Y-1671985D01*
X-132228Y-1570125D01*
X-69075Y-1477088D01*
X54200Y-1294832D01*
X-28520Y-1141841D01*
X-47613Y-1105817D01*
X-80272Y-1040303D01*
X-102819Y-989640D01*
X-111226Y-962564D01*
X-100430Y-953703D01*
X-59323Y-931699D01*
X8451Y-899199D01*
X98591Y-858010D01*
X206795Y-809942D01*
X328763Y-756802D01*
X460192Y-700399D01*
X596782Y-642542D01*
X734233Y-585038D01*
X868242Y-529697D01*
X994509Y-478326D01*
X1108732Y-432735D01*
X1206610Y-394732D01*
X1283843Y-366124D01*
X1336129Y-348721D01*
X1359167Y-344331D01*
X1359840Y-344628D01*
X1381137Y-365077D01*
X1414492Y-407850D01*
X1452989Y-464117D01*
X1464744Y-481877D01*
X1576265Y-617014D01*
X1709094Y-728856D01*
X1857702Y-814755D01*
X2016560Y-872062D01*
X2180140Y-898131D01*
X2342912Y-890313D01*
X2487685Y-858644D01*
X2633876Y-801782D01*
X2764297Y-718888D01*
X2888187Y-605131D01*
X2927765Y-560433D01*
X3025277Y-415935D01*
X3090950Y-259838D01*
X3125370Y-96667D01*
X3129126Y69057D01*
X3102806Y232808D01*
X3046997Y390064D01*
X2962286Y536302D01*
X2849263Y666996D01*
X2708513Y777626D01*
X2673658Y798895D01*
X2514345Y871190D01*
X2348448Y909585D01*
X2180263Y915086D01*
X2014087Y888699D01*
X1854216Y831430D01*
X1704947Y744283D01*
X1570577Y628264D01*
X1455401Y484378D01*
X1452298Y479706D01*
X1413067Y424036D01*
X1379714Y382311D01*
X1359167Y363254D01*
X1343059Y365658D01*
X1296156Y380609D01*
X1223461Y407119D01*
X1129275Y443380D01*
X1017902Y487584D01*
X893642Y537924D01*
X760798Y592593D01*
X623673Y649782D01*
X486568Y707684D01*
X353785Y764490D01*
X229626Y818394D01*
X118394Y867588D01*
X24391Y910263D01*
X-48082Y944613D01*
X-94722Y968829D01*
X-111226Y981103D01*
X-108991Y991311D01*
X-92926Y1031414D01*
X-64759Y1090682D01*
X-28520Y1160381D01*
X54200Y1313371D01*
X-69075Y1495627D01*
X-105579Y1549473D01*
X-173784Y1649626D01*
X-242098Y1749475D01*
X-300117Y1833789D01*
X-331736Y1880321D01*
X-371020Y1940800D01*
X-397912Y1985643D01*
X-407883Y2007545D01*
X-403650Y2016955D01*
X-377721Y2050969D01*
X-332070Y2103405D01*
X-271186Y2169699D01*
X-199561Y2245287D01*
X-121683Y2325604D01*
X-42045Y2406087D01*
X34865Y2482171D01*
X104555Y2549293D01*
X162536Y2602888D01*
X204316Y2638392D01*
X225407Y2651241D01*
X229419Y2650500D01*
X262080Y2635207D01*
X318588Y2602538D01*
X393837Y2555650D01*
X482725Y2497699D01*
X580146Y2431843D01*
X607018Y2413373D01*
X701577Y2348518D01*
X785173Y2291391D01*
X852916Y2245322D01*
X899914Y2213641D01*
X921274Y2199676D01*
X922189Y2199332D01*
X948322Y2203454D01*
X1001260Y2219193D01*
X1074353Y2243996D01*
X1160948Y2275311D01*
X1254392Y2310583D01*
X1348035Y2347260D01*
X1435223Y2382788D01*
X1509305Y2414614D01*
X1563629Y2440184D01*
X1591543Y2456947D01*
X1593276Y2458626D01*
X1602044Y2470628D01*
X1610885Y2490897D01*
X1620708Y2523471D01*
X1632417Y2572384D01*
X1646920Y2641673D01*
X1665124Y2735375D01*
X1687934Y2857524D01*
X1716259Y3012158D01*
X1722220Y3044230D01*
X1740648Y3136107D01*
X1758108Y3213393D01*
X1772867Y3268764D01*
X1783190Y3294895D01*
X1791803Y3299267D01*
X1833174Y3306555D01*
X1901759Y3312331D01*
X1991132Y3316590D01*
X2094865Y3319327D01*
X2206535Y3320538D01*
X2319713Y3320218D01*
G36*
X2319713Y3320218D02*
G01*
X2427974Y3318364D01*
X2524892Y3314970D01*
X2604041Y3310033D01*
X2658994Y3303548D01*
X2683326Y3295511D01*
X2686921Y3287304D01*
X2698252Y3246481D01*
X2714278Y3177476D01*
X2733805Y3085797D01*
X2755638Y2976950D01*
X2778582Y2856442D01*
X2790841Y2790643D01*
X2812099Y2677865D01*
X2830713Y2580793D01*
X2845672Y2504618D01*
X2855964Y2454531D01*
X2860578Y2435724D01*
X2861529Y2435017D01*
X2885690Y2423039D01*
X2936306Y2400206D01*
X3006662Y2369370D01*
X3090042Y2333387D01*
X3179730Y2295109D01*
X3269011Y2257391D01*
X3351168Y2223087D01*
X3419487Y2195051D01*
X3467252Y2176136D01*
X3487746Y2169197D01*
X3494957Y2172258D01*
X3529272Y2192628D01*
X3587030Y2229578D01*
X3663701Y2280140D01*
X3754752Y2341343D01*
X3855650Y2410219D01*
X3910907Y2448006D01*
X4007785Y2513218D01*
X4092807Y2569129D01*
X4161338Y2612759D01*
X4208740Y2641123D01*
X4230377Y2651241D01*
X4242113Y2644210D01*
X4277182Y2614803D01*
X4330255Y2566559D01*
X4396836Y2503907D01*
X4472426Y2431275D01*
X4552528Y2353092D01*
X4632646Y2273786D01*
X4708282Y2197787D01*
X4774938Y2129522D01*
X4828118Y2073420D01*
X4863324Y2033910D01*
X4876058Y2015421D01*
X4871107Y2005157D01*
X4848143Y1967470D01*
X4809062Y1906652D01*
X4756728Y1827087D01*
X4694004Y1733157D01*
X4623754Y1629246D01*
X4371449Y1258206D01*
X4498947Y948920D01*
X4626445Y639635D01*
X5071069Y555814D01*
X5515693Y471994D01*
X5515693Y-453454D01*
X5071069Y-537275D01*
X4626445Y-621095D01*
X4371449Y-1239667D01*
X4623754Y-1610707D01*
X4673494Y-1684144D01*
X4738782Y-1781499D01*
X4794546Y-1865787D01*
X4837922Y-1932631D01*
X4866047Y-1977654D01*
X4876058Y-1996478D01*
X4868939Y-2008039D01*
X4839106Y-2042596D01*
X4790148Y-2094894D01*
X4726560Y-2160500D01*
X4652837Y-2234983D01*
X4573475Y-2313913D01*
X4492969Y-2392856D01*
X4415815Y-2467384D01*
X4346507Y-2533063D01*
X4289543Y-2585463D01*
X4249416Y-2620153D01*
X4230623Y-2632701D01*
X4222549Y-2629782D01*
X4186531Y-2609571D01*
X4127256Y-2572663D01*
X4049370Y-2522050D01*
X3957519Y-2460725D01*
X3856350Y-2391679D01*
X3801174Y-2353787D01*
X3705116Y-2288606D01*
X3621283Y-2232723D01*
X3554223Y-2189117D01*
X3508481Y-2160769D01*
X3488604Y-2150657D01*
X3487503Y-2150823D01*
X3462306Y-2159743D01*
X3410853Y-2180206D01*
X3339865Y-2209360D01*
X3256065Y-2244353D01*
X3166172Y-2282332D01*
X3076909Y-2320445D01*
X2994997Y-2355839D01*
X2927157Y-2385662D01*
X2880110Y-2407061D01*
X2860578Y-2417184D01*
X2858845Y-2423174D01*
X2851031Y-2459566D01*
X2838085Y-2524427D01*
X2821021Y-2612565D01*
X2800849Y-2718787D01*
X2778582Y-2837902D01*
X2766777Y-2900683D01*
X2744252Y-3015912D01*
X2723450Y-3116662D01*
X2705565Y-3197426D01*
X2691792Y-3252698D01*
X2683326Y-3276971D01*
X2674934Y-3281331D01*
X2633928Y-3288563D01*
X2565632Y-3294246D01*
X2476471Y-3298382D01*
X2372872Y-3300977D01*
X2261260Y-3302036D01*
X2148062Y-3301561D01*
X2039704Y-3299559D01*
X1942611Y-3296033D01*
X1863210Y-3290987D01*
X1807928Y-3284427D01*
X1783190Y-3276356D01*
X1780400Y-3271458D01*
X1768431Y-3234930D01*
X1752595Y-3171565D01*
X1734626Y-3088686D01*
X1716259Y-2993618D01*
X1710409Y-2961542D01*
X1683202Y-2813393D01*
X1661337Y-2696961D01*
X1643907Y-2608209D01*
X1630004Y-2543103D01*
X1618723Y-2497606D01*
X1609157Y-2467682D01*
X1600399Y-2449294D01*
X1591543Y-2438407D01*
X1590057Y-2437142D01*
X1559069Y-2419338D01*
X1502366Y-2392994D01*
X1426601Y-2360661D01*
X1338426Y-2324893D01*
X1244493Y-2288244D01*
X1151453Y-2253266D01*
X1065959Y-2222513D01*
X994664Y-2198538D01*
X944218Y-2183895D01*
X921274Y-2181136D01*
X918297Y-2182981D01*
X889507Y-2202075D01*
X836405Y-2237984D01*
X763883Y-2287378D01*
X676833Y-2346927D01*
X580146Y-2413303D01*
X553544Y-2431520D01*
X458125Y-2495577D01*
X372788Y-2550937D01*
X302595Y-2594439D01*
X252606Y-2622924D01*
X227884Y-2633232D01*
X221384Y-2631011D01*
X189356Y-2607858D01*
X137055Y-2562177D01*
X68001Y-2497241D01*
X-14286Y-2416319D01*
X-106286Y-2322685D01*
X-157781Y-2269165D01*
X-237983Y-2184542D01*
X-306678Y-2110475D01*
X-360252Y-2050941D01*
X-395085Y-2009917D01*
X-407563Y-1991381D01*
X-402938Y-1978646D01*
X-381057Y-1939436D01*
X-345273Y-1882495D01*
X-300117Y-1815250D01*
X-267165Y-1767438D01*
X-201727Y-1671985D01*
X-132228Y-1570125D01*
X-69075Y-1477088D01*
X54200Y-1294832D01*
X-28520Y-1141841D01*
X-47613Y-1105817D01*
X-80272Y-1040303D01*
X-102819Y-989640D01*
X-111226Y-962564D01*
X-100430Y-953703D01*
X-59323Y-931699D01*
X8451Y-899199D01*
X98591Y-858010D01*
X206795Y-809942D01*
X328763Y-756802D01*
X460192Y-700399D01*
X596782Y-642542D01*
X734233Y-585038D01*
X868242Y-529697D01*
X994509Y-478326D01*
X1108732Y-432735D01*
X1206610Y-394732D01*
X1283843Y-366124D01*
X1336129Y-348721D01*
X1359167Y-344331D01*
X1359840Y-344628D01*
X1381137Y-365077D01*
X1414492Y-407850D01*
X1452989Y-464117D01*
X1464744Y-481877D01*
X1576265Y-617014D01*
X1709094Y-728856D01*
X1857702Y-814755D01*
X2016560Y-872062D01*
X2180140Y-898131D01*
X2342912Y-890313D01*
X2487685Y-858644D01*
X2633876Y-801782D01*
X2764297Y-718888D01*
X2888187Y-605131D01*
X2927765Y-560433D01*
X3025277Y-415935D01*
X3090950Y-259838D01*
X3125370Y-96667D01*
X3129126Y69057D01*
X3102806Y232808D01*
X3046997Y390064D01*
X2962286Y536302D01*
X2849263Y666996D01*
X2708513Y777626D01*
X2673658Y798895D01*
X2514345Y871190D01*
X2348448Y909585D01*
X2180263Y915086D01*
X2014087Y888699D01*
X1854216Y831430D01*
X1704947Y744283D01*
X1570577Y628264D01*
X1455401Y484378D01*
X1452298Y479706D01*
X1413067Y424036D01*
X1379714Y382311D01*
X1359167Y363254D01*
X1343059Y365658D01*
X1296156Y380609D01*
X1223461Y407119D01*
X1129275Y443380D01*
X1017902Y487584D01*
X893642Y537924D01*
X760798Y592593D01*
X623673Y649782D01*
X486568Y707684D01*
X353785Y764490D01*
X229626Y818394D01*
X118394Y867588D01*
X24391Y910263D01*
X-48082Y944613D01*
X-94722Y968829D01*
X-111226Y981103D01*
X-108991Y991311D01*
X-92926Y1031414D01*
X-64759Y1090682D01*
X-28520Y1160381D01*
X54200Y1313371D01*
X-69075Y1495627D01*
X-105579Y1549473D01*
X-173784Y1649626D01*
X-242098Y1749475D01*
X-300117Y1833789D01*
X-331736Y1880321D01*
X-371020Y1940800D01*
X-397912Y1985643D01*
X-407883Y2007545D01*
X-403650Y2016955D01*
X-377721Y2050969D01*
X-332070Y2103405D01*
X-271186Y2169699D01*
X-199561Y2245287D01*
X-121683Y2325604D01*
X-42045Y2406087D01*
X34865Y2482171D01*
X104555Y2549293D01*
X162536Y2602888D01*
X204316Y2638392D01*
X225407Y2651241D01*
X229419Y2650500D01*
X262080Y2635207D01*
X318588Y2602538D01*
X393837Y2555650D01*
X482725Y2497699D01*
X580146Y2431843D01*
X607018Y2413373D01*
X701577Y2348518D01*
X785173Y2291391D01*
X852916Y2245322D01*
X899914Y2213641D01*
X921274Y2199676D01*
X922189Y2199332D01*
X948322Y2203454D01*
X1001260Y2219193D01*
X1074353Y2243996D01*
X1160948Y2275311D01*
X1254392Y2310583D01*
X1348035Y2347260D01*
X1435223Y2382788D01*
X1509305Y2414614D01*
X1563629Y2440184D01*
X1591543Y2456947D01*
X1593276Y2458626D01*
X1602044Y2470628D01*
X1610885Y2490897D01*
X1620708Y2523471D01*
X1632417Y2572384D01*
X1646920Y2641673D01*
X1665124Y2735375D01*
X1687934Y2857524D01*
X1716259Y3012158D01*
X1722220Y3044230D01*
X1740648Y3136107D01*
X1758108Y3213393D01*
X1772867Y3268764D01*
X1783190Y3294895D01*
X1791803Y3299267D01*
X1833174Y3306555D01*
X1901759Y3312331D01*
X1991132Y3316590D01*
X2094865Y3319327D01*
X2206535Y3320538D01*
X2319713Y3320218D01*
G37*
D12*
%TO.C,JP1*%
X-11795000Y-5145000D02*
X-11795000Y-3745000D01*
X-11095000Y-3045000D02*
X-10495000Y-3045000D01*
X-10495000Y-5845000D02*
X-11095000Y-5845000D01*
X-9795000Y-3745000D02*
X-9795000Y-5145000D01*
X-11795000Y-3745000D02*
G75*
G02*
X-11095000Y-3045000I699999J1D01*
G01*
X-11095000Y-5845000D02*
G75*
G02*
X-11795000Y-5145000I0J700000D01*
G01*
X-10495000Y-3045000D02*
G75*
G02*
X-9795000Y-3745000I1J-699999D01*
G01*
X-9795000Y-5145000D02*
G75*
G02*
X-10495000Y-5845000I-700000J0D01*
G01*
%TO.C,JP4*%
X-4175000Y-5145000D02*
X-4175000Y-3745000D01*
X-3475000Y-3045000D02*
X-2875000Y-3045000D01*
X-2875000Y-5845000D02*
X-3475000Y-5845000D01*
X-2175000Y-3745000D02*
X-2175000Y-5145000D01*
X-4175000Y-3745000D02*
G75*
G02*
X-3475000Y-3045000I699999J1D01*
G01*
X-3475000Y-5845000D02*
G75*
G02*
X-4175000Y-5145000I0J700000D01*
G01*
X-2875000Y-3045000D02*
G75*
G02*
X-2175000Y-3745000I1J-699999D01*
G01*
X-2175000Y-5145000D02*
G75*
G02*
X-2875000Y-5845000I-700000J0D01*
G01*
%TD*%
G36*
X11373039Y-19685D02*
G01*
X11418794Y-72489D01*
X11430000Y-124000D01*
X11430000Y-4956000D01*
X11410315Y-5023039D01*
X11357511Y-5068794D01*
X11306000Y-5080000D01*
X9014000Y-5080000D01*
X8946961Y-5060315D01*
X8901206Y-5007511D01*
X8890000Y-4956000D01*
X8890000Y-4502276D01*
X9529086Y-4502276D01*
X10786533Y-4502276D01*
X10786533Y-579048D01*
X9529086Y-579048D01*
X9529086Y-4502276D01*
X8890000Y-4502276D01*
X8890000Y-124000D01*
X8909685Y-56961D01*
X8962489Y-11206D01*
X9014000Y0D01*
X11306000Y0D01*
X11373039Y-19685D01*
G37*
G36*
X7563039Y-6369685D02*
G01*
X7608794Y-6422489D01*
X7620000Y-6474000D01*
X7620000Y-12576000D01*
X7600315Y-12643039D01*
X7547511Y-12688794D01*
X7496000Y-12700000D01*
X5204000Y-12700000D01*
X5136961Y-12680315D01*
X5091206Y-12627511D01*
X5080000Y-12576000D01*
X5080000Y-9952164D01*
X5813937Y-9952164D01*
X6976423Y-9952164D01*
X6976423Y-7122848D01*
X5813937Y-7122848D01*
X5813937Y-9952164D01*
X5080000Y-9952164D01*
X5080000Y-6474000D01*
X5099685Y-6406961D01*
X5152489Y-6361206D01*
X5204000Y-6350000D01*
X7496000Y-6350000D01*
X7563039Y-6369685D01*
G37*
G36*
X-5136961Y12680315D02*
G01*
X-5091206Y12627511D01*
X-5080000Y12576000D01*
X-5080000Y6474000D01*
X-5099685Y6406961D01*
X-5152489Y6361206D01*
X-5204000Y6350000D01*
X-7496000Y6350000D01*
X-7563039Y6369685D01*
X-7608794Y6422489D01*
X-7620000Y6474000D01*
X-7620000Y7122849D01*
X-6886063Y7122849D01*
X-5723577Y7122849D01*
X-5723577Y9952165D01*
X-6886063Y9952165D01*
X-6886063Y7122849D01*
X-7620000Y7122849D01*
X-7620000Y12576000D01*
X-7600315Y12643039D01*
X-7547511Y12688794D01*
X-7496000Y12700000D01*
X-5204000Y12700000D01*
X-5136961Y12680315D01*
G37*
%LPC*%
D14*
%TO.C,REF\u002A\u002A*%
X10160000Y10160000D03*
%TD*%
%TO.C,REF\u002A\u002A*%
X10160000Y-10160000D03*
%TD*%
%TO.C,REF\u002A\u002A*%
X-10160000Y10160000D03*
%TD*%
%TO.C,REF\u002A\u002A*%
X-10160000Y-10160000D03*
%TD*%
D15*
%TO.C,J4*%
X6350000Y-11430000D03*
X3810000Y-11430000D03*
X1270000Y-11430000D03*
X-1270000Y-11430000D03*
X-3810000Y-11430000D03*
X-6350000Y-11430000D03*
%TD*%
%TO.C,J3*%
X-6350000Y11430000D03*
X-3810000Y11430000D03*
X-1270000Y11430000D03*
X1270000Y11430000D03*
X3810000Y11430000D03*
X6350000Y11430000D03*
%TD*%
D16*
%TO.C,JP2*%
X-8255000Y-3795000D03*
D17*
X-8255000Y-5095000D03*
%TD*%
D16*
%TO.C,JP3*%
X-5715000Y-3795000D03*
D17*
X-5715000Y-5095000D03*
%TD*%
D16*
%TO.C,JP1*%
X-10795000Y-3795000D03*
D17*
X-10795000Y-5095000D03*
%TD*%
D16*
%TO.C,JP4*%
X-3175000Y-3795000D03*
D17*
X-3175000Y-5095000D03*
%TD*%
%LPD*%
M02*
