%TF.GenerationSoftware,KiCad,Pcbnew,8.0.7*%
%TF.CreationDate,2025-02-08T23:44:29-05:00*%
%TF.ProjectId,QwiicUART-Board,51776969-6355-4415-9254-2d426f617264,0.0.2*%
%TF.SameCoordinates,PX853a720PY66f2fb0*%
%TF.FileFunction,Copper,L2,Bot*%
%TF.FilePolarity,Positive*%
%FSLAX46Y46*%
G04 Gerber Fmt 4.6, Leading zero omitted, Abs format (unit mm)*
G04 Created by KiCad (PCBNEW 8.0.7) date 2025-02-08 23:44:29*
%MOMM*%
%LPD*%
G01*
G04 APERTURE LIST*
G04 Aperture macros list*
%AMFreePoly0*
4,1,19,0.500000,-0.750000,0.000000,-0.750000,0.000000,-0.744911,-0.071157,-0.744911,-0.207708,-0.704816,-0.327430,-0.627875,-0.420627,-0.520320,-0.479746,-0.390866,-0.500000,-0.250000,-0.500000,0.250000,-0.479746,0.390866,-0.420627,0.520320,-0.327430,0.627875,-0.207708,0.704816,-0.071157,0.744911,0.000000,0.744911,0.000000,0.750000,0.500000,0.750000,0.500000,-0.750000,0.500000,-0.750000,
$1*%
%AMFreePoly1*
4,1,19,0.000000,0.744911,0.071157,0.744911,0.207708,0.704816,0.327430,0.627875,0.420627,0.520320,0.479746,0.390866,0.500000,0.250000,0.500000,-0.250000,0.479746,-0.390866,0.420627,-0.520320,0.327430,-0.627875,0.207708,-0.704816,0.071157,-0.744911,0.000000,-0.744911,0.000000,-0.750000,-0.500000,-0.750000,-0.500000,0.750000,0.000000,0.750000,0.000000,0.744911,0.000000,0.744911,
$1*%
G04 Aperture macros list end*
%TA.AperFunction,EtchedComponent*%
%ADD10C,0.000000*%
%TD*%
%TA.AperFunction,ComponentPad*%
%ADD11C,1.000000*%
%TD*%
%TA.AperFunction,ComponentPad*%
%ADD12C,1.700000*%
%TD*%
%TA.AperFunction,SMDPad,CuDef*%
%ADD13FreePoly0,270.000000*%
%TD*%
%TA.AperFunction,SMDPad,CuDef*%
%ADD14FreePoly1,270.000000*%
%TD*%
%TA.AperFunction,ViaPad*%
%ADD15C,0.600000*%
%TD*%
%TA.AperFunction,Conductor*%
%ADD16C,0.200000*%
%TD*%
G04 APERTURE END LIST*
D10*
%TA.AperFunction,EtchedComponent*%
%TO.C,JP1*%
G36*
X-10495000Y-4695000D02*
G01*
X-11095000Y-4695000D01*
X-11095000Y-4195000D01*
X-10495000Y-4195000D01*
X-10495000Y-4695000D01*
G37*
%TD.AperFunction*%
%TD*%
D11*
%TO.P,TP1,1,1*%
%TO.N,/CLK*%
X-635000Y5080000D03*
%TD*%
D12*
%TO.P,J4,1,Pin_1*%
%TO.N,GND*%
X6350000Y-11430000D03*
%TO.P,J4,2,Pin_2*%
%TO.N,+3.3V*%
X3810000Y-11430000D03*
%TO.P,J4,3,Pin_3*%
%TO.N,/SDA*%
X1270000Y-11430000D03*
%TO.P,J4,4,Pin_4*%
%TO.N,/SCL*%
X-1270000Y-11430000D03*
%TO.P,J4,5,Pin_5*%
%TO.N,/~{INT}*%
X-3810000Y-11430000D03*
%TO.P,J4,6,Pin_6*%
%TO.N,/~{RST}*%
X-6350000Y-11430000D03*
%TD*%
%TO.P,J3,1,Pin_1*%
%TO.N,GND*%
X-6350000Y11430000D03*
%TO.P,J3,2,Pin_2*%
%TO.N,/~{RTS}*%
X-3810000Y11430000D03*
%TO.P,J3,3,Pin_3*%
%TO.N,+3.3V*%
X-1270000Y11430000D03*
%TO.P,J3,4,Pin_4*%
%TO.N,/RX*%
X1270000Y11430000D03*
%TO.P,J3,5,Pin_5*%
%TO.N,/TX*%
X3810000Y11430000D03*
%TO.P,J3,6,Pin_6*%
%TO.N,/~{CTS}*%
X6350000Y11430000D03*
%TD*%
D13*
%TO.P,JP2,1,A*%
%TO.N,GND*%
X-8255000Y-3795000D03*
D14*
%TO.P,JP2,2,B*%
%TO.N,/A0*%
X-8255000Y-5095000D03*
%TD*%
D13*
%TO.P,JP3,1,A*%
%TO.N,/SCL*%
X-5715000Y-3795000D03*
D14*
%TO.P,JP3,2,B*%
%TO.N,/A0*%
X-5715000Y-5095000D03*
%TD*%
D13*
%TO.P,JP1,1,A*%
%TO.N,+3.3V*%
X-10795000Y-3795000D03*
D14*
%TO.P,JP1,2,B*%
%TO.N,/A0*%
X-10795000Y-5095000D03*
%TD*%
D13*
%TO.P,JP4,1,A*%
%TO.N,/SDA*%
X-3175000Y-3795000D03*
D14*
%TO.P,JP4,2,B*%
%TO.N,/A0*%
X-3175000Y-5095000D03*
%TD*%
D15*
%TO.N,GND*%
X5080000Y2540000D03*
X9525000Y-5715000D03*
X-6985000Y-6350000D03*
X-7620000Y3810000D03*
X635000Y-5080000D03*
X-635000Y-6350000D03*
X10795000Y-5715000D03*
X-6350000Y3810000D03*
X-4445000Y-6350000D03*
X-9525000Y-6350000D03*
X5080000Y3810000D03*
%TO.N,+3.3V*%
X-9525000Y-2540000D03*
%TO.N,/SDA*%
X3492500Y-317500D03*
X-6985000Y-2500000D03*
X2540000Y-1270000D03*
%TO.N,/SCL*%
X-6985000Y-1500000D03*
X1270000Y-1270000D03*
X2540000Y0D03*
%TO.N,/~{RTS}*%
X3175000Y4445000D03*
%TO.N,/~{RST}*%
X-1905000Y-2540000D03*
%TO.N,/~{INT}*%
X3175000Y-4445000D03*
%TO.N,/A0*%
X-3175000Y-5095000D03*
%TD*%
D16*
%TO.N,GND*%
X-8255000Y-3795000D02*
X-8255000Y-1270000D01*
%TO.N,+3.3V*%
X-10795000Y-3795000D02*
X-10780000Y-3795000D01*
X-10780000Y-3795000D02*
X-9525000Y-2540000D01*
%TO.N,/SDA*%
X1870000Y-1940000D02*
X2540000Y-1270000D01*
X-2615000Y-1940000D02*
X-3175000Y-2500000D01*
X-3175000Y-2500000D02*
X-3175000Y-3795000D01*
X1870000Y-1940000D02*
X-2615000Y-1940000D01*
X3492500Y-317500D02*
X2540000Y-1270000D01*
X-6985000Y-2500000D02*
X-3175000Y-2500000D01*
%TO.N,/SCL*%
X-6755000Y-1270000D02*
X1270000Y-1270000D01*
X-7585000Y-2100000D02*
X-7585000Y-2985000D01*
X2540000Y0D02*
X1270000Y-1270000D01*
X-6775000Y-3795000D02*
X-5715000Y-3795000D01*
X-6985000Y-1500000D02*
X-7585000Y-2100000D01*
X-7585000Y-2985000D02*
X-6775000Y-3795000D01*
X-6985000Y-1500000D02*
X-6755000Y-1270000D01*
%TO.N,/~{RTS}*%
X3175000Y4445000D02*
X-3810000Y11430000D01*
%TO.N,/~{RST}*%
X-1905000Y-6985000D02*
X-6350000Y-11430000D01*
X-1905000Y-2540000D02*
X-1905000Y-6985000D01*
%TO.N,/~{INT}*%
X3175000Y-4445000D02*
X-3810000Y-11430000D01*
%TO.N,/A0*%
X-5715000Y-5095000D02*
X-3175000Y-5095000D01*
X-10795000Y-5095000D02*
X-8255000Y-5095000D01*
X-8255000Y-5095000D02*
X-5715000Y-5095000D01*
%TD*%
%TA.AperFunction,Conductor*%
%TO.N,GND*%
G36*
X-7560378Y12279815D02*
G01*
X-7514623Y12227011D01*
X-7504679Y12157853D01*
X-7522377Y12113121D01*
X-7520894Y12112265D01*
X-7523601Y12107578D01*
X-7623430Y11893493D01*
X-7623434Y11893484D01*
X-7684568Y11665327D01*
X-7684570Y11665316D01*
X-7705157Y11430002D01*
X-7705157Y11430000D01*
X-7684570Y11194685D01*
X-7684568Y11194674D01*
X-7623434Y10966517D01*
X-7623430Y10966508D01*
X-7523602Y10752424D01*
X-7464927Y10668628D01*
X-6832963Y11300592D01*
X-6815925Y11237007D01*
X-6750099Y11122993D01*
X-6657007Y11029901D01*
X-6542993Y10964075D01*
X-6479409Y10947038D01*
X-7111374Y10315074D01*
X-7027583Y10256402D01*
X-7027579Y10256400D01*
X-6813493Y10156571D01*
X-6813484Y10156567D01*
X-6585327Y10095433D01*
X-6585316Y10095431D01*
X-6350002Y10074843D01*
X-6349998Y10074843D01*
X-6114685Y10095431D01*
X-6114674Y10095433D01*
X-5886517Y10156567D01*
X-5886508Y10156571D01*
X-5672420Y10256401D01*
X-5588629Y10315075D01*
X-6220592Y10947038D01*
X-6157007Y10964075D01*
X-6042993Y11029901D01*
X-5949901Y11122993D01*
X-5884075Y11237007D01*
X-5867038Y11300592D01*
X-5235075Y10668629D01*
X-5181880Y10744596D01*
X-5127303Y10788220D01*
X-5057804Y10795412D01*
X-4995450Y10763889D01*
X-4978732Y10744596D01*
X-4848495Y10558599D01*
X-4681401Y10391505D01*
X-4584616Y10323735D01*
X-4487835Y10255968D01*
X-4487833Y10255967D01*
X-4487830Y10255965D01*
X-4273663Y10156097D01*
X-4045408Y10094937D01*
X-3857082Y10078461D01*
X-3810001Y10074341D01*
X-3810000Y10074341D01*
X-3809999Y10074341D01*
X-3770766Y10077774D01*
X-3574592Y10094937D01*
X-3446243Y10129328D01*
X-3376394Y10127665D01*
X-3326469Y10097234D01*
X2344298Y4426466D01*
X2377783Y4365143D01*
X2379837Y4352669D01*
X2389630Y4265751D01*
X2449210Y4095479D01*
X2462292Y4074660D01*
X2545184Y3942738D01*
X2672738Y3815184D01*
X2825478Y3719211D01*
X2995745Y3659632D01*
X2995750Y3659631D01*
X3174996Y3639435D01*
X3175000Y3639435D01*
X3175004Y3639435D01*
X3354249Y3659631D01*
X3354252Y3659632D01*
X3354255Y3659632D01*
X3524522Y3719211D01*
X3677262Y3815184D01*
X3804816Y3942738D01*
X3900789Y4095478D01*
X3960368Y4265745D01*
X3970162Y4352669D01*
X3980565Y4444997D01*
X3980565Y4445004D01*
X3960369Y4624250D01*
X3960368Y4624255D01*
X3900788Y4794524D01*
X3804815Y4947263D01*
X3677262Y5074816D01*
X3524521Y5170790D01*
X3354249Y5230370D01*
X3267331Y5240163D01*
X3202917Y5267230D01*
X3193534Y5275702D01*
X-1396333Y9865569D01*
X-1429818Y9926892D01*
X-1424834Y9996584D01*
X-1382962Y10052517D01*
X-1317498Y10076934D01*
X-1297856Y10076779D01*
X-1270000Y10074341D01*
X-1034592Y10094937D01*
X-806337Y10156097D01*
X-592170Y10255965D01*
X-398599Y10391505D01*
X-231505Y10558599D01*
X-101575Y10744158D01*
X-46998Y10787783D01*
X22500Y10794977D01*
X84855Y10763454D01*
X101575Y10744158D01*
X231500Y10558605D01*
X231505Y10558599D01*
X398599Y10391505D01*
X495384Y10323735D01*
X592165Y10255968D01*
X592167Y10255967D01*
X592170Y10255965D01*
X806337Y10156097D01*
X1034592Y10094937D01*
X1222918Y10078461D01*
X1269999Y10074341D01*
X1270000Y10074341D01*
X1270001Y10074341D01*
X1309234Y10077774D01*
X1505408Y10094937D01*
X1733663Y10156097D01*
X1947830Y10255965D01*
X2141401Y10391505D01*
X2308495Y10558599D01*
X2438425Y10744158D01*
X2493002Y10787783D01*
X2562500Y10794977D01*
X2624855Y10763454D01*
X2641575Y10744158D01*
X2771500Y10558605D01*
X2771505Y10558599D01*
X2938599Y10391505D01*
X3035384Y10323735D01*
X3132165Y10255968D01*
X3132167Y10255967D01*
X3132170Y10255965D01*
X3346337Y10156097D01*
X3574592Y10094937D01*
X3762918Y10078461D01*
X3809999Y10074341D01*
X3810000Y10074341D01*
X3810001Y10074341D01*
X3849234Y10077774D01*
X4045408Y10094937D01*
X4273663Y10156097D01*
X4487830Y10255965D01*
X4681401Y10391505D01*
X4848495Y10558599D01*
X4978425Y10744158D01*
X5033002Y10787783D01*
X5102500Y10794977D01*
X5164855Y10763454D01*
X5181575Y10744158D01*
X5311500Y10558605D01*
X5311505Y10558599D01*
X5478599Y10391505D01*
X5575384Y10323735D01*
X5672165Y10255968D01*
X5672167Y10255967D01*
X5672170Y10255965D01*
X5886337Y10156097D01*
X6114592Y10094937D01*
X6302918Y10078461D01*
X6349999Y10074341D01*
X6350000Y10074341D01*
X6350001Y10074341D01*
X6389234Y10077774D01*
X6585408Y10094937D01*
X6813663Y10156097D01*
X7027830Y10255965D01*
X7221401Y10391505D01*
X7388495Y10558599D01*
X7524035Y10752170D01*
X7623903Y10966337D01*
X7685063Y11194592D01*
X7705659Y11430000D01*
X7685063Y11665408D01*
X7623903Y11893663D01*
X7524035Y12107829D01*
X7521329Y12112516D01*
X7523325Y12113669D01*
X7504126Y12170549D01*
X7521118Y12238321D01*
X7572053Y12286148D01*
X7628027Y12299500D01*
X9212949Y12299500D01*
X9279988Y12279815D01*
X9325743Y12227011D01*
X9335687Y12157853D01*
X9306662Y12094297D01*
X9260401Y12060939D01*
X9228987Y12047928D01*
X9228971Y12047920D01*
X8990516Y11910246D01*
X8772073Y11742630D01*
X8772066Y11742624D01*
X8577376Y11547934D01*
X8577370Y11547927D01*
X8409754Y11329484D01*
X8272080Y11091029D01*
X8272075Y11091018D01*
X8166704Y10836631D01*
X8095441Y10570669D01*
X8095438Y10570656D01*
X8059501Y10297685D01*
X8059500Y10297668D01*
X8059500Y10022333D01*
X8059501Y10022316D01*
X8095438Y9749345D01*
X8095439Y9749340D01*
X8095440Y9749334D01*
X8095441Y9749332D01*
X8166704Y9483370D01*
X8272075Y9228983D01*
X8272080Y9228972D01*
X8354861Y9085593D01*
X8409751Y8990521D01*
X8409753Y8990518D01*
X8409754Y8990517D01*
X8577370Y8772074D01*
X8577376Y8772067D01*
X8772066Y8577377D01*
X8772072Y8577372D01*
X8990521Y8409751D01*
X9143778Y8321268D01*
X9228971Y8272081D01*
X9228976Y8272079D01*
X9228979Y8272077D01*
X9483368Y8166705D01*
X9749334Y8095440D01*
X10022326Y8059500D01*
X10022333Y8059500D01*
X10297667Y8059500D01*
X10297674Y8059500D01*
X10570666Y8095440D01*
X10836632Y8166705D01*
X11091021Y8272077D01*
X11329479Y8409751D01*
X11547928Y8577372D01*
X11742628Y8772072D01*
X11910249Y8990521D01*
X12047923Y9228979D01*
X12047927Y9228988D01*
X12060939Y9260401D01*
X12104780Y9314805D01*
X12171074Y9336870D01*
X12238773Y9319591D01*
X12286384Y9268454D01*
X12299500Y9212949D01*
X12299500Y-9212948D01*
X12279815Y-9279987D01*
X12227011Y-9325742D01*
X12157853Y-9335686D01*
X12094297Y-9306661D01*
X12060939Y-9260402D01*
X12047924Y-9228982D01*
X12047923Y-9228979D01*
X12047920Y-9228975D01*
X12047919Y-9228971D01*
X11998732Y-9143778D01*
X11910249Y-8990521D01*
X11742628Y-8772072D01*
X11742623Y-8772066D01*
X11547933Y-8577376D01*
X11547926Y-8577370D01*
X11329483Y-8409754D01*
X11329482Y-8409753D01*
X11329479Y-8409751D01*
X11234407Y-8354861D01*
X11091028Y-8272080D01*
X11091017Y-8272075D01*
X10836630Y-8166704D01*
X10703649Y-8131072D01*
X10570666Y-8095440D01*
X10570660Y-8095439D01*
X10570655Y-8095438D01*
X10297684Y-8059501D01*
X10297679Y-8059500D01*
X10297674Y-8059500D01*
X10022326Y-8059500D01*
X10022320Y-8059500D01*
X10022315Y-8059501D01*
X9749344Y-8095438D01*
X9749337Y-8095439D01*
X9749334Y-8095440D01*
X9693125Y-8110500D01*
X9483369Y-8166704D01*
X9228982Y-8272075D01*
X9228971Y-8272080D01*
X8990516Y-8409754D01*
X8772073Y-8577370D01*
X8772066Y-8577376D01*
X8577376Y-8772066D01*
X8577370Y-8772073D01*
X8409754Y-8990516D01*
X8272080Y-9228971D01*
X8272075Y-9228982D01*
X8166704Y-9483369D01*
X8095441Y-9749331D01*
X8095438Y-9749344D01*
X8059501Y-10022315D01*
X8059500Y-10022332D01*
X8059500Y-10297667D01*
X8059501Y-10297684D01*
X8095438Y-10570655D01*
X8095439Y-10570660D01*
X8095440Y-10570666D01*
X8131072Y-10703649D01*
X8166704Y-10836630D01*
X8272075Y-11091017D01*
X8272080Y-11091028D01*
X8331927Y-11194684D01*
X8409751Y-11329479D01*
X8409753Y-11329482D01*
X8409754Y-11329483D01*
X8577370Y-11547926D01*
X8577376Y-11547933D01*
X8772066Y-11742623D01*
X8772072Y-11742628D01*
X8990521Y-11910249D01*
X9143778Y-11998732D01*
X9228971Y-12047919D01*
X9228987Y-12047927D01*
X9260401Y-12060939D01*
X9314805Y-12104780D01*
X9336870Y-12171074D01*
X9319591Y-12238773D01*
X9268454Y-12286384D01*
X9212949Y-12299500D01*
X7627417Y-12299500D01*
X7560378Y-12279815D01*
X7514623Y-12227011D01*
X7504679Y-12157853D01*
X7522381Y-12113131D01*
X7520891Y-12112271D01*
X7523599Y-12107579D01*
X7623429Y-11893492D01*
X7623433Y-11893483D01*
X7684567Y-11665326D01*
X7684569Y-11665315D01*
X7705157Y-11430000D01*
X7705157Y-11429998D01*
X7684569Y-11194684D01*
X7684567Y-11194673D01*
X7623433Y-10966516D01*
X7623429Y-10966507D01*
X7523601Y-10752424D01*
X7464925Y-10668626D01*
X6832962Y-11300589D01*
X6815925Y-11237007D01*
X6750099Y-11122993D01*
X6657007Y-11029901D01*
X6542993Y-10964075D01*
X6479409Y-10947037D01*
X7111372Y-10315073D01*
X7027576Y-10256398D01*
X6813492Y-10156570D01*
X6813483Y-10156566D01*
X6585326Y-10095432D01*
X6585315Y-10095430D01*
X6350002Y-10074843D01*
X6349998Y-10074843D01*
X6114684Y-10095430D01*
X6114673Y-10095432D01*
X5886516Y-10156566D01*
X5886507Y-10156570D01*
X5672423Y-10256399D01*
X5672421Y-10256400D01*
X5588627Y-10315073D01*
X5588626Y-10315073D01*
X6220591Y-10947037D01*
X6157007Y-10964075D01*
X6042993Y-11029901D01*
X5949901Y-11122993D01*
X5884075Y-11237007D01*
X5867037Y-11300590D01*
X5235073Y-10668626D01*
X5235072Y-10668627D01*
X5181880Y-10744595D01*
X5127303Y-10788220D01*
X5057805Y-10795414D01*
X4995450Y-10763891D01*
X4978730Y-10744595D01*
X4848494Y-10558597D01*
X4681402Y-10391506D01*
X4681395Y-10391501D01*
X4487834Y-10255967D01*
X4487830Y-10255965D01*
X4487828Y-10255964D01*
X4273663Y-10156097D01*
X4273659Y-10156096D01*
X4273655Y-10156094D01*
X4045413Y-10094938D01*
X4045403Y-10094936D01*
X3810001Y-10074341D01*
X3809999Y-10074341D01*
X3574596Y-10094936D01*
X3574586Y-10094938D01*
X3346344Y-10156094D01*
X3346335Y-10156098D01*
X3132171Y-10255964D01*
X3132169Y-10255965D01*
X2938597Y-10391505D01*
X2771505Y-10558597D01*
X2641575Y-10744158D01*
X2586998Y-10787783D01*
X2517500Y-10794977D01*
X2455145Y-10763454D01*
X2438425Y-10744158D01*
X2308494Y-10558597D01*
X2141402Y-10391506D01*
X2141395Y-10391501D01*
X1947834Y-10255967D01*
X1947830Y-10255965D01*
X1947828Y-10255964D01*
X1733663Y-10156097D01*
X1733659Y-10156096D01*
X1733655Y-10156094D01*
X1505413Y-10094938D01*
X1505403Y-10094936D01*
X1270001Y-10074341D01*
X1269999Y-10074341D01*
X1034596Y-10094936D01*
X1034586Y-10094938D01*
X806344Y-10156094D01*
X806335Y-10156098D01*
X592171Y-10255964D01*
X592169Y-10255965D01*
X398597Y-10391505D01*
X231505Y-10558597D01*
X101575Y-10744158D01*
X46998Y-10787783D01*
X-22500Y-10794977D01*
X-84855Y-10763454D01*
X-101575Y-10744158D01*
X-231506Y-10558597D01*
X-398598Y-10391506D01*
X-398605Y-10391501D01*
X-592166Y-10255967D01*
X-592170Y-10255965D01*
X-592172Y-10255964D01*
X-806337Y-10156097D01*
X-806341Y-10156096D01*
X-806345Y-10156094D01*
X-1034587Y-10094938D01*
X-1034597Y-10094936D01*
X-1269999Y-10074341D01*
X-1270002Y-10074341D01*
X-1297847Y-10076777D01*
X-1366347Y-10063010D01*
X-1416530Y-10014395D01*
X-1432463Y-9946366D01*
X-1409087Y-9880523D01*
X-1396342Y-9865575D01*
X3193536Y-5275698D01*
X3254857Y-5242215D01*
X3267310Y-5240163D01*
X3354255Y-5230368D01*
X3524522Y-5170789D01*
X3677262Y-5074816D01*
X3804816Y-4947262D01*
X3900789Y-4794522D01*
X3960368Y-4624255D01*
X3960369Y-4624249D01*
X3980565Y-4445003D01*
X3980565Y-4444996D01*
X3960369Y-4265750D01*
X3960368Y-4265745D01*
X3921546Y-4154798D01*
X3900789Y-4095478D01*
X3804816Y-3942738D01*
X3677262Y-3815184D01*
X3524523Y-3719211D01*
X3354254Y-3659631D01*
X3354249Y-3659630D01*
X3175004Y-3639435D01*
X3174996Y-3639435D01*
X2995750Y-3659630D01*
X2995745Y-3659631D01*
X2825476Y-3719211D01*
X2672737Y-3815184D01*
X2545184Y-3942737D01*
X2449210Y-4095478D01*
X2389630Y-4265750D01*
X2379837Y-4352667D01*
X2352770Y-4417081D01*
X2344298Y-4426464D01*
X-3326470Y-10097233D01*
X-3387793Y-10130718D01*
X-3446244Y-10129327D01*
X-3574587Y-10094938D01*
X-3574597Y-10094936D01*
X-3809999Y-10074341D01*
X-3810002Y-10074341D01*
X-3837847Y-10076777D01*
X-3906347Y-10063010D01*
X-3956530Y-10014395D01*
X-3972463Y-9946366D01*
X-3949087Y-9880523D01*
X-3936341Y-9865574D01*
X-1536287Y-7465521D01*
X-1536284Y-7465520D01*
X-1424480Y-7353716D01*
X-1374361Y-7266904D01*
X-1345423Y-7216785D01*
X-1304500Y-7064058D01*
X-1304500Y-6905943D01*
X-1304500Y-3122412D01*
X-1284815Y-3055373D01*
X-1277445Y-3045097D01*
X-1275190Y-3042267D01*
X-1275184Y-3042262D01*
X-1179211Y-2889522D01*
X-1119632Y-2719255D01*
X-1114011Y-2669373D01*
X-1111898Y-2650617D01*
X-1084832Y-2586203D01*
X-1027237Y-2546648D01*
X-988678Y-2540500D01*
X1783331Y-2540500D01*
X1783347Y-2540501D01*
X1790943Y-2540501D01*
X1949054Y-2540501D01*
X1949057Y-2540501D01*
X2101785Y-2499577D01*
X2155237Y-2468716D01*
X2238716Y-2420520D01*
X2350520Y-2308716D01*
X2350520Y-2308714D01*
X2360724Y-2298511D01*
X2360728Y-2298506D01*
X2558535Y-2100698D01*
X2619856Y-2067215D01*
X2632311Y-2065163D01*
X2719255Y-2055368D01*
X2889522Y-1995789D01*
X3042262Y-1899816D01*
X3169816Y-1772262D01*
X3265789Y-1619522D01*
X3325368Y-1449255D01*
X3335161Y-1362329D01*
X3362226Y-1297918D01*
X3370690Y-1288543D01*
X3511035Y-1148198D01*
X3572356Y-1114715D01*
X3584811Y-1112663D01*
X3671755Y-1102868D01*
X3842022Y-1043289D01*
X3994762Y-947316D01*
X4122316Y-819762D01*
X4218289Y-667022D01*
X4277868Y-496755D01*
X4298065Y-317500D01*
X4277868Y-138245D01*
X4218289Y32022D01*
X4122316Y184762D01*
X3994762Y312316D01*
X3935549Y349522D01*
X3842023Y408289D01*
X3671754Y467869D01*
X3671749Y467870D01*
X3492504Y488065D01*
X3492496Y488065D01*
X3313246Y467869D01*
X3305593Y465191D01*
X3235814Y461632D01*
X3175188Y496362D01*
X3171477Y500601D01*
X3042262Y629816D01*
X2889523Y725789D01*
X2719254Y785369D01*
X2719249Y785370D01*
X2540004Y805565D01*
X2539996Y805565D01*
X2360750Y785370D01*
X2360745Y785369D01*
X2190476Y725789D01*
X2037737Y629816D01*
X1910184Y502263D01*
X1814210Y349522D01*
X1754630Y179250D01*
X1744837Y92332D01*
X1717770Y27918D01*
X1709298Y18535D01*
X1251465Y-439298D01*
X1190142Y-472783D01*
X1177668Y-474837D01*
X1090750Y-484630D01*
X920478Y-544210D01*
X767736Y-640185D01*
X764903Y-642445D01*
X762724Y-643334D01*
X761842Y-643889D01*
X761744Y-643734D01*
X700217Y-668855D01*
X687588Y-669500D01*
X-6834059Y-669500D01*
X-6921592Y-692954D01*
X-6967568Y-696399D01*
X-6984998Y-694435D01*
X-6985004Y-694435D01*
X-7164250Y-714630D01*
X-7164255Y-714631D01*
X-7334524Y-774211D01*
X-7487263Y-870184D01*
X-7614816Y-997737D01*
X-7710790Y-1150478D01*
X-7770370Y-1320750D01*
X-7780163Y-1407668D01*
X-7807230Y-1472082D01*
X-7815701Y-1481465D01*
X-7953714Y-1619478D01*
X-8065519Y-1731282D01*
X-8065523Y-1731287D01*
X-8107804Y-1804522D01*
X-8144576Y-1868211D01*
X-8144577Y-1868212D01*
X-8153045Y-1899816D01*
X-8185501Y-2020943D01*
X-8185501Y-2020945D01*
X-8185501Y-2189046D01*
X-8185500Y-2189059D01*
X-8185500Y-2666000D01*
X-8205185Y-2733039D01*
X-8257989Y-2778794D01*
X-8309500Y-2790000D01*
X-8428703Y-2790000D01*
X-8428759Y-2789998D01*
X-8576874Y-2789998D01*
X-8591583Y-2792113D01*
X-8660741Y-2782169D01*
X-8713544Y-2736413D01*
X-8733228Y-2669373D01*
X-8732448Y-2655491D01*
X-8731898Y-2650617D01*
X-8719435Y-2540000D01*
X-8722581Y-2512082D01*
X-8739631Y-2360750D01*
X-8739632Y-2360745D01*
X-8799212Y-2190476D01*
X-8855622Y-2100700D01*
X-8895184Y-2037738D01*
X-9022738Y-1910184D01*
X-9175477Y-1814211D01*
X-9345746Y-1754631D01*
X-9345751Y-1754630D01*
X-9524996Y-1734435D01*
X-9525004Y-1734435D01*
X-9704250Y-1754630D01*
X-9704255Y-1754631D01*
X-9874524Y-1814211D01*
X-10027263Y-1910184D01*
X-10154816Y-2037737D01*
X-10250790Y-2190478D01*
X-10310370Y-2360750D01*
X-10320163Y-2447668D01*
X-10347230Y-2512082D01*
X-10355701Y-2521465D01*
X-10587418Y-2753182D01*
X-10648738Y-2786666D01*
X-10675097Y-2789500D01*
X-11060573Y-2789500D01*
X-11060601Y-2789503D01*
X-11116941Y-2789503D01*
X-11250479Y-2808703D01*
X-11250481Y-2808703D01*
X-11259256Y-2809964D01*
X-11397314Y-2850503D01*
X-11528082Y-2910223D01*
X-11528092Y-2910228D01*
X-11528094Y-2910230D01*
X-11561747Y-2931857D01*
X-11649133Y-2988015D01*
X-11649137Y-2988018D01*
X-11757774Y-3082152D01*
X-11757793Y-3082169D01*
X-11757794Y-3082171D01*
X-11852015Y-3190909D01*
X-11852017Y-3190911D01*
X-11852017Y-3190912D01*
X-11852019Y-3190915D01*
X-11929745Y-3311857D01*
X-11929748Y-3311863D01*
X-11989517Y-3442741D01*
X-12030023Y-3580691D01*
X-12030026Y-3580703D01*
X-12050500Y-3723110D01*
X-12050500Y-4295002D01*
X-12045356Y-4366939D01*
X-12034397Y-4404262D01*
X-12030637Y-4456841D01*
X-12050500Y-4594998D01*
X-12050500Y-5166889D01*
X-12030026Y-5309296D01*
X-12030023Y-5309308D01*
X-11989517Y-5447258D01*
X-11929748Y-5578136D01*
X-11929747Y-5578138D01*
X-11855624Y-5693476D01*
X-11854804Y-5694917D01*
X-11852012Y-5699098D01*
X-11757793Y-5807830D01*
X-11757790Y-5807833D01*
X-11649136Y-5901981D01*
X-11649133Y-5901984D01*
X-11649131Y-5901985D01*
X-11649130Y-5901986D01*
X-11528094Y-5979770D01*
X-11528086Y-5979774D01*
X-11528077Y-5979779D01*
X-11403358Y-6036736D01*
X-11399059Y-6038985D01*
X-11397308Y-6039499D01*
X-11259256Y-6080035D01*
X-11259255Y-6080035D01*
X-11259252Y-6080036D01*
X-11216817Y-6086136D01*
X-11116941Y-6100497D01*
X-11060601Y-6100497D01*
X-11060591Y-6100500D01*
X-11009236Y-6100500D01*
X-10529427Y-6100500D01*
X-10529399Y-6100497D01*
X-10473060Y-6100497D01*
X-10473059Y-6100497D01*
X-10339521Y-6081297D01*
X-10339519Y-6081297D01*
X-10333388Y-6080415D01*
X-10330744Y-6080035D01*
X-10330743Y-6080035D01*
X-10192691Y-6039498D01*
X-10061906Y-5979770D01*
X-9940870Y-5901986D01*
X-9832209Y-5807832D01*
X-9832206Y-5807829D01*
X-9804329Y-5775656D01*
X-9771957Y-5738298D01*
X-9713179Y-5700523D01*
X-9678244Y-5695500D01*
X-9371757Y-5695500D01*
X-9304718Y-5715185D01*
X-9278045Y-5738296D01*
X-9217791Y-5807832D01*
X-9136211Y-5878521D01*
X-9109136Y-5901981D01*
X-9109133Y-5901984D01*
X-9109131Y-5901985D01*
X-9109130Y-5901986D01*
X-8988094Y-5979770D01*
X-8988086Y-5979774D01*
X-8988077Y-5979779D01*
X-8863358Y-6036736D01*
X-8859059Y-6038985D01*
X-8857308Y-6039499D01*
X-8719256Y-6080035D01*
X-8719255Y-6080035D01*
X-8719252Y-6080036D01*
X-8676817Y-6086136D01*
X-8576941Y-6100497D01*
X-8520601Y-6100497D01*
X-8520591Y-6100500D01*
X-8469236Y-6100500D01*
X-7989427Y-6100500D01*
X-7989399Y-6100497D01*
X-7933060Y-6100497D01*
X-7933059Y-6100497D01*
X-7799521Y-6081297D01*
X-7799519Y-6081297D01*
X-7793388Y-6080415D01*
X-7790744Y-6080035D01*
X-7790743Y-6080035D01*
X-7652691Y-6039498D01*
X-7521906Y-5979770D01*
X-7400870Y-5901986D01*
X-7292209Y-5807832D01*
X-7292206Y-5807829D01*
X-7264329Y-5775656D01*
X-7231957Y-5738298D01*
X-7173179Y-5700523D01*
X-7138244Y-5695500D01*
X-6831757Y-5695500D01*
X-6764718Y-5715185D01*
X-6738045Y-5738296D01*
X-6677791Y-5807832D01*
X-6596211Y-5878521D01*
X-6569136Y-5901981D01*
X-6569133Y-5901984D01*
X-6569131Y-5901985D01*
X-6569130Y-5901986D01*
X-6448094Y-5979770D01*
X-6448086Y-5979774D01*
X-6448077Y-5979779D01*
X-6323358Y-6036736D01*
X-6319059Y-6038985D01*
X-6317308Y-6039499D01*
X-6179256Y-6080035D01*
X-6179255Y-6080035D01*
X-6179252Y-6080036D01*
X-6136817Y-6086136D01*
X-6036941Y-6100497D01*
X-5980601Y-6100497D01*
X-5980591Y-6100500D01*
X-5929236Y-6100500D01*
X-5449427Y-6100500D01*
X-5449399Y-6100497D01*
X-5393060Y-6100497D01*
X-5393059Y-6100497D01*
X-5259521Y-6081297D01*
X-5259519Y-6081297D01*
X-5253388Y-6080415D01*
X-5250744Y-6080035D01*
X-5250743Y-6080035D01*
X-5112691Y-6039498D01*
X-4981906Y-5979770D01*
X-4860870Y-5901986D01*
X-4752209Y-5807832D01*
X-4752206Y-5807829D01*
X-4724329Y-5775656D01*
X-4691957Y-5738298D01*
X-4633179Y-5700523D01*
X-4598244Y-5695500D01*
X-4291757Y-5695500D01*
X-4224718Y-5715185D01*
X-4198045Y-5738296D01*
X-4137791Y-5807832D01*
X-4056211Y-5878521D01*
X-4029136Y-5901981D01*
X-4029133Y-5901984D01*
X-4029131Y-5901985D01*
X-4029130Y-5901986D01*
X-3908094Y-5979770D01*
X-3908086Y-5979774D01*
X-3908077Y-5979779D01*
X-3783358Y-6036736D01*
X-3779059Y-6038985D01*
X-3777308Y-6039499D01*
X-3639256Y-6080035D01*
X-3639255Y-6080035D01*
X-3639252Y-6080036D01*
X-3596817Y-6086136D01*
X-3496941Y-6100497D01*
X-3440601Y-6100497D01*
X-3440591Y-6100500D01*
X-3389236Y-6100500D01*
X-2909427Y-6100500D01*
X-2909399Y-6100497D01*
X-2853060Y-6100497D01*
X-2853059Y-6100497D01*
X-2719521Y-6081297D01*
X-2719519Y-6081297D01*
X-2716274Y-6080829D01*
X-2710744Y-6080035D01*
X-2710743Y-6080035D01*
X-2664437Y-6066438D01*
X-2594568Y-6066436D01*
X-2535789Y-6104209D01*
X-2506763Y-6167764D01*
X-2505500Y-6185414D01*
X-2505500Y-6684902D01*
X-2525185Y-6751941D01*
X-2541819Y-6772583D01*
X-5866470Y-10097233D01*
X-5927793Y-10130718D01*
X-5986244Y-10129327D01*
X-6114587Y-10094938D01*
X-6114597Y-10094936D01*
X-6349999Y-10074341D01*
X-6350001Y-10074341D01*
X-6585404Y-10094936D01*
X-6585414Y-10094938D01*
X-6813656Y-10156094D01*
X-6813665Y-10156098D01*
X-7027829Y-10255964D01*
X-7027831Y-10255965D01*
X-7221403Y-10391505D01*
X-7388495Y-10558597D01*
X-7524035Y-10752169D01*
X-7524036Y-10752171D01*
X-7623902Y-10966335D01*
X-7623906Y-10966344D01*
X-7685062Y-11194586D01*
X-7685064Y-11194596D01*
X-7705659Y-11429999D01*
X-7705659Y-11430000D01*
X-7685064Y-11665403D01*
X-7685062Y-11665413D01*
X-7623906Y-11893655D01*
X-7623904Y-11893659D01*
X-7623903Y-11893663D01*
X-7551972Y-12047919D01*
X-7524035Y-12107830D01*
X-7521326Y-12112522D01*
X-7523320Y-12113673D01*
X-7504126Y-12170574D01*
X-7521132Y-12238343D01*
X-7572077Y-12286159D01*
X-7628028Y-12299500D01*
X-9212949Y-12299500D01*
X-9279988Y-12279815D01*
X-9325743Y-12227011D01*
X-9335687Y-12157853D01*
X-9306662Y-12094297D01*
X-9260401Y-12060939D01*
X-9228988Y-12047927D01*
X-9228985Y-12047925D01*
X-9228979Y-12047923D01*
X-8990521Y-11910249D01*
X-8772072Y-11742628D01*
X-8577372Y-11547928D01*
X-8409751Y-11329479D01*
X-8272077Y-11091021D01*
X-8166705Y-10836632D01*
X-8095440Y-10570666D01*
X-8059500Y-10297674D01*
X-8059500Y-10022326D01*
X-8095440Y-9749334D01*
X-8166705Y-9483368D01*
X-8272077Y-9228979D01*
X-8272079Y-9228976D01*
X-8272081Y-9228971D01*
X-8321268Y-9143778D01*
X-8409751Y-8990521D01*
X-8577372Y-8772072D01*
X-8577377Y-8772066D01*
X-8772067Y-8577376D01*
X-8772074Y-8577370D01*
X-8990517Y-8409754D01*
X-8990518Y-8409753D01*
X-8990521Y-8409751D01*
X-9085593Y-8354861D01*
X-9228972Y-8272080D01*
X-9228983Y-8272075D01*
X-9483370Y-8166704D01*
X-9616351Y-8131072D01*
X-9749334Y-8095440D01*
X-9749340Y-8095439D01*
X-9749345Y-8095438D01*
X-10022316Y-8059501D01*
X-10022321Y-8059500D01*
X-10022326Y-8059500D01*
X-10297674Y-8059500D01*
X-10297680Y-8059500D01*
X-10297685Y-8059501D01*
X-10570656Y-8095438D01*
X-10570663Y-8095439D01*
X-10570666Y-8095440D01*
X-10626875Y-8110500D01*
X-10836631Y-8166704D01*
X-11091018Y-8272075D01*
X-11091029Y-8272080D01*
X-11329484Y-8409754D01*
X-11547927Y-8577370D01*
X-11547934Y-8577376D01*
X-11742624Y-8772066D01*
X-11742630Y-8772073D01*
X-11910246Y-8990516D01*
X-12047920Y-9228971D01*
X-12047923Y-9228978D01*
X-12060939Y-9260402D01*
X-12104781Y-9314805D01*
X-12171075Y-9336869D01*
X-12238774Y-9319589D01*
X-12286384Y-9268452D01*
X-12299500Y-9212948D01*
X-12299500Y5080000D01*
X-1640341Y5080000D01*
X-1621025Y4883871D01*
X-1563812Y4695267D01*
X-1470914Y4521468D01*
X-1470910Y4521461D01*
X-1345884Y4369117D01*
X-1193540Y4244091D01*
X-1193533Y4244087D01*
X-1019734Y4151189D01*
X-1019731Y4151189D01*
X-1019727Y4151186D01*
X-831132Y4093976D01*
X-635000Y4074659D01*
X-438868Y4093976D01*
X-250273Y4151186D01*
X-76462Y4244090D01*
X75883Y4369117D01*
X200910Y4521462D01*
X293814Y4695273D01*
X351024Y4883868D01*
X370341Y5080000D01*
X351024Y5276132D01*
X293814Y5464727D01*
X293811Y5464731D01*
X293811Y5464734D01*
X200913Y5638533D01*
X200909Y5638540D01*
X75883Y5790884D01*
X-76461Y5915910D01*
X-76468Y5915914D01*
X-250267Y6008812D01*
X-250273Y6008814D01*
X-438868Y6066024D01*
X-438871Y6066025D01*
X-635000Y6085341D01*
X-831130Y6066025D01*
X-1019734Y6008812D01*
X-1193533Y5915914D01*
X-1193540Y5915910D01*
X-1345884Y5790884D01*
X-1470910Y5638540D01*
X-1470914Y5638533D01*
X-1563812Y5464734D01*
X-1621025Y5276130D01*
X-1640341Y5080000D01*
X-12299500Y5080000D01*
X-12299500Y9212949D01*
X-12279815Y9279988D01*
X-12227011Y9325743D01*
X-12157853Y9335687D01*
X-12094297Y9306662D01*
X-12060939Y9260401D01*
X-12047928Y9228988D01*
X-12047920Y9228972D01*
X-11965139Y9085593D01*
X-11910249Y8990521D01*
X-11910247Y8990518D01*
X-11910246Y8990517D01*
X-11742630Y8772074D01*
X-11742624Y8772067D01*
X-11547934Y8577377D01*
X-11547928Y8577372D01*
X-11329479Y8409751D01*
X-11176222Y8321268D01*
X-11091029Y8272081D01*
X-11091024Y8272079D01*
X-11091021Y8272077D01*
X-10836632Y8166705D01*
X-10570666Y8095440D01*
X-10297674Y8059500D01*
X-10297667Y8059500D01*
X-10022333Y8059500D01*
X-10022326Y8059500D01*
X-9749334Y8095440D01*
X-9483368Y8166705D01*
X-9228979Y8272077D01*
X-8990521Y8409751D01*
X-8772072Y8577372D01*
X-8577372Y8772072D01*
X-8409751Y8990521D01*
X-8272077Y9228979D01*
X-8166705Y9483368D01*
X-8095440Y9749334D01*
X-8059500Y10022326D01*
X-8059500Y10297674D01*
X-8095440Y10570666D01*
X-8166705Y10836632D01*
X-8272077Y11091021D01*
X-8272079Y11091024D01*
X-8272081Y11091029D01*
X-8331928Y11194685D01*
X-8409751Y11329479D01*
X-8537393Y11495826D01*
X-8577371Y11547927D01*
X-8577377Y11547934D01*
X-8772067Y11742624D01*
X-8772074Y11742630D01*
X-8990517Y11910246D01*
X-8990518Y11910247D01*
X-8990521Y11910249D01*
X-9085593Y11965139D01*
X-9228972Y12047920D01*
X-9228988Y12047928D01*
X-9260401Y12060939D01*
X-9314805Y12104780D01*
X-9336870Y12171074D01*
X-9319591Y12238773D01*
X-9268454Y12286384D01*
X-9212949Y12299500D01*
X-7627417Y12299500D01*
X-7560378Y12279815D01*
G37*
%TD.AperFunction*%
%TD*%
M02*
