%TF.GenerationSoftware,KiCad,Pcbnew,8.0.7*%
%TF.CreationDate,2025-02-08T23:44:29-05:00*%
%TF.ProjectId,QwiicUART-Board,51776969-6355-4415-9254-2d426f617264,0.0.2*%
%TF.SameCoordinates,PX853a720PY66f2fb0*%
%TF.FileFunction,Soldermask,Top*%
%TF.FilePolarity,Negative*%
%FSLAX46Y46*%
G04 Gerber Fmt 4.6, Leading zero omitted, Abs format (unit mm)*
G04 Created by KiCad (PCBNEW 8.0.7) date 2025-02-08 23:44:29*
%MOMM*%
%LPD*%
G01*
G04 APERTURE LIST*
G04 Aperture macros list*
%AMRoundRect*
0 Rectangle with rounded corners*
0 $1 Rounding radius*
0 $2 $3 $4 $5 $6 $7 $8 $9 X,Y pos of 4 corners*
0 Add a 4 corners polygon primitive as box body*
4,1,4,$2,$3,$4,$5,$6,$7,$8,$9,$2,$3,0*
0 Add four circle primitives for the rounded corners*
1,1,$1+$1,$2,$3*
1,1,$1+$1,$4,$5*
1,1,$1+$1,$6,$7*
1,1,$1+$1,$8,$9*
0 Add four rect primitives between the rounded corners*
20,1,$1+$1,$2,$3,$4,$5,0*
20,1,$1+$1,$4,$5,$6,$7,0*
20,1,$1+$1,$6,$7,$8,$9,0*
20,1,$1+$1,$8,$9,$2,$3,0*%
G04 Aperture macros list end*
%ADD10C,3.200000*%
%ADD11RoundRect,0.237500X0.250000X0.237500X-0.250000X0.237500X-0.250000X-0.237500X0.250000X-0.237500X0*%
%ADD12RoundRect,0.100000X0.100000X-0.637500X0.100000X0.637500X-0.100000X0.637500X-0.100000X-0.637500X0*%
%ADD13RoundRect,0.237500X-0.300000X-0.237500X0.300000X-0.237500X0.300000X0.237500X-0.300000X0.237500X0*%
%ADD14RoundRect,0.150000X0.625000X-0.150000X0.625000X0.150000X-0.625000X0.150000X-0.625000X-0.150000X0*%
%ADD15RoundRect,0.250000X0.650000X-0.350000X0.650000X0.350000X-0.650000X0.350000X-0.650000X-0.350000X0*%
%ADD16C,1.000000*%
%ADD17RoundRect,0.150000X-0.625000X0.150000X-0.625000X-0.150000X0.625000X-0.150000X0.625000X0.150000X0*%
%ADD18RoundRect,0.250000X-0.650000X0.350000X-0.650000X-0.350000X0.650000X-0.350000X0.650000X0.350000X0*%
%ADD19RoundRect,0.200000X-0.200000X-0.250000X0.200000X-0.250000X0.200000X0.250000X-0.200000X0.250000X0*%
%ADD20RoundRect,0.237500X-0.237500X0.250000X-0.237500X-0.250000X0.237500X-0.250000X0.237500X0.250000X0*%
%ADD21C,1.700000*%
G04 APERTURE END LIST*
D10*
%TO.C,REF\u002A\u002A*%
X10160000Y10160000D03*
%TD*%
D11*
%TO.C,R2*%
X-2897500Y3810000D03*
X-4722500Y3810000D03*
%TD*%
D10*
%TO.C,REF\u002A\u002A*%
X10160000Y-10160000D03*
%TD*%
D12*
%TO.C,U1*%
X-1005000Y-2862500D03*
X-355000Y-2862500D03*
X295000Y-2862500D03*
X945000Y-2862500D03*
X1595000Y-2862500D03*
X2245000Y-2862500D03*
X2895000Y-2862500D03*
X3545000Y-2862500D03*
X3545000Y2862500D03*
X2895000Y2862500D03*
X2245000Y2862500D03*
X1595000Y2862500D03*
X945000Y2862500D03*
X295000Y2862500D03*
X-355000Y2862500D03*
X-1005000Y2862500D03*
%TD*%
D13*
%TO.C,C1*%
X-4672500Y-1270000D03*
X-2947500Y-1270000D03*
%TD*%
%TO.C,C2*%
X-4672500Y-3175000D03*
X-2947500Y-3175000D03*
%TD*%
D14*
%TO.C,J2*%
X7525000Y-1500000D03*
X7525000Y-500000D03*
X7525000Y500000D03*
X7525000Y1500000D03*
D15*
X11400000Y-2800000D03*
X11400000Y2800000D03*
%TD*%
D16*
%TO.C,TP1*%
X-635000Y5080000D03*
%TD*%
D17*
%TO.C,J1*%
X-7525000Y1500000D03*
X-7525000Y500000D03*
X-7525000Y-500000D03*
X-7525000Y-1500000D03*
D18*
X-11400000Y2800000D03*
X-11400000Y-2800000D03*
%TD*%
D19*
%TO.C,X1*%
X-4535000Y2195000D03*
X-4535000Y345000D03*
X-3085000Y345000D03*
X-3085000Y2195000D03*
%TD*%
D20*
%TO.C,R1*%
X5080000Y-2897500D03*
X5080000Y-4722500D03*
%TD*%
D10*
%TO.C,REF\u002A\u002A*%
X-10160000Y10160000D03*
%TD*%
%TO.C,REF\u002A\u002A*%
X-10160000Y-10160000D03*
%TD*%
D21*
%TO.C,J4*%
X6350000Y-11430000D03*
X3810000Y-11430000D03*
X1270000Y-11430000D03*
X-1270000Y-11430000D03*
X-3810000Y-11430000D03*
X-6350000Y-11430000D03*
%TD*%
%TO.C,J3*%
X-6350000Y11430000D03*
X-3810000Y11430000D03*
X-1270000Y11430000D03*
X1270000Y11430000D03*
X3810000Y11430000D03*
X6350000Y11430000D03*
%TD*%
M02*
